<svg width="103" height="35" viewBox="0 0 103 35" fill="none" xmlns="http://www.w3.org/2000/svg">
<g id="Frame" clip-path="url(#clip0_625_542)">
<g id="Group">
<path id="Vector" d="M7.41878 7.5511C7.95842 7.60715 8.52646 7.69123 9.06611 7.63518C10.401 7.5511 11.7075 7.29885 12.9856 6.9345C14.3489 6.57015 15.6554 6.12172 16.9619 5.64526C17.6152 5.42104 18.2684 5.19682 18.8933 4.8605C19.4045 4.58023 19.8305 4.72036 20.285 4.91655C22.4435 5.84145 24.6589 6.59818 26.9595 7.15872C28.2092 7.46702 29.4873 7.69123 30.7654 7.63518C30.9926 7.63518 31.2198 7.57912 31.447 7.5511C31.6175 7.52307 31.7027 7.57912 31.7311 7.77531C31.9583 9.70918 32.0151 11.643 31.9299 13.6049C31.9015 14.0814 31.8447 14.5859 31.8163 15.0623C31.7879 15.4828 31.4754 15.763 31.2482 16.0993C30.4814 17.2204 29.6293 18.2574 28.7204 19.2664C27.6127 20.4996 26.3914 21.6487 25.1417 22.7137C24.1193 23.5826 23.0684 24.3673 21.9607 25.1241C20.5406 26.077 19.0637 26.9458 17.53 27.6465C16.1951 28.2631 14.8318 28.7956 13.44 29.188C13.1844 29.2721 13.1276 29.0759 13.014 28.9638C12.3324 28.207 11.7075 27.4223 11.1395 26.5815C10.2022 25.1801 9.46374 23.6667 8.89569 22.0971C8.27084 20.4716 7.87321 18.818 7.58919 17.1083C7.36197 15.707 7.21996 14.3056 7.19156 12.8762C7.16316 11.615 7.16316 10.3538 7.27677 9.12061C7.24836 8.64415 7.19156 8.08361 7.41878 7.5511ZM17.3879 19.7709C17.2175 19.6588 17.0755 19.5747 16.9619 19.4626C16.4791 18.874 15.911 18.3415 15.343 17.837C14.8318 17.3606 14.1785 17.3886 13.7525 17.837C13.3264 18.2855 13.3264 18.9301 13.8093 19.4065C14.7465 20.3314 15.7122 21.2844 16.6495 22.2092C17.0755 22.6297 17.672 22.6297 18.098 22.2092C19.5181 20.8079 20.9666 19.4065 22.3867 18.0052C23.7216 16.6879 25.0565 15.3706 26.3914 14.0534C26.6755 13.7731 26.7607 13.4368 26.6755 13.0164C26.4767 12.2316 25.4542 11.8392 24.7157 12.5679C23.2104 14.0534 21.7051 15.5108 20.1998 16.9962C19.2625 17.9211 18.3252 18.846 17.3879 19.7709Z" fill="#85BD25"/>
<path id="Vector_2" d="M98.6751 10.1844C98.3343 10.857 98.0219 11.5017 97.6811 12.1743C96.7722 13.9961 95.8633 15.8178 94.9545 17.6676C94.074 19.4333 93.2219 21.199 92.3415 22.9647C91.7166 24.2259 91.0918 25.4591 90.4669 26.7203C90.3817 26.9165 90.2681 26.9726 90.0409 26.9726C88.7912 26.9726 87.5415 26.9726 86.2918 26.9726C86.0646 26.9726 85.951 26.9165 85.8373 26.6923C85.3261 25.6553 84.7581 24.6183 84.2752 23.5533C83.7924 22.5443 83.2812 21.5353 82.7983 20.5544C81.9747 18.8728 81.151 17.1911 80.2989 15.5375C79.9297 14.7808 79.5889 14.0521 79.1912 13.2954C78.964 12.875 79.0208 12.3985 78.9072 11.9221C78.5664 10.2685 77.9983 8.67092 77.0611 7.24154C76.1522 5.86821 75.0445 4.66305 73.6812 3.71013C73.454 3.57 73.2836 2.75721 73.454 2.53299C73.5108 2.44891 73.596 2.44891 73.6812 2.44891C75.1581 2.44891 76.6066 2.44891 78.0836 2.44891C78.2824 2.44891 78.3676 2.56102 78.4528 2.72918C78.822 3.48591 79.1344 4.24265 79.5321 4.99938C80.4977 6.82113 81.3782 8.67092 82.3155 10.4927C83.1391 12.1182 83.9344 13.7718 84.7581 15.4254C85.3829 16.6586 86.0078 17.8918 86.6326 19.153C87.1723 20.2181 87.6835 21.2551 88.2231 22.3481C88.5072 22.1519 88.564 21.8717 88.6776 21.6194C89.3592 20.2461 90.0409 18.9008 90.7225 17.5275C91.2054 16.5745 91.6314 15.5936 92.1142 14.6407C92.7107 13.5476 93.2503 12.4265 93.79 11.3055C95.0113 8.86711 96.2326 6.42876 97.4539 3.9904C97.6527 3.57 97.8799 3.14959 98.0787 2.72918C98.1355 2.58905 98.2207 2.47694 98.4195 2.47694C99.8964 2.47694 101.373 2.47694 102.85 2.47694C102.879 2.47694 102.907 2.47694 102.935 2.50497C102.935 10.6328 102.935 18.7887 102.935 26.9446C101.572 26.9446 100.237 26.9446 98.8456 26.9446C98.8456 21.3672 98.8456 15.7898 98.8456 10.2124C98.7604 10.2124 98.7035 10.2124 98.6751 10.1844Z" fill="#FBFBFC"/>
<path id="Vector_3" d="M43.291 26.9456C41.8709 26.9456 40.5076 26.9456 39.1727 26.9456C39.0875 26.8055 39.1159 26.6654 39.1159 26.5533C39.1159 18.6777 39.1159 10.8021 39.1159 2.92645C39.1159 2.5621 39.2295 2.47802 39.5703 2.47802C43.5466 2.47802 47.5513 2.44999 51.5276 2.50604C53.4874 2.53407 55.3335 2.95448 56.9525 4.15964C58.3158 5.19664 59.111 6.59799 59.4518 8.25159C59.6223 9.12043 59.6507 10.0173 59.5655 10.8861C59.3098 12.9882 58.3726 14.6978 56.5832 15.8749C55.5607 16.5476 54.3963 16.94 53.175 17.0801C53.1182 17.0801 53.0614 17.1081 52.9477 17.1362C55.4755 20.4153 58.0033 23.6384 60.5027 26.8616C60.3891 27.0017 60.2755 26.9456 60.1903 26.9456C58.7134 26.9456 57.2081 26.9456 55.7312 26.9456C55.4755 26.9456 55.3335 26.8616 55.2199 26.6934C54.6235 25.9086 54.027 25.1519 53.4306 24.3671C52.8057 23.5824 52.1809 22.7696 51.556 21.9568C50.7324 20.8918 49.9087 19.8268 49.085 18.7337C48.7442 18.2853 48.4034 17.8368 48.0626 17.3884C47.9774 17.2763 47.8921 17.2202 47.7501 17.2202C46.3016 17.2202 44.8531 17.2202 43.3762 17.2202C43.291 20.4994 43.291 23.7225 43.291 26.9456ZM43.3194 6.26167C43.3194 8.70002 43.3194 11.0823 43.3194 13.4646C46.188 13.4646 48.9998 13.5207 51.8117 13.4366C53.4874 13.3805 54.9643 12.5958 55.3619 10.6619C55.646 9.23254 55.2767 7.88724 53.9986 6.99037C53.175 6.42983 52.2377 6.23364 51.272 6.23364C48.7442 6.20561 46.188 6.23364 43.6602 6.23364C43.5466 6.26167 43.433 6.26167 43.3194 6.26167Z" fill="#FBFBFC"/>
<path id="Vector_4" d="M59.8219 23.2446C60.6172 23.2446 61.384 23.2446 62.1509 23.2446C63.3438 23.2446 64.5651 23.3007 65.758 23.1045C67.9733 22.7962 69.9047 21.9554 71.3816 20.2457C72.3757 19.1246 72.9721 17.7793 73.1993 16.2939C73.4266 14.8926 73.3697 13.5192 72.9721 12.1459C72.7165 11.3051 72.3473 10.5484 71.836 9.79163C71.0692 8.69857 70.1035 7.88579 68.9106 7.26919C68.0869 6.84879 67.2065 6.56852 66.2692 6.40036C64.4799 6.036 62.6621 6.26022 60.8728 6.20417C60.6172 6.20417 60.4751 6.12008 60.3899 5.9239C60.0775 5.22322 59.6799 4.5786 59.197 3.99003C58.7426 3.45751 58.2314 3.03711 57.6917 2.6167C57.6633 2.58868 57.6065 2.58868 57.5781 2.56065C57.6917 2.42051 57.8053 2.44854 57.8905 2.44854C60.3047 2.44854 62.6905 2.39249 65.0763 2.47657C67.6609 2.56065 70.0751 3.26132 72.2337 4.6907C74.1366 5.95192 75.5851 7.63355 76.4656 9.73558C77.2608 11.6134 77.5449 13.6033 77.4029 15.6493C77.204 18.48 76.1816 20.9744 74.1934 23.0204C72.5745 24.702 70.6147 25.739 68.371 26.3836C66.5248 26.8881 64.6219 26.9722 62.7473 26.9162C62.6621 26.9162 62.5769 26.9162 62.4917 26.8321C61.6112 25.6549 60.7024 24.5058 59.7935 23.3287C59.8503 23.3567 59.8503 23.3287 59.8219 23.2446Z" fill="#FBFBFC"/>
<path id="Vector_5" d="M3.01668 19.3778C2.53384 20.6109 2.07941 22.0403 1.9374 23.5258C1.82379 24.9271 1.9942 26.3004 2.73266 27.5336C3.35751 28.5987 4.26638 29.3274 5.40247 29.8038C6.96459 30.4765 8.58351 30.5325 10.2308 30.3924C12.1622 30.2242 14.0083 29.7197 15.7977 29.0191C17.3882 28.4025 18.9503 27.6457 20.4272 26.7489C21.8189 25.9361 23.1254 25.0392 24.4035 24.0583C26.0509 22.7971 27.5562 21.3957 28.9763 19.8822C30.084 18.6771 31.1065 17.4159 32.0153 16.0706C33.0378 14.5011 33.9467 12.8755 34.5147 11.1098C34.9408 9.79251 35.2248 8.47523 35.168 7.10191C35.1396 6.12096 34.8839 5.19607 34.4295 4.35526C33.6059 2.89785 32.3277 2.05704 30.7088 1.60861C29.6579 1.32834 28.6071 1.27228 27.5562 1.30031C27.4142 1.30031 27.3006 1.30031 27.1585 1.27228C27.897 1.07609 28.6355 1.04807 29.3739 0.992011C30.1124 0.963984 30.8508 0.963984 31.5609 1.07609C33.8615 1.41242 35.8212 2.30928 36.9573 4.43934C37.4685 5.39226 37.6958 6.40123 37.7242 7.49429C37.781 9.23197 37.4117 10.8575 36.7869 12.4831C36.1904 14.0526 35.3952 15.5381 34.4863 16.9674C33.2082 18.9854 31.7029 20.8071 30.0272 22.4888C27.9538 24.6188 25.6532 26.4966 23.1538 28.1502C21.9041 28.991 20.5976 29.7478 19.2343 30.4204C17.729 31.1771 16.1953 31.8218 14.5764 32.2982C13.6107 32.5785 12.6166 32.8307 11.5941 32.9989C10.6853 33.1671 9.7764 33.2512 8.86753 33.2512C6.93618 33.2512 5.03324 32.9148 3.41431 31.7377C2.42024 31.009 1.76698 30.028 1.36935 28.8789C0.914919 27.5897 0.914919 26.2724 1.08533 24.9832C1.25575 23.5258 1.71018 22.1244 2.33503 20.7791C2.56225 20.2466 2.81787 19.7141 3.01668 19.3778Z" fill="#FBFBFC"/>
<path id="Vector_6" d="M19.5186 3.99179C20.3138 3.62744 21.0523 3.31914 21.8191 3.03887C22.9836 2.61846 24.1765 2.22608 25.4262 2.02989C26.9031 1.80568 28.3516 1.74962 29.8286 2.08595C30.6238 2.25411 31.3623 2.59043 32.0439 3.06689C33.7765 4.27206 34.3445 5.98171 34.3161 7.97163C34.2877 9.87747 33.6912 11.6432 32.8108 13.3528C32.8108 13.3809 32.7824 13.3809 32.7256 13.4089C32.896 12.8203 33.0948 12.2317 33.2368 11.6712C33.6344 10.1297 33.6912 8.61625 32.9528 7.15885C32.612 6.4862 32.1575 5.92565 31.5043 5.44919C29.9138 4.30009 28.1244 4.216 26.2783 4.35614C25.4546 4.41219 24.6594 4.60838 23.8641 4.77655C23.6085 4.8326 23.3529 4.88865 23.0972 5.00076C22.6428 5.19695 22.2452 5.19695 21.7907 5.00076C21.0807 4.63641 20.3138 4.35614 19.5186 3.99179Z" fill="#FBFBFC"/>
<path id="Vector_7" d="M11.7924 29.4118C9.94622 29.7201 8.21369 29.7762 6.50956 29.2437C4.4078 28.571 3.10129 27.1417 2.70366 24.9836C2.39124 23.2739 2.73207 21.6484 3.30011 20.0228C4.01016 18.0048 5.08945 16.1831 6.36755 14.4734C6.42435 14.3893 6.48116 14.3333 6.56636 14.2492C6.59477 14.5855 6.65157 14.8938 6.67997 15.2021C6.70837 15.8467 6.82198 16.4633 6.93559 17.108C6.9924 17.4443 6.90719 17.7526 6.73678 18.0609C6.02672 19.2661 5.48708 20.5273 5.14625 21.9006C4.94744 22.7414 4.80543 23.5822 4.86223 24.423C4.97584 26.2168 5.7427 27.7022 7.39003 28.5991C8.41251 29.1596 9.52019 29.3558 10.6847 29.3838C10.9971 29.3838 11.3663 29.3278 11.7924 29.4118Z" fill="#FBFBFC"/>
<path id="Vector_8" d="M16.792 32.158C21.5352 30.2241 25.6535 27.4775 29.3458 24.0862C29.3174 24.4225 29.1469 24.6747 28.9765 24.955C28.0393 26.6647 26.9316 28.2342 25.5399 29.5795C24.1766 30.9248 22.6428 32.0178 20.9103 32.9147C20.5127 33.1109 20.115 33.2791 19.7174 33.5033C19.4334 33.6434 19.263 33.4752 19.0642 33.3631C18.3257 32.9988 17.5873 32.6344 16.792 32.158Z" fill="#85BD25"/>
<path id="Vector_9" d="M77.5158 21.452C77.5158 23.3298 77.5158 25.1235 77.5158 26.9733C76.1525 26.9733 74.7892 26.9733 73.3975 26.9733C73.3975 26.665 73.3975 26.3847 73.3975 26.1045C73.3975 25.9923 73.4827 25.9083 73.5679 25.8522C75.2152 24.6751 76.4933 23.2177 77.5158 21.452Z" fill="#FBFBFC"/>
<path id="Vector_10" d="M89.2741 33.4749C88.6777 32.6621 88.28 31.7652 87.6836 30.9805C87.6836 31.8213 87.6836 32.6341 87.6836 33.4749C87.3712 33.5029 87.3428 33.5029 87.3428 33.3067C87.3428 32.3538 87.3428 31.3729 87.3428 30.4199C87.7404 30.2518 87.854 30.476 88.0244 30.7282C88.3653 31.3448 88.7345 31.9614 89.1037 32.578C89.1321 32.6341 89.1889 32.7182 89.2741 32.8022C89.5013 32.55 89.615 32.2697 89.7854 32.0175C90.0694 31.541 90.3534 31.0365 90.6374 30.5601C90.751 30.3359 90.9499 30.3919 91.1771 30.3919C91.1771 30.7563 91.1771 31.1486 91.1771 31.513C91.1771 32.0735 91.1771 32.6061 91.1771 33.1666C91.1771 33.3067 91.2907 33.5309 91.0635 33.5309C90.7794 33.559 90.8646 33.2787 90.8646 33.1386C90.8646 32.55 90.8646 31.9614 90.8646 31.4009C90.8646 31.2888 90.8646 31.1767 90.7794 31.0365C90.2398 31.8213 89.7854 32.6341 89.2741 33.4749Z" fill="#FBFBFC"/>
<path id="Vector_11" d="M40.2239 32.2428C40.6215 32.6913 41.1612 32.9435 41.4736 33.448C41.0192 33.6162 40.8771 33.2238 40.6215 33.0556C40.3091 32.8314 40.0251 32.5511 39.7127 32.2989C39.6274 32.2428 39.5706 32.1868 39.4002 32.2709C39.4002 32.6072 39.4002 32.9435 39.4002 33.3079C39.4002 33.392 39.457 33.5321 39.2866 33.5601C39.1162 33.5881 39.1162 33.448 39.1162 33.3359C39.1162 32.439 39.1162 31.5422 39.1162 30.6453C39.1162 30.4491 39.2014 30.4211 39.3718 30.4211C39.8263 30.4211 40.2807 30.4211 40.7067 30.4211C41.2464 30.4491 41.5872 30.7854 41.6156 31.2899C41.6156 31.8224 41.3316 32.1307 40.7635 32.2148C40.6215 32.1868 40.4227 32.1307 40.2239 32.2428ZM39.4286 30.7014C39.4286 31.0657 39.4286 31.374 39.4286 31.6823C39.4286 31.8224 39.4854 31.8785 39.599 31.8785C40.0251 31.8785 40.4511 31.9345 40.8771 31.8224C41.1896 31.7384 41.3316 31.5422 41.3316 31.2619C41.3316 30.9536 41.1612 30.7294 40.8203 30.7014C40.3659 30.6733 39.9115 30.7014 39.4286 30.7014Z" fill="#FBFBFC"/>
<path id="Vector_12" d="M67.1494 30.3646C67.6891 30.3646 68.1719 30.2805 68.6263 30.4206C69.5352 30.6448 69.9612 31.2054 69.9328 32.0181C69.9044 32.887 69.2228 33.4756 68.3139 33.5316C68.0015 33.5596 67.6891 33.5316 67.405 33.5316C67.2346 33.5316 67.1494 33.4756 67.1494 33.2794C67.1494 32.3264 67.1494 31.3735 67.1494 30.3646ZM67.4618 33.1953C67.8595 33.1953 68.2287 33.2233 68.5979 33.1953C69.6204 33.0552 69.9328 31.9341 69.4216 31.1773C69.1092 30.7289 68.2003 30.5327 67.4902 30.7569C67.4902 30.813 67.4902 30.869 67.4902 30.9251C67.4618 31.6538 67.4618 32.4105 67.4618 33.1953Z" fill="#FBFBFC"/>
<path id="Vector_13" d="M102.539 31.541C102.624 31.4289 102.681 31.2607 102.908 31.3728C102.908 32.1295 102.936 32.8863 102.908 33.643C102.88 34.0914 102.51 34.4278 102.056 34.4838C101.545 34.5679 101.09 34.3437 100.835 33.9233C101.062 33.8672 101.062 33.8672 101.204 33.9793C101.488 34.2316 101.829 34.2876 102.169 34.1195C102.51 33.9513 102.595 33.643 102.539 33.3067C101.715 33.643 101.175 33.5589 100.863 33.0825C100.607 32.6901 100.664 31.9053 101.005 31.541C101.374 31.2327 101.971 31.2047 102.539 31.541ZM102.567 32.4378C102.595 31.8773 102.283 31.6531 101.743 31.597C101.374 31.541 101.005 32.0174 101.005 32.4659C101.005 32.9143 101.403 33.3347 101.8 33.3347C102.255 33.3067 102.567 32.9423 102.567 32.4378Z" fill="#FBFBFC"/>
<path id="Vector_14" d="M59.6504 30.3647C59.6504 30.7571 59.6504 31.1495 59.6504 31.5699C59.9912 31.4017 60.2752 31.2896 60.6445 31.3457C61.2693 31.4297 61.6954 32.1024 61.4965 32.775C61.2977 33.4757 60.6445 33.756 59.9628 33.5037C59.8492 33.4477 59.7356 33.3075 59.5652 33.5037C59.48 33.6158 59.3096 33.5318 59.3096 33.3636C59.3096 32.4107 59.3096 31.4858 59.3096 30.5329C59.338 30.3367 59.48 30.3367 59.6504 30.3647ZM61.2125 32.4107C61.2409 31.8501 60.8433 31.6259 60.3889 31.5699C59.9912 31.5418 59.6504 31.9622 59.622 32.4387C59.5936 32.9992 60.048 33.2795 60.4173 33.3075C60.8717 33.3356 61.2125 32.8871 61.2125 32.4107Z" fill="#FBFBFC"/>
<path id="Vector_15" d="M47.2959 31.4023C47.4947 31.3462 47.6651 31.3182 47.6367 31.5705C48.2616 31.2061 48.858 31.2622 49.2272 31.6545C49.5681 32.0469 49.5965 32.7476 49.3125 33.14C48.9432 33.6164 48.4604 33.7005 47.6367 33.3362C47.6367 33.7005 47.6367 34.0649 47.6367 34.4572C47.4095 34.5133 47.2959 34.4853 47.2959 34.261C47.2959 33.3081 47.2959 32.3552 47.2959 31.4023ZM47.6367 32.4393C47.5799 32.9998 48.0344 33.3081 48.432 33.3362C48.858 33.3642 49.2272 32.9438 49.2272 32.4393C49.2272 31.9628 48.8864 31.5985 48.4604 31.5985C47.9491 31.5705 47.6367 31.9348 47.6367 32.4393Z" fill="#FBFBFC"/>
<path id="Vector_16" d="M93.4774 33.279C93.165 33.5592 92.7958 33.5592 92.4549 33.5312C92.1141 33.5032 91.8301 33.1669 91.8301 32.8586C91.8301 32.5503 92.0857 32.27 92.4549 32.2139C92.6253 32.1859 92.7958 32.1859 92.9946 32.1859C93.165 32.1859 93.3354 32.2139 93.5342 32.1299C93.5626 31.8496 93.3638 31.7095 93.165 31.6254C92.9378 31.5413 92.7106 31.5693 92.4833 31.6534C92.2845 31.7375 92.1993 32.0738 91.9153 31.9337C92.0289 31.5133 92.4549 31.261 92.9378 31.3171C93.6478 31.4012 93.9034 31.6534 93.9034 32.3821C93.9034 32.6624 93.9034 32.9426 93.9034 33.2229C93.9034 33.335 93.9318 33.4752 93.7898 33.5312C93.591 33.5873 93.5626 33.4191 93.4774 33.279ZM93.5342 32.4942C93.0514 32.4101 92.5685 32.4382 92.3413 32.5503C92.0857 32.6904 92.0573 32.9707 92.2845 33.1388C92.5685 33.3631 92.881 33.3631 93.165 33.1949C93.449 33.0267 93.591 32.8025 93.5342 32.4942Z" fill="#FBFBFC"/>
<path id="Vector_17" d="M72.5453 32.5792C71.9772 32.5792 71.4092 32.5792 70.7843 32.5792C70.8411 32.9436 71.0399 33.1678 71.3524 33.2799C71.6648 33.392 71.892 33.2799 72.0908 33.1118C72.2328 32.9997 72.318 32.9156 72.4885 32.9997C72.3464 33.4481 71.75 33.7003 71.2104 33.5602C70.6991 33.4201 70.3299 32.7754 70.4435 32.2709C70.6423 31.5422 71.1251 31.29 71.6648 31.3741C72.3464 31.4301 72.6589 31.9066 72.5453 32.5792ZM70.8127 32.2429C71.1819 32.355 71.5228 32.2709 71.8636 32.299C71.9772 32.299 72.1476 32.355 72.2044 32.1869C72.2328 32.0467 72.176 31.9066 72.0624 31.8225C71.4944 31.318 70.8979 31.6824 70.8127 32.2429Z" fill="#FBFBFC"/>
<path id="Vector_18" d="M44.1425 32.9427C43.9437 33.4753 43.3756 33.7275 42.836 33.5033C42.2395 33.2791 42.0123 32.8306 42.1259 32.186C42.2111 31.6255 42.7508 31.2331 43.262 31.2891C43.8869 31.3732 44.2561 31.8217 44.1993 32.5504C43.6312 32.5504 43.0348 32.5504 42.4668 32.5504C42.5236 32.9988 42.7792 33.223 43.1484 33.3071C43.5176 33.3912 43.7165 32.9427 44.1425 32.9427ZM42.41 32.2421C42.8644 32.3261 43.2904 32.2981 43.7449 32.2701C43.9153 32.2701 43.8869 32.13 43.8017 32.0178C43.6596 31.7095 43.4324 31.5414 43.0916 31.5974C42.7224 31.6255 42.5236 31.8497 42.41 32.2421Z" fill="#FBFBFC"/>
<path id="Vector_19" d="M94.9266 32.6631C94.9266 32.9434 94.9266 33.2237 94.9266 33.4759C94.7562 33.588 94.6426 33.532 94.6426 33.3638C94.6426 32.4109 94.6426 31.486 94.6426 30.5331C94.6426 30.3649 94.7278 30.3369 94.9266 30.3929C94.9266 31.0095 94.9266 31.6542 94.9266 32.2988C95.4946 32.0746 95.7219 31.3739 96.4603 31.3739C96.0627 31.7663 95.6367 32.0465 95.2674 32.4389C95.5799 32.8313 96.0343 33.0835 96.3751 33.532C95.7219 33.5039 95.4662 32.8593 94.9266 32.6631Z" fill="#FBFBFC"/>
<path id="Vector_20" d="M63.5414 32.5493C63.5698 32.9697 63.8538 33.25 64.2231 33.306C64.5923 33.3621 64.8195 32.9977 65.1888 32.9136C65.1888 33.4181 64.5355 33.6423 63.9675 33.5302C63.4278 33.4181 63.087 32.8296 63.1722 32.213C63.2574 31.6805 63.8254 31.232 64.3367 31.3161C64.9899 31.4002 65.3308 31.8766 65.274 32.5773C64.7059 32.5493 64.1379 32.5493 63.5414 32.5493ZM64.9615 32.269C64.8763 31.7645 64.5923 31.5403 64.1663 31.5964C63.797 31.6524 63.5698 31.9047 63.5698 32.269C64.0243 32.269 64.4787 32.269 64.9615 32.269Z" fill="#FBFBFC"/>
<path id="Vector_21" d="M55.5605 32.9713C55.731 32.8873 55.8162 32.9433 55.9582 33.0554C56.2422 33.3357 56.6398 33.3917 56.9523 33.2516C57.0943 33.1675 57.2079 33.1115 57.2079 32.9153C57.2079 32.7191 57.0375 32.663 56.8954 32.635C56.725 32.607 56.583 32.607 56.4126 32.579C55.8446 32.5509 55.5605 32.3547 55.5605 31.9904C55.5605 31.626 56.015 31.2897 56.4978 31.3177C56.9239 31.3458 57.2079 31.4859 57.4919 31.9063C57.3499 32.0464 57.2363 31.9624 57.1227 31.8503C56.8102 31.57 56.3842 31.5139 56.1002 31.6821C55.9866 31.7662 55.8446 31.8503 55.873 32.0184C55.9014 32.1866 56.015 32.2426 56.157 32.2707C56.3842 32.2987 56.6114 32.3547 56.867 32.3547C57.1795 32.3828 57.4351 32.4668 57.4919 32.8032C57.5487 33.1115 57.4067 33.3637 57.0659 33.5038C56.5262 33.7281 55.8162 33.5038 55.5605 32.9713Z" fill="#FBFBFC"/>
<path id="Vector_22" d="M44.7674 32.9434C44.9094 32.9153 45.023 32.9434 45.1082 33.0555C45.3922 33.3638 45.8183 33.3918 46.1307 33.2236C46.2727 33.1396 46.3295 33.0555 46.3295 32.9153C46.3295 32.7472 46.2159 32.6911 46.0739 32.6351C45.8183 32.551 45.5627 32.607 45.307 32.579C44.8242 32.523 44.5686 32.0745 44.7958 31.7102C44.9662 31.4299 45.2502 31.4019 45.5342 31.3458C46.0455 31.2617 46.4999 31.514 46.6419 31.9344C46.4999 32.0465 46.4147 31.9624 46.3011 31.8503C45.9603 31.542 45.6763 31.514 45.2502 31.7102C45.0798 31.7943 45.0798 31.8783 45.0798 32.0185C45.0798 32.1586 45.165 32.2147 45.307 32.2427C45.5627 32.2707 45.7899 32.3268 46.0455 32.3548C46.4431 32.3828 46.6703 32.579 46.6987 32.8873C46.7271 33.1956 46.4715 33.5039 46.1023 33.56C45.6763 33.616 45.2786 33.588 44.9378 33.3357C44.7958 33.2236 44.7106 33.1115 44.7674 32.9434Z" fill="#FBFBFC"/>
<path id="Vector_23" d="M99.7833 33.5036C99.7833 33.1112 99.7833 32.7468 99.7833 32.3544C99.7833 31.878 99.5561 31.5697 99.1869 31.5697C98.7892 31.5697 98.3916 31.7939 98.3916 32.3264C98.3916 32.6347 98.3916 32.943 98.3916 33.2233C98.3916 33.3354 98.4484 33.5036 98.2212 33.5036C98.0508 33.5036 98.0508 33.3634 98.0508 33.2513C98.0508 32.6347 98.0508 32.0181 98.0508 31.4295C98.0792 31.4015 98.1076 31.3735 98.136 31.3735C98.562 31.5977 98.9597 31.2053 99.4141 31.3455C99.7549 31.4576 99.9537 31.6818 100.039 32.0181C100.124 32.4665 100.067 32.887 100.067 33.3354C100.067 33.4755 99.9821 33.5596 99.7833 33.5036Z" fill="#FBFBFC"/>
<path id="Vector_24" d="M78.7644 31.9339C78.6224 32.018 78.5372 31.9619 78.4236 31.8498C78.0543 31.5135 77.7703 31.4855 77.3443 31.7097C77.2023 31.7657 77.1738 31.8498 77.1738 31.99C77.1738 32.1301 77.2591 32.2142 77.3727 32.2142C77.5999 32.2422 77.8271 32.2983 78.0827 32.3263C78.3951 32.3543 78.6792 32.4104 78.7644 32.7747C78.8496 33.111 78.7076 33.3072 78.2531 33.5034C77.8271 33.6996 77.1454 33.5034 76.8898 33.1671C76.833 33.111 76.833 33.055 76.8614 32.9709C77.0034 32.9148 77.117 32.9709 77.2307 33.083C77.5431 33.3633 77.9407 33.4193 78.2815 33.2512C78.3952 33.1951 78.5088 33.111 78.4804 32.9709C78.4519 32.8308 78.3951 32.6906 78.2247 32.6626C77.9691 32.6065 77.7419 32.6346 77.4863 32.6065C77.0034 32.5505 76.691 32.1021 76.9466 31.7097C77.117 31.4574 77.4011 31.3734 77.6851 31.3734C78.0827 31.3453 78.4519 31.4014 78.736 31.7377C78.7644 31.7657 78.8212 31.8218 78.7644 31.9339Z" fill="#FBFBFC"/>
<path id="Vector_25" d="M51.1301 33.5585C50.4485 33.5024 50.0225 33.1661 50.0225 32.4094C50.0225 31.7928 50.5621 31.2603 51.1585 31.2883C51.7834 31.3163 52.323 31.8488 52.2662 32.4374C52.2378 33.11 51.897 33.5024 51.1301 33.5585ZM51.9822 32.4654C51.9538 31.9329 51.6698 31.5686 51.187 31.5686C50.7325 31.5686 50.3633 31.9329 50.3349 32.4094C50.3349 32.8858 50.7325 33.3343 51.1585 33.3062C51.5278 33.2782 51.9822 32.9979 51.9822 32.4654Z" fill="#FBFBFC"/>
<path id="Vector_26" d="M81.5775 33.5598C80.9242 33.5878 80.4414 33.0833 80.4414 32.4387C80.4414 31.71 80.8958 31.3456 81.5491 31.2896C82.1171 31.2335 82.6852 31.766 82.6852 32.3546C82.6568 33.0833 82.316 33.5317 81.5775 33.5598ZM82.3728 32.4387C82.3728 31.9622 82.0035 31.5699 81.5491 31.5699C81.0947 31.5699 80.697 31.9903 80.697 32.4387C80.697 32.8871 81.1515 33.3356 81.5775 33.3075C82.0319 33.3075 82.3728 32.9152 82.3728 32.4387Z" fill="#FBFBFC"/>
<path id="Vector_27" d="M83.6787 33.5025C83.4231 33.5866 83.3379 33.5025 83.3379 33.2783C83.3379 32.6617 83.3379 32.017 83.3379 31.4005C83.5083 31.3164 83.6503 31.3164 83.7355 31.5126C84.332 31.1482 84.8432 31.2043 85.2408 31.7648C85.2976 31.8489 85.326 31.933 85.326 32.017C85.326 32.4375 85.326 32.8859 85.326 33.3063C85.326 33.3904 85.3544 33.5025 85.184 33.5025C85.042 33.5025 85.042 33.3904 85.042 33.3063C85.042 32.97 85.042 32.6617 85.042 32.3253C85.042 31.8209 84.8148 31.5126 84.4456 31.5406C83.9627 31.5686 83.6503 31.9049 83.6503 32.3534C83.6787 32.7458 83.6787 33.1101 83.6787 33.5025Z" fill="#FBFBFC"/>
<path id="Vector_28" d="M52.9756 33.5033C52.9756 32.7746 52.9756 32.074 52.9756 31.3172C53.3164 31.5134 53.6288 31.3453 53.9413 31.3172C54.4525 31.2332 54.9069 31.6255 54.9353 32.2141C54.9637 32.5785 54.9353 32.9708 54.9353 33.3352C54.9353 33.5314 54.8501 33.5874 54.6229 33.5314C54.6229 33.167 54.6229 32.7746 54.6229 32.3823C54.6229 31.8778 54.3957 31.5975 54.0265 31.5975C53.572 31.5695 53.288 31.8778 53.2596 32.3542C53.2312 32.6625 53.2596 32.9708 53.2596 33.2511C53.2596 33.3912 53.2596 33.5594 52.9756 33.5033Z" fill="#FBFBFC"/>
<path id="Vector_29" d="M75.1582 31.8782C74.9593 31.9903 74.8457 31.8782 74.7321 31.7941C74.3913 31.5418 74.1073 31.5138 73.7949 31.71C73.4824 31.9062 73.3404 32.2705 73.4256 32.6629C73.5108 32.9992 73.8233 33.3075 74.1641 33.3356C74.3913 33.3636 74.5901 33.2235 74.7605 33.0833C74.8741 32.9712 74.9877 32.9152 75.1298 32.9992C75.0161 33.3636 74.5049 33.6439 74.1073 33.6158C73.596 33.5598 73.1416 33.0833 73.0848 32.5508C73.0564 31.9903 73.3688 31.4858 73.8517 31.3737C74.4481 31.2055 74.9025 31.4017 75.1582 31.8782Z" fill="#FBFBFC"/>
<path id="Vector_30" d="M62.208 33.5036C62.208 32.4666 62.208 31.4296 62.208 30.3926C62.3216 30.3085 62.4068 30.3366 62.492 30.3926C62.492 30.4206 62.5204 30.4487 62.5204 30.4767C62.5204 31.3736 62.5204 32.2984 62.5204 33.1953C62.5204 33.3915 62.5488 33.5877 62.208 33.5036Z" fill="#FBFBFC"/>
<path id="Vector_31" d="M75.8965 31.3736C76.0101 31.3455 76.0953 31.3455 76.2089 31.4016C76.2089 32.0182 76.2089 32.6348 76.2089 33.2794C76.2089 33.4756 76.1237 33.5597 75.8965 33.5036C75.8965 32.803 75.8965 32.1023 75.8965 31.3736Z" fill="#FBFBFC"/>
<path id="Vector_32" d="M79.7597 31.3743C79.7597 32.103 79.7597 32.8037 79.7597 33.5044C79.5325 33.5604 79.4473 33.5324 79.4473 33.2802C79.4473 32.7196 79.4473 32.1591 79.4473 31.5985C79.4473 31.3743 79.5609 31.3463 79.7597 31.3743Z" fill="#FBFBFC"/>
<path id="Vector_33" d="M96.915 33.5035C96.915 32.8029 96.915 32.1022 96.915 31.4015C97.1423 31.3455 97.2275 31.3735 97.2275 31.6257C97.2275 32.1582 97.2275 32.7188 97.2275 33.2513C97.2275 33.4475 97.1991 33.5876 96.915 33.5035Z" fill="#FBFBFC"/>
<path id="Vector_34" d="M58.2295 31.3737C58.4283 31.3177 58.5135 31.3737 58.5135 31.5979C58.5135 32.1585 58.5135 32.719 58.5135 33.2796C58.5135 33.4477 58.4851 33.5879 58.2295 33.5038C58.2295 32.8031 58.2295 32.1024 58.2295 31.3737Z" fill="#FBFBFC"/>
<path id="Vector_35" d="M58.4865 30.7842C58.4013 30.8123 58.3161 30.8123 58.2025 30.7842C58.1457 30.6721 58.1741 30.56 58.1741 30.4479C58.5433 30.3638 58.5717 30.3919 58.4865 30.7842Z" fill="#FBFBFC"/>
<path id="Vector_36" d="M75.8399 30.4212C75.9819 30.3651 76.0671 30.3931 76.1807 30.4212C76.266 30.5333 76.2376 30.6454 76.2091 30.7855C76.0955 30.8416 75.9819 30.8135 75.8683 30.8135C75.7831 30.6734 75.8115 30.5613 75.8399 30.4212Z" fill="#FBFBFC"/>
<path id="Vector_37" d="M97.2266 30.4205C97.2266 30.5606 97.2266 30.6447 97.2266 30.7568C97.113 30.8409 97.0278 30.7848 96.9425 30.7848C96.8573 30.6727 96.8857 30.5606 96.9141 30.4765C96.9709 30.3364 97.0846 30.3924 97.2266 30.4205Z" fill="#FBFBFC"/>
<path id="Vector_38" d="M79.7592 30.3924C79.816 30.5326 79.816 30.6447 79.7876 30.7568C79.7024 30.8128 79.5888 30.8129 79.4752 30.7848C79.4184 30.6727 79.4184 30.5606 79.4752 30.4205C79.5604 30.3644 79.6456 30.3924 79.7592 30.3924Z" fill="#FBFBFC"/>
</g>
</g>
<defs>
<clipPath id="clip0_625_542">
<rect width="101.935" height="33.5484" fill="white" transform="translate(0.97168 0.989258)"/>
</clipPath>
</defs>
</svg>
