<svg width="235" height="61" viewBox="0 0 235 61" fill="none" xmlns="http://www.w3.org/2000/svg">
<rect y="0.604584" width="235" height="60" rx="10" fill="#0E2B63"/>
<path d="M59.118 30.5306C59.118 28.7626 59.5167 27.1766 60.314 25.7726C61.1113 24.3512 62.1947 23.2419 63.564 22.4446C64.9507 21.6472 66.4847 21.2486 68.166 21.2486C70.142 21.2486 71.8667 21.7252 73.34 22.6786C74.8133 23.6319 75.888 24.9839 76.564 26.7346H73.73C73.2273 25.6426 72.4993 24.8019 71.546 24.2126C70.61 23.6232 69.4833 23.3286 68.166 23.3286C66.9007 23.3286 65.7653 23.6232 64.76 24.2126C63.7547 24.8019 62.966 25.6426 62.394 26.7346C61.822 27.8092 61.536 29.0746 61.536 30.5306C61.536 31.9693 61.822 33.2346 62.394 34.3266C62.966 35.4013 63.7547 36.2333 64.76 36.8226C65.7653 37.4119 66.9007 37.7066 68.166 37.7066C69.4833 37.7066 70.61 37.4206 71.546 36.8486C72.4993 36.2593 73.2273 35.4186 73.73 34.3266H76.564C75.888 36.0599 74.8133 37.4033 73.34 38.3566C71.8667 39.2926 70.142 39.7606 68.166 39.7606C66.4847 39.7606 64.9507 39.3706 63.564 38.5906C62.1947 37.7933 61.1113 36.6926 60.314 35.2886C59.5167 33.8846 59.118 32.2986 59.118 30.5306ZM86.3 39.8386C84.9653 39.8386 83.752 39.5353 82.66 38.9286C81.5853 38.3219 80.736 37.4639 80.112 36.3546C79.5053 35.2279 79.202 33.9279 79.202 32.4546C79.202 30.9986 79.514 29.7159 80.138 28.6066C80.7793 27.4799 81.646 26.6219 82.738 26.0326C83.83 25.4259 85.052 25.1226 86.404 25.1226C87.756 25.1226 88.978 25.4259 90.07 26.0326C91.162 26.6219 92.02 27.4712 92.644 28.5806C93.2853 29.6899 93.606 30.9813 93.606 32.4546C93.606 33.9279 93.2767 35.2279 92.618 36.3546C91.9767 37.4639 91.1013 38.3219 89.992 38.9286C88.8827 39.5353 87.652 39.8386 86.3 39.8386ZM86.3 37.7586C87.1493 37.7586 87.9467 37.5593 88.692 37.1606C89.4373 36.7619 90.0353 36.1639 90.486 35.3666C90.954 34.5693 91.188 33.5986 91.188 32.4546C91.188 31.3106 90.9627 30.3399 90.512 29.5426C90.0613 28.7452 89.472 28.1559 88.744 27.7746C88.016 27.3759 87.2273 27.1766 86.378 27.1766C85.5113 27.1766 84.714 27.3759 83.986 27.7746C83.2753 28.1559 82.7033 28.7452 82.27 29.5426C81.8367 30.3399 81.62 31.3106 81.62 32.4546C81.62 33.6159 81.828 34.5953 82.244 35.3926C82.6773 36.1899 83.2493 36.7879 83.96 37.1866C84.6707 37.5679 85.4507 37.7586 86.3 37.7586ZM103.659 25.0966C105.392 25.0966 106.796 25.6252 107.871 26.6826C108.946 27.7226 109.483 29.2306 109.483 31.2066V39.6046H107.143V31.5446C107.143 30.1233 106.788 29.0399 106.077 28.2946C105.366 27.5319 104.396 27.1506 103.165 27.1506C101.917 27.1506 100.92 27.5406 100.175 28.3206C99.4468 29.1006 99.0828 30.2359 99.0828 31.7266V39.6046H96.7168V25.3566H99.0828V27.3846C99.5508 26.6566 100.184 26.0932 100.981 25.6946C101.796 25.2959 102.688 25.0966 103.659 25.0966ZM116.234 27.3066V35.7046C116.234 36.3979 116.381 36.8919 116.676 37.1866C116.97 37.4639 117.482 37.6026 118.21 37.6026H119.952V39.6046H117.82C116.502 39.6046 115.514 39.3013 114.856 38.6946C114.197 38.0879 113.868 37.0913 113.868 35.7046V27.3066H112.022V25.3566H113.868V21.7686H116.234V25.3566H119.952V27.3066H116.234ZM124.04 23.0426C123.59 23.0426 123.208 22.8866 122.896 22.5746C122.584 22.2626 122.428 21.8812 122.428 21.4306C122.428 20.9799 122.584 20.5986 122.896 20.2866C123.208 19.9746 123.59 19.8186 124.04 19.8186C124.474 19.8186 124.838 19.9746 125.132 20.2866C125.444 20.5986 125.6 20.9799 125.6 21.4306C125.6 21.8812 125.444 22.2626 125.132 22.5746C124.838 22.8866 124.474 23.0426 124.04 23.0426ZM125.184 25.3566V39.6046H122.818V25.3566H125.184ZM136.159 25.0966C137.892 25.0966 139.296 25.6252 140.371 26.6826C141.446 27.7226 141.983 29.2306 141.983 31.2066V39.6046H139.643V31.5446C139.643 30.1233 139.288 29.0399 138.577 28.2946C137.866 27.5319 136.896 27.1506 135.665 27.1506C134.417 27.1506 133.42 27.5406 132.675 28.3206C131.947 29.1006 131.583 30.2359 131.583 31.7266V39.6046H129.217V25.3566H131.583V27.3846C132.051 26.6566 132.684 26.0932 133.481 25.6946C134.296 25.2959 135.188 25.0966 136.159 25.0966ZM158.484 25.3566V39.6046H156.118V37.4986C155.667 38.2266 155.034 38.7986 154.22 39.2146C153.422 39.6133 152.538 39.8126 151.568 39.8126C150.458 39.8126 149.462 39.5873 148.578 39.1366C147.694 38.6686 146.992 37.9753 146.472 37.0566C145.969 36.1379 145.718 35.0199 145.718 33.7026V25.3566H148.058V33.3906C148.058 34.7946 148.413 35.8779 149.124 36.6406C149.834 37.3859 150.805 37.7586 152.036 37.7586C153.301 37.7586 154.298 37.3686 155.026 36.5886C155.754 35.8086 156.118 34.6733 156.118 33.1826V25.3566H158.484ZM175.479 31.9346C175.479 32.3852 175.453 32.8619 175.401 33.3646H164.013C164.099 34.7686 164.576 35.8693 165.443 36.6666C166.327 37.4466 167.393 37.8366 168.641 37.8366C169.663 37.8366 170.513 37.6026 171.189 37.1346C171.882 36.6493 172.367 36.0079 172.645 35.2106H175.193C174.811 36.5799 174.049 37.6979 172.905 38.5646C171.761 39.4139 170.339 39.8386 168.641 39.8386C167.289 39.8386 166.075 39.5353 165.001 38.9286C163.943 38.3219 163.111 37.4639 162.505 36.3546C161.898 35.2279 161.595 33.9279 161.595 32.4546C161.595 30.9813 161.889 29.6899 162.479 28.5806C163.068 27.4712 163.891 26.6219 164.949 26.0326C166.023 25.4259 167.254 25.1226 168.641 25.1226C169.993 25.1226 171.189 25.4172 172.229 26.0066C173.269 26.5959 174.066 27.4106 174.621 28.4506C175.193 29.4733 175.479 30.6346 175.479 31.9346ZM173.035 31.4406C173.035 30.5392 172.835 29.7679 172.437 29.1266C172.038 28.4679 171.492 27.9739 170.799 27.6446C170.123 27.2979 169.369 27.1246 168.537 27.1246C167.341 27.1246 166.318 27.5059 165.469 28.2686C164.637 29.0312 164.16 30.0886 164.039 31.4406H173.035Z" fill="white"/>
</svg>
