<svg width="235" height="61" viewBox="0 0 235 61" fill="none" xmlns="http://www.w3.org/2000/svg">
<rect y="0.604584" width="235" height="60" rx="10" fill="#0E2B63"/>
<path d="M78.748 39.7866C77.552 39.7866 76.4773 39.5786 75.524 39.1626C74.588 38.7293 73.8513 38.1399 73.314 37.3946C72.7767 36.6319 72.4993 35.7566 72.482 34.7686H75.004C75.0907 35.6179 75.4373 36.3373 76.044 36.9266C76.668 37.4986 77.5693 37.7846 78.748 37.7846C79.8747 37.7846 80.7587 37.5073 81.4 36.9526C82.0587 36.3806 82.388 35.6526 82.388 34.7686C82.388 34.0753 82.1973 33.5119 81.816 33.0786C81.4347 32.6452 80.958 32.3159 80.386 32.0906C79.814 31.8653 79.0427 31.6226 78.072 31.3626C76.876 31.0506 75.914 30.7386 75.186 30.4266C74.4753 30.1146 73.86 29.6292 73.34 28.9706C72.8373 28.2946 72.586 27.3933 72.586 26.2666C72.586 25.2786 72.8373 24.4032 73.34 23.6406C73.8427 22.8779 74.5447 22.2886 75.446 21.8726C76.3647 21.4566 77.4133 21.2486 78.592 21.2486C80.2907 21.2486 81.6773 21.6732 82.752 22.5226C83.844 23.3719 84.4593 24.4986 84.598 25.9026H81.998C81.9113 25.2092 81.5473 24.6026 80.906 24.0826C80.2647 23.5453 79.4153 23.2766 78.358 23.2766C77.37 23.2766 76.564 23.5366 75.94 24.0566C75.316 24.5592 75.004 25.2699 75.004 26.1886C75.004 26.8472 75.186 27.3846 75.55 27.8006C75.9313 28.2166 76.3907 28.5373 76.928 28.7626C77.4827 28.9706 78.254 29.2132 79.242 29.4906C80.438 29.8199 81.4 30.1493 82.128 30.4786C82.856 30.7906 83.48 31.2846 84 31.9606C84.52 32.6193 84.78 33.5206 84.78 34.6646C84.78 35.5486 84.546 36.3806 84.078 37.1606C83.61 37.9406 82.9167 38.5733 81.998 39.0586C81.0793 39.5439 79.996 39.7866 78.748 39.7866ZM100.898 25.3566V39.6046H98.5318V37.4986C98.0811 38.2266 97.4484 38.7986 96.6338 39.2146C95.8364 39.6133 94.9524 39.8126 93.9818 39.8126C92.8724 39.8126 91.8758 39.5873 90.9918 39.1366C90.1078 38.6686 89.4058 37.9753 88.8858 37.0566C88.3831 36.1379 88.1318 35.0199 88.1318 33.7026V25.3566H90.4718V33.3906C90.4718 34.7946 90.8271 35.8779 91.5378 36.6406C92.2484 37.3859 93.2191 37.7586 94.4498 37.7586C95.7151 37.7586 96.7118 37.3686 97.4398 36.5886C98.1678 35.8086 98.5318 34.6733 98.5318 33.1826V25.3566H100.898ZM107.259 28.0086C107.744 27.1592 108.455 26.4659 109.391 25.9286C110.327 25.3912 111.393 25.1226 112.589 25.1226C113.871 25.1226 115.024 25.4259 116.047 26.0326C117.069 26.6392 117.875 27.4973 118.465 28.6066C119.054 29.6986 119.349 30.9726 119.349 32.4286C119.349 33.8673 119.054 35.1499 118.465 36.2766C117.875 37.4033 117.061 38.2786 116.021 38.9026C114.998 39.5266 113.854 39.8386 112.589 39.8386C111.358 39.8386 110.275 39.5699 109.339 39.0326C108.42 38.4953 107.727 37.8106 107.259 36.9786V39.6046H104.893V20.3646H107.259V28.0086ZM116.931 32.4286C116.931 31.3539 116.714 30.4179 116.281 29.6206C115.847 28.8233 115.258 28.2166 114.513 27.8006C113.785 27.3846 112.979 27.1766 112.095 27.1766C111.228 27.1766 110.422 27.3933 109.677 27.8266C108.949 28.2426 108.359 28.8579 107.909 29.6726C107.475 30.4699 107.259 31.3972 107.259 32.4546C107.259 33.5293 107.475 34.4739 107.909 35.2886C108.359 36.0859 108.949 36.7013 109.677 37.1346C110.422 37.5506 111.228 37.7586 112.095 37.7586C112.979 37.7586 113.785 37.5506 114.513 37.1346C115.258 36.7013 115.847 36.0859 116.281 35.2886C116.714 34.4739 116.931 33.5206 116.931 32.4286ZM139.597 25.0966C140.706 25.0966 141.694 25.3306 142.561 25.7986C143.428 26.2493 144.112 26.9339 144.615 27.8526C145.118 28.7712 145.369 29.8892 145.369 31.2066V39.6046H143.029V31.5446C143.029 30.1233 142.674 29.0399 141.963 28.2946C141.27 27.5319 140.325 27.1506 139.129 27.1506C137.898 27.1506 136.919 27.5492 136.191 28.3466C135.463 29.1266 135.099 30.2619 135.099 31.7526V39.6046H132.759V31.5446C132.759 30.1233 132.404 29.0399 131.693 28.2946C131 27.5319 130.055 27.1506 128.859 27.1506C127.628 27.1506 126.649 27.5492 125.921 28.3466C125.193 29.1266 124.829 30.2619 124.829 31.7526V39.6046H122.463V25.3566H124.829V27.4106C125.297 26.6652 125.921 26.0932 126.701 25.6946C127.498 25.2959 128.374 25.0966 129.327 25.0966C130.523 25.0966 131.58 25.3652 132.499 25.9026C133.418 26.4399 134.102 27.2286 134.553 28.2686C134.952 27.2632 135.61 26.4832 136.529 25.9286C137.448 25.3739 138.47 25.0966 139.597 25.0966ZM150.472 23.0426C150.021 23.0426 149.64 22.8866 149.328 22.5746C149.016 22.2626 148.86 21.8812 148.86 21.4306C148.86 20.9799 149.016 20.5986 149.328 20.2866C149.64 19.9746 150.021 19.8186 150.472 19.8186C150.905 19.8186 151.269 19.9746 151.564 20.2866C151.876 20.5986 152.032 20.9799 152.032 21.4306C152.032 21.8812 151.876 22.2626 151.564 22.5746C151.269 22.8866 150.905 23.0426 150.472 23.0426ZM151.616 25.3566V39.6046H149.25V25.3566H151.616ZM158.534 27.3066V35.7046C158.534 36.3979 158.682 36.8919 158.976 37.1866C159.271 37.4639 159.782 37.6026 160.51 37.6026H162.252V39.6046H160.12C158.803 39.6046 157.815 39.3013 157.156 38.6946C156.498 38.0879 156.168 37.0913 156.168 35.7046V27.3066H154.322V25.3566H156.168V21.7686H158.534V25.3566H162.252V27.3066H158.534Z" fill="white"/>
</svg>
