<svg width="321" height="61" viewBox="0 0 321 61" fill="none" xmlns="http://www.w3.org/2000/svg">
<rect x="0.532227" y="0.75" width="320" height="60" rx="10" fill="#0E2B63"/>
<path d="M102.15 30.676C102.15 28.908 102.549 27.322 103.346 25.918C104.144 24.4967 105.227 23.3873 106.596 22.59C107.983 21.7927 109.517 21.394 111.198 21.394C113.174 21.394 114.899 21.8707 116.372 22.824C117.846 23.7773 118.92 25.1293 119.596 26.88H116.762C116.26 25.788 115.532 24.9473 114.578 24.358C113.642 23.7687 112.516 23.474 111.198 23.474C109.933 23.474 108.798 23.7687 107.792 24.358C106.787 24.9473 105.998 25.788 105.426 26.88C104.854 27.9547 104.568 29.22 104.568 30.676C104.568 32.1147 104.854 33.38 105.426 34.472C105.998 35.5467 106.787 36.3787 107.792 36.968C108.798 37.5573 109.933 37.852 111.198 37.852C112.516 37.852 113.642 37.566 114.578 36.994C115.532 36.4047 116.26 35.564 116.762 34.472H119.596C118.92 36.2053 117.846 37.5487 116.372 38.502C114.899 39.438 113.174 39.906 111.198 39.906C109.517 39.906 107.983 39.516 106.596 38.736C105.227 37.9387 104.144 36.838 103.346 35.434C102.549 34.03 102.15 32.444 102.15 30.676ZM129.332 39.984C127.998 39.984 126.784 39.6807 125.692 39.074C124.618 38.4673 123.768 37.6093 123.144 36.5C122.538 35.3733 122.234 34.0733 122.234 32.6C122.234 31.144 122.546 29.8613 123.17 28.752C123.812 27.6253 124.678 26.7673 125.77 26.178C126.862 25.5713 128.084 25.268 129.436 25.268C130.788 25.268 132.01 25.5713 133.102 26.178C134.194 26.7673 135.052 27.6167 135.676 28.726C136.318 29.8353 136.638 31.1267 136.638 32.6C136.638 34.0733 136.309 35.3733 135.65 36.5C135.009 37.6093 134.134 38.4673 133.024 39.074C131.915 39.6807 130.684 39.984 129.332 39.984ZM129.332 37.904C130.182 37.904 130.979 37.7047 131.724 37.306C132.47 36.9073 133.068 36.3093 133.518 35.512C133.986 34.7147 134.22 33.744 134.22 32.6C134.22 31.456 133.995 30.4853 133.544 29.688C133.094 28.8907 132.504 28.3013 131.776 27.92C131.048 27.5213 130.26 27.322 129.41 27.322C128.544 27.322 127.746 27.5213 127.018 27.92C126.308 28.3013 125.736 28.8907 125.302 29.688C124.869 30.4853 124.652 31.456 124.652 32.6C124.652 33.7613 124.86 34.7407 125.276 35.538C125.71 36.3353 126.282 36.9333 126.992 37.332C127.703 37.7133 128.483 37.904 129.332 37.904ZM146.691 25.242C148.424 25.242 149.828 25.7707 150.903 26.828C151.978 27.868 152.515 29.376 152.515 31.352V39.75H150.175V31.69C150.175 30.2687 149.82 29.1853 149.109 28.44C148.398 27.6773 147.428 27.296 146.197 27.296C144.949 27.296 143.952 27.686 143.207 28.466C142.479 29.246 142.115 30.3813 142.115 31.872V39.75H139.749V25.502H142.115V27.53C142.583 26.802 143.216 26.2387 144.013 25.84C144.828 25.4413 145.72 25.242 146.691 25.242ZM159.266 27.452V35.85C159.266 36.5433 159.413 37.0373 159.708 37.332C160.003 37.6093 160.514 37.748 161.242 37.748H162.984V39.75H160.852C159.535 39.75 158.547 39.4467 157.888 38.84C157.229 38.2333 156.9 37.2367 156.9 35.85V27.452H155.054V25.502H156.9V21.914H159.266V25.502H162.984V27.452H159.266ZM167.073 23.188C166.622 23.188 166.241 23.032 165.929 22.72C165.617 22.408 165.461 22.0267 165.461 21.576C165.461 21.1253 165.617 20.744 165.929 20.432C166.241 20.12 166.622 19.964 167.073 19.964C167.506 19.964 167.87 20.12 168.165 20.432C168.477 20.744 168.633 21.1253 168.633 21.576C168.633 22.0267 168.477 22.408 168.165 22.72C167.87 23.032 167.506 23.188 167.073 23.188ZM168.217 25.502V39.75H165.851V25.502H168.217ZM179.191 25.242C180.924 25.242 182.328 25.7707 183.403 26.828C184.478 27.868 185.015 29.376 185.015 31.352V39.75H182.675V31.69C182.675 30.2687 182.32 29.1853 181.609 28.44C180.898 27.6773 179.928 27.296 178.697 27.296C177.449 27.296 176.452 27.686 175.707 28.466C174.979 29.246 174.615 30.3813 174.615 31.872V39.75H172.249V25.502H174.615V27.53C175.083 26.802 175.716 26.2387 176.513 25.84C177.328 25.4413 178.22 25.242 179.191 25.242ZM201.516 25.502V39.75H199.15V37.644C198.699 38.372 198.067 38.944 197.252 39.36C196.455 39.7587 195.571 39.958 194.6 39.958C193.491 39.958 192.494 39.7327 191.61 39.282C190.726 38.814 190.024 38.1207 189.504 37.202C189.001 36.2833 188.75 35.1653 188.75 33.848V25.502H191.09V33.536C191.09 34.94 191.445 36.0233 192.156 36.786C192.867 37.5313 193.837 37.904 195.068 37.904C196.333 37.904 197.33 37.514 198.058 36.734C198.786 35.954 199.15 34.8187 199.15 33.328V25.502H201.516ZM218.511 32.08C218.511 32.5307 218.485 33.0073 218.433 33.51H207.045C207.131 34.914 207.608 36.0147 208.475 36.812C209.359 37.592 210.425 37.982 211.673 37.982C212.695 37.982 213.545 37.748 214.221 37.28C214.914 36.7947 215.399 36.1533 215.677 35.356H218.225C217.843 36.7253 217.081 37.8433 215.937 38.71C214.793 39.5593 213.371 39.984 211.673 39.984C210.321 39.984 209.107 39.6807 208.033 39.074C206.975 38.4673 206.143 37.6093 205.537 36.5C204.93 35.3733 204.627 34.0733 204.627 32.6C204.627 31.1267 204.921 29.8353 205.511 28.726C206.1 27.6167 206.923 26.7673 207.981 26.178C209.055 25.5713 210.286 25.268 211.673 25.268C213.025 25.268 214.221 25.5627 215.261 26.152C216.301 26.7413 217.098 27.556 217.653 28.596C218.225 29.6187 218.511 30.78 218.511 32.08ZM216.067 31.586C216.067 30.6847 215.867 29.9133 215.469 29.272C215.07 28.6133 214.524 28.1193 213.831 27.79C213.155 27.4433 212.401 27.27 211.569 27.27C210.373 27.27 209.35 27.6513 208.501 28.414C207.669 29.1767 207.192 30.234 207.071 31.586H216.067Z" fill="white"/>
</svg>
