<svg width="236" height="61" viewBox="0 0 236 61" fill="none" xmlns="http://www.w3.org/2000/svg">
<rect x="0.833984" y="0.335938" width="235" height="60" rx="10" fill="#0E2B63"/>
<path d="M59.952 30.2619C59.952 28.4939 60.3507 26.9079 61.148 25.5039C61.9453 24.0826 63.0287 22.9733 64.398 22.1759C65.7847 21.3786 67.3187 20.9799 69 20.9799C70.976 20.9799 72.7007 21.4566 74.174 22.4099C75.6473 23.3633 76.722 24.7153 77.398 26.4659H74.564C74.0613 25.3739 73.3333 24.5333 72.38 23.9439C71.444 23.3546 70.3173 23.0599 69 23.0599C67.7347 23.0599 66.5993 23.3546 65.594 23.9439C64.5887 24.5333 63.8 25.3739 63.228 26.4659C62.656 27.5406 62.37 28.8059 62.37 30.2619C62.37 31.7006 62.656 32.9659 63.228 34.0579C63.8 35.1326 64.5887 35.9646 65.594 36.5539C66.5993 37.1433 67.7347 37.4379 69 37.4379C70.3173 37.4379 71.444 37.1519 72.38 36.5799C73.3333 35.9906 74.0613 35.1499 74.564 34.0579H77.398C76.722 35.7913 75.6473 37.1346 74.174 38.0879C72.7007 39.0239 70.976 39.4919 69 39.4919C67.3187 39.4919 65.7847 39.1019 64.398 38.3219C63.0287 37.5246 61.9453 36.4239 61.148 35.0199C60.3507 33.6159 59.952 32.0299 59.952 30.2619ZM87.134 39.5699C85.7993 39.5699 84.586 39.2666 83.494 38.6599C82.4193 38.0533 81.57 37.1953 80.946 36.0859C80.3393 34.9593 80.036 33.6593 80.036 32.1859C80.036 30.7299 80.348 29.4473 80.972 28.3379C81.6133 27.2113 82.48 26.3533 83.572 25.7639C84.664 25.1573 85.886 24.8539 87.238 24.8539C88.59 24.8539 89.812 25.1573 90.904 25.7639C91.996 26.3533 92.854 27.2026 93.478 28.3119C94.1193 29.4213 94.44 30.7126 94.44 32.1859C94.44 33.6593 94.1106 34.9593 93.452 36.0859C92.8106 37.1953 91.9353 38.0533 90.826 38.6599C89.7166 39.2666 88.486 39.5699 87.134 39.5699ZM87.134 37.4899C87.9833 37.4899 88.7806 37.2906 89.526 36.8919C90.2713 36.4933 90.8693 35.8953 91.32 35.0979C91.788 34.3006 92.022 33.3299 92.022 32.1859C92.022 31.0419 91.7966 30.0713 91.346 29.2739C90.8953 28.4766 90.306 27.8873 89.578 27.5059C88.85 27.1073 88.0613 26.9079 87.212 26.9079C86.3453 26.9079 85.548 27.1073 84.82 27.5059C84.1093 27.8873 83.5373 28.4766 83.104 29.2739C82.6706 30.0713 82.454 31.0419 82.454 32.1859C82.454 33.3473 82.662 34.3266 83.078 35.1239C83.5113 35.9213 84.0833 36.5193 84.794 36.9179C85.5046 37.2993 86.2846 37.4899 87.134 37.4899ZM104.493 24.8279C106.226 24.8279 107.63 25.3566 108.705 26.4139C109.779 27.4539 110.317 28.9619 110.317 30.9379V39.3359H107.977V31.2759C107.977 29.8546 107.621 28.7713 106.911 28.0259C106.2 27.2633 105.229 26.8819 103.999 26.8819C102.751 26.8819 101.754 27.2719 101.009 28.0519C100.281 28.8319 99.9168 29.9673 99.9168 31.4579V39.3359H97.5508V25.0879H99.9168V27.1159C100.385 26.3879 101.017 25.8246 101.815 25.4259C102.629 25.0273 103.522 24.8279 104.493 24.8279ZM117.068 27.0379V35.4359C117.068 36.1293 117.215 36.6233 117.51 36.9179C117.804 37.1953 118.316 37.3339 119.044 37.3339H120.786V39.3359H118.654C117.336 39.3359 116.348 39.0326 115.69 38.4259C115.031 37.8193 114.702 36.8226 114.702 35.4359V27.0379H112.856V25.0879H114.702V21.4999H117.068V25.0879H120.786V27.0379H117.068ZM124.874 22.7739C124.424 22.7739 124.042 22.6179 123.73 22.3059C123.418 21.9939 123.262 21.6126 123.262 21.1619C123.262 20.7113 123.418 20.3299 123.73 20.0179C124.042 19.7059 124.424 19.5499 124.874 19.5499C125.308 19.5499 125.672 19.7059 125.966 20.0179C126.278 20.3299 126.434 20.7113 126.434 21.1619C126.434 21.6126 126.278 21.9939 125.966 22.3059C125.672 22.6179 125.308 22.7739 124.874 22.7739ZM126.018 25.0879V39.3359H123.652V25.0879H126.018ZM136.993 24.8279C138.726 24.8279 140.13 25.3566 141.205 26.4139C142.279 27.4539 142.817 28.9619 142.817 30.9379V39.3359H140.477V31.2759C140.477 29.8546 140.121 28.7713 139.411 28.0259C138.7 27.2633 137.729 26.8819 136.499 26.8819C135.251 26.8819 134.254 27.2719 133.509 28.0519C132.781 28.8319 132.417 29.9673 132.417 31.4579V39.3359H130.051V25.0879H132.417V27.1159C132.885 26.3879 133.517 25.8246 134.315 25.4259C135.129 25.0273 136.022 24.8279 136.993 24.8279ZM159.318 25.0879V39.3359H156.952V37.2299C156.501 37.9579 155.868 38.5299 155.054 38.9459C154.256 39.3446 153.372 39.5439 152.402 39.5439C151.292 39.5439 150.296 39.3186 149.412 38.8679C148.528 38.3999 147.826 37.7066 147.306 36.7879C146.803 35.8693 146.552 34.7513 146.552 33.4339V25.0879H148.892V33.1219C148.892 34.5259 149.247 35.6093 149.958 36.3719C150.668 37.1173 151.639 37.4899 152.87 37.4899C154.135 37.4899 155.132 37.0999 155.86 36.3199C156.588 35.5399 156.952 34.4046 156.952 32.9139V25.0879H159.318ZM176.313 31.6659C176.313 32.1166 176.287 32.5933 176.235 33.0959H164.847C164.933 34.4999 165.41 35.6006 166.277 36.3979C167.161 37.1779 168.227 37.5679 169.475 37.5679C170.497 37.5679 171.347 37.3339 172.023 36.8659C172.716 36.3806 173.201 35.7393 173.479 34.9419H176.027C175.645 36.3113 174.883 37.4293 173.739 38.2959C172.595 39.1453 171.173 39.5699 169.475 39.5699C168.123 39.5699 166.909 39.2666 165.835 38.6599C164.777 38.0533 163.945 37.1953 163.339 36.0859C162.732 34.9593 162.429 33.6593 162.429 32.1859C162.429 30.7126 162.723 29.4213 163.313 28.3119C163.902 27.2026 164.725 26.3533 165.783 25.7639C166.857 25.1573 168.088 24.8539 169.475 24.8539C170.827 24.8539 172.023 25.1486 173.063 25.7379C174.103 26.3273 174.9 27.1419 175.455 28.1819C176.027 29.2046 176.313 30.3659 176.313 31.6659ZM173.869 31.1719C173.869 30.2706 173.669 29.4993 173.271 28.8579C172.872 28.1993 172.326 27.7053 171.633 27.3759C170.957 27.0293 170.203 26.8559 169.371 26.8559C168.175 26.8559 167.152 27.2373 166.303 27.9999C165.471 28.7626 164.994 29.8199 164.873 31.1719H173.869Z" fill="white"/>
</svg>
