<svg width="236" height="61" viewBox="0 0 236 61" fill="none" xmlns="http://www.w3.org/2000/svg">
<rect x="0.849609" y="0.306641" width="235" height="60" rx="10" fill="#0E2B63"/>
<path d="M57.3996 23.0426V38.1226H66.7596V40.3066H55.0596V23.0426H57.3996ZM75.1676 38.5646C76.6582 38.5646 77.7156 38.0273 78.3396 36.9526H80.7576C80.3416 38.0966 79.6309 38.998 78.6256 39.6566C77.6376 40.3153 76.4849 40.6446 75.1676 40.6446C73.3649 40.6446 71.8656 40.0466 70.6696 38.8506C69.4909 37.6546 68.9016 36.138 68.9016 34.3006C68.9016 32.498 69.4736 30.9986 70.6176 29.8026C71.7789 28.6066 73.2522 28.0086 75.0376 28.0086C76.7189 28.0086 78.1142 28.6066 79.2236 29.8026C80.3502 30.9813 80.9136 32.4373 80.9136 34.1706C80.9136 34.6733 80.8962 35.0026 80.8616 35.1586H71.2156C71.3542 36.1466 71.7876 36.9613 72.5156 37.6026C73.2609 38.244 74.1449 38.5646 75.1676 38.5646ZM75.0376 30.0886C74.0149 30.0886 73.1569 30.3746 72.4636 30.9466C71.7876 31.5013 71.3802 32.2553 71.2416 33.2086H78.5736C78.4349 32.2553 78.0536 31.5013 77.4296 30.9466C76.8056 30.3746 76.0082 30.0886 75.0376 30.0886ZM85.1912 25.0706H87.4272V28.3466H91.2492V30.3226H87.4272V35.9906C87.4272 36.788 87.6005 37.3773 87.9472 37.7586C88.2938 38.14 88.8485 38.3306 89.6112 38.3306H91.2492V40.3066H89.4032C88.0685 40.3066 87.0285 39.986 86.2832 39.3446C85.5552 38.686 85.1912 37.724 85.1912 36.4586V30.3226H82.9812V28.3466H85.1912V25.0706ZM95.1642 28.9706H93.5262L95.3462 25.9286H93.9682V23.0426H96.8542V26.1886L95.1642 28.9706ZM110.299 31.7266H107.855C107.335 30.6346 106.131 30.0886 104.241 30.0886C103.357 30.0886 102.655 30.236 102.135 30.5306C101.615 30.8253 101.355 31.224 101.355 31.7266C101.355 32.212 101.555 32.5673 101.953 32.7926C102.369 33.018 102.993 33.1653 103.825 33.2346L106.243 33.4166C108.861 33.642 110.169 34.8033 110.169 36.9006C110.169 37.958 109.684 38.8506 108.713 39.5786C107.76 40.2893 106.477 40.6446 104.865 40.6446C103.201 40.6446 101.823 40.2806 100.731 39.5526C99.6568 38.8246 98.9895 37.9146 98.7295 36.8226H101.173C101.676 37.984 103.002 38.5646 105.151 38.5646C105.949 38.5646 106.607 38.426 107.127 38.1486C107.665 37.854 107.933 37.4553 107.933 36.9526C107.933 36.4673 107.725 36.112 107.309 35.8866C106.911 35.644 106.287 35.488 105.437 35.4186L102.941 35.2106C100.393 34.968 99.1195 33.8326 99.1195 31.8046C99.1195 30.73 99.5875 29.8286 100.523 29.1006C101.477 28.3726 102.725 28.0086 104.267 28.0086C105.949 28.0086 107.301 28.364 108.323 29.0746C109.346 29.768 110.005 30.652 110.299 31.7266ZM127.225 24.8886C125.371 24.8886 123.819 25.5386 122.571 26.8386C121.323 28.1213 120.699 29.7333 120.699 31.6746C120.699 33.6333 121.315 35.254 122.545 36.5366C123.793 37.8193 125.362 38.4606 127.251 38.4606C128.777 38.4606 130.051 38.01 131.073 37.1086C132.113 36.2073 132.789 35.0113 133.101 33.5206H126.887V31.3366H135.597C135.597 34.0926 134.8 36.3373 133.205 38.0706C131.611 39.7866 129.652 40.6446 127.329 40.6446C124.799 40.6446 122.667 39.7866 120.933 38.0706C119.217 36.3546 118.359 34.2226 118.359 31.6746C118.359 29.1266 119.209 26.9946 120.907 25.2786C122.606 23.5626 124.712 22.7046 127.225 22.7046C128.907 22.7046 130.415 23.1293 131.749 23.9786C133.101 24.8106 134.141 25.9286 134.869 27.3326H132.191C131.654 26.5873 130.952 25.998 130.085 25.5646C129.236 25.114 128.283 24.8886 127.225 24.8886ZM144.332 28.0086C146.117 28.0086 147.608 28.6153 148.804 29.8286C150 31.0246 150.598 32.524 150.598 34.3266C150.598 36.1293 150 37.6373 148.804 38.8506C147.608 40.0466 146.117 40.6446 144.332 40.6446C142.529 40.6446 141.03 40.0466 139.834 38.8506C138.655 37.6373 138.066 36.1293 138.066 34.3266C138.066 32.524 138.655 31.0246 139.834 29.8286C141.03 28.6153 142.529 28.0086 144.332 28.0086ZM141.446 37.3426C142.208 38.1573 143.17 38.5646 144.332 38.5646C145.493 38.5646 146.455 38.1573 147.218 37.3426C147.98 36.528 148.362 35.5226 148.362 34.3266C148.362 33.1133 147.98 32.108 147.218 31.3106C146.472 30.496 145.51 30.0886 144.332 30.0886C143.153 30.0886 142.182 30.496 141.42 31.3106C140.674 32.108 140.302 33.1133 140.302 34.3266C140.302 35.5226 140.683 36.528 141.446 37.3426Z" fill="white"/>
<path d="M175.45 21.9062L173.98 23.3763L179.86 29.2563H162.85V31.3563H179.86L173.98 37.2363L175.45 38.7063L183.85 30.3063L175.45 21.9062Z" fill="white"/>
</svg>
