<svg width="101" height="45" viewBox="0 0 101 45" fill="none" xmlns="http://www.w3.org/2000/svg">
<path d="M0.907227 28.2661C2.31072 28.2661 3.66023 28.2661 5.06372 28.2661C5.06372 28.6966 5.06372 29.1271 5.06372 29.5576C5.17168 29.5576 5.22566 29.5576 5.33362 29.5576C9.59808 29.5576 13.8625 29.5576 18.127 29.5576C19.6924 29.5576 20.4481 27.997 19.8544 26.8131C19.5305 26.2212 19.0447 25.8983 18.3429 25.8445C18.2889 25.8445 18.2349 25.8445 18.127 25.8445C12.513 25.8445 6.89905 25.8445 1.28509 25.8445C1.17713 25.8445 1.06917 25.8445 0.961207 25.8445C0.961207 24.4992 0.961207 23.1539 0.961207 21.7548C1.06917 21.7548 1.23111 21.7548 1.33907 21.7548C5.76547 21.7548 10.1919 21.7548 14.6722 21.7548C15.4819 21.7548 16.1297 21.4857 16.4536 20.7861C17.1014 19.4946 16.2377 18.0955 14.7802 18.0955C11.6493 18.0955 8.51847 18.0955 5.3876 18.0955C5.27964 18.0955 5.17168 18.0955 5.06372 18.0955C5.06372 18.526 5.06372 18.9565 5.06372 19.387C3.66023 19.387 2.31072 19.387 0.907227 19.387C0.907227 17.6112 0.907227 15.7816 0.907227 13.952C1.01519 13.952 1.12315 13.952 1.17713 13.952C5.76547 13.952 10.2998 13.952 14.8882 13.952C17.6951 13.952 20.2322 16.1583 20.6101 18.9565C20.772 20.0328 20.6641 21.0552 20.2862 22.1314C20.5021 22.2391 20.718 22.3467 20.934 22.4543C22.8233 23.5306 23.9029 25.1449 24.0648 27.2974C24.2808 30.4724 22.1755 33.0554 19.0447 33.5935C18.7747 33.6473 18.5048 33.6473 18.2889 33.6473C12.621 33.6473 6.89905 33.6473 1.23111 33.6473C0.961207 33.6473 0.907227 33.5935 0.907227 33.3244C0.907227 31.7639 0.907227 30.1495 0.907227 28.5889C0.907227 28.4813 0.907227 28.3737 0.907227 28.2661Z" fill="white"/>
<path d="M41.3387 12.7665C46.6288 19.7621 51.9189 26.6501 57.209 33.6457C57.101 33.6457 56.993 33.6457 56.9391 33.6457C55.3736 33.6457 53.8082 33.6457 52.2967 33.6457C52.1348 33.6457 52.0268 33.5919 51.9189 33.4304C48.5181 28.9102 45.0634 24.4438 41.6626 19.9235C41.6086 19.8159 41.5007 19.7083 41.3927 19.5468C40.0972 21.2688 38.7477 22.9908 37.4521 24.7128C37.6141 24.7128 37.6681 24.7128 37.776 24.7128C39.2335 24.7128 40.691 24.7128 42.2024 24.7128C42.3104 24.7128 42.4723 24.7666 42.5263 24.8743C43.4979 26.1658 44.4696 27.4034 45.4412 28.6949C45.4412 28.7488 45.4952 28.7488 45.4952 28.8564C45.3333 28.8564 45.2793 28.8564 45.1713 28.8564C41.6626 28.8564 38.1539 28.8564 34.6452 28.8564C34.3753 28.8564 34.2133 28.9102 34.0514 29.1254C32.9718 30.5784 31.8922 31.9775 30.8125 33.4304C30.7586 33.4842 30.5966 33.5919 30.5426 33.5919C28.9232 33.5919 27.2498 33.5919 25.6304 33.5919C25.6304 33.5919 25.5764 33.5919 25.5225 33.5381C30.8125 26.7039 36.0486 19.7621 41.3387 12.7665Z" fill="white"/>
<path d="M82.958 24.768C83.5518 24.2298 84.1996 23.7455 84.7933 23.2074C86.1968 21.9159 87.3844 20.5168 88.1941 18.8486C89.1118 16.9652 89.3277 15.0817 88.572 13.0907C87.9782 11.5839 86.8986 10.4001 85.603 9.43143C83.8217 8.08612 81.8244 7.27894 79.6652 6.57938C77.452 5.87981 75.1308 5.50313 72.8097 5.23407C70.4346 4.965 68.0054 4.91119 65.6303 5.01882C64.3348 5.07263 63.0932 5.18025 61.8517 5.23407C61.7977 5.23407 61.7437 5.23407 61.6357 5.18025C61.7437 5.12644 61.8517 5.12644 61.9056 5.12644C64.4967 4.48069 67.0878 3.99638 69.7328 3.72732C71.6221 3.51207 73.4575 3.40444 75.2928 3.35063C78.8555 3.24301 82.3642 3.45826 85.819 4.37307C87.7083 4.85738 89.4896 5.50313 91.1091 6.63319C92.4046 7.49419 93.4302 8.57043 93.916 10.0234C94.5638 11.7992 94.2939 13.4674 93.4842 15.0817C92.7285 16.5347 91.7028 17.7185 90.5153 18.7948C88.3021 20.8935 85.9269 22.8307 83.3899 24.5527C83.2279 24.6603 83.066 24.768 82.904 24.8756C82.958 24.8218 82.958 24.8218 82.958 24.768Z" fill="white"/>
<path d="M78.046 14.0046C78.046 15.4038 78.046 16.7491 78.046 18.0944C69.841 18.0944 61.582 18.0944 53.377 18.0944C53.377 16.7491 53.377 15.4038 53.377 14.0046C61.582 14.0046 69.787 14.0046 78.046 14.0046Z" fill="white"/>
<path d="M95.8611 13.628C96.023 13.0899 96.1849 12.5518 96.2929 12.0136C96.6708 10.2916 96.6708 8.56964 95.915 6.95527C95.3213 5.66377 94.3496 4.80277 93.216 4.0494C91.7585 3.08078 90.1391 2.54265 88.4118 2.21978C86.2526 1.78928 84.0933 1.62784 81.9341 1.62784C80.5306 1.62784 79.1271 1.62784 77.7236 1.62784C77.1838 1.62784 76.698 1.62784 76.1582 1.62784C76.5361 1.57403 76.86 1.46641 77.1838 1.41259C80.2067 0.874469 83.2296 0.44397 86.3065 0.174908C88.4118 0.013471 90.517 -0.0403414 92.6762 0.121096C94.2956 0.228721 95.915 0.497782 97.4265 1.08972C98.2362 1.46641 99.0459 1.8969 99.5857 2.65028C100.233 3.56509 100.341 4.64134 100.233 5.71758C100.018 7.5472 99.2618 9.16158 98.2362 10.6683C97.5884 11.6369 96.8327 12.5518 96.131 13.5204C96.077 13.5742 96.077 13.628 96.023 13.7356C95.915 13.628 95.8611 13.628 95.8611 13.628Z" fill="white"/>
<path d="M67.7353 33.6996C66.3858 33.6996 64.9823 33.6996 63.6328 33.6996C63.6328 29.287 63.6328 24.8744 63.6328 20.4618C64.9823 20.4618 66.3318 20.4618 67.7353 20.4618C67.7353 24.8744 67.7353 29.2332 67.7353 33.6996Z" fill="white"/>
<path d="M4.03809 41.4482C4.95576 42.0402 5.1177 42.9012 4.46993 43.6545C4.14605 43.9774 3.76819 44.1388 3.33635 44.1388C2.58062 44.1388 1.87887 44.1388 1.12315 44.1388C0.961207 44.1388 0.907227 44.085 0.907227 43.8698C0.907227 42.3092 0.907227 40.7487 0.907227 39.2419C0.907227 39.1343 0.907227 39.0267 1.06917 39.0267C1.77091 39.0267 2.52664 39.0267 3.22838 39.0805C3.71421 39.1343 4.20003 39.2957 4.36197 39.8339C4.5779 40.3182 4.5779 40.8563 4.14605 41.3406C4.09207 41.3944 4.09207 41.3944 4.03809 41.4482ZM1.55499 43.4393C2.20276 43.4393 2.85052 43.4931 3.44431 43.4393C3.93013 43.3855 4.20003 43.0626 4.20003 42.6321C4.20003 42.2016 3.93013 41.9325 3.44431 41.9325C2.9045 41.9325 2.31072 41.9325 1.71693 41.9325C1.66295 41.9325 1.55499 42.0402 1.55499 42.094C1.55499 42.5245 1.55499 42.955 1.55499 43.4393ZM1.55499 39.6724C1.55499 40.1567 1.55499 40.5872 1.55499 41.0177C1.55499 41.0715 1.60897 41.1792 1.66295 41.1792C2.20276 41.1792 2.74256 41.1792 3.22838 41.1254C3.60625 41.0715 3.87615 40.641 3.82217 40.2644C3.76819 39.8877 3.55227 39.6724 3.12042 39.6724C2.6346 39.6724 2.14878 39.6724 1.55499 39.6724Z" fill="white"/>
<path d="M43.5527 44.14C43.5527 42.418 43.5527 40.7498 43.5527 38.974C44.4164 39.0278 45.2801 38.9202 46.1438 39.0816C47.6552 39.3507 48.303 40.5346 48.1411 41.9337C47.9791 43.279 47.0075 44.0862 45.604 44.14C44.9022 44.14 44.2545 44.14 43.5527 44.14ZM44.2545 39.6197C44.2545 40.9651 44.2545 42.2027 44.2545 43.4404C44.6863 43.4404 45.1182 43.4404 45.55 43.4404C46.8995 43.4404 47.6013 42.6871 47.5473 41.3417C47.4933 40.5346 47.0075 39.8888 46.2518 39.7812C45.55 39.6197 44.9022 39.6736 44.2545 39.6197Z" fill="white"/>
<path d="M18.9921 42.6335C18.9921 41.4496 18.9921 40.2119 18.9921 38.9742C19.208 38.9742 19.4239 38.9742 19.6398 38.9742C19.6398 40.75 19.6398 42.5259 19.6398 44.3017C18.3443 42.9564 17.0488 41.6649 15.7532 40.3196C15.7532 41.611 15.7532 42.7949 15.7532 44.0326C15.5373 44.0326 15.3214 44.0326 15.1055 44.0326C15.1055 42.2568 15.1055 40.481 15.1055 38.6514C16.347 40.0505 17.6425 41.3958 18.9921 42.6335C18.9381 42.6873 18.9381 42.6873 18.9921 42.6335Z" fill="white"/>
<path d="M63.7402 44.0862C63.7402 42.3642 63.7402 40.696 63.7402 38.974C63.9562 38.974 64.1181 38.974 64.388 38.974C64.388 39.6736 64.388 40.4269 64.388 41.1265C65.3057 41.1265 66.1694 41.1265 67.087 41.1265C67.087 40.4269 67.087 39.7274 67.087 38.974C67.3029 38.974 67.5189 38.974 67.7348 38.974C67.7348 40.6422 67.7348 42.3642 67.7348 44.0862C67.5189 44.0862 67.3569 44.0862 67.087 44.0862C67.087 43.3328 67.087 42.6332 67.087 41.8799C66.1694 41.8799 65.3057 41.8799 64.388 41.8799C64.388 42.6332 64.388 43.3328 64.388 44.0862C64.1721 44.0862 63.9562 44.0862 63.7402 44.0862Z" fill="white"/>
<path d="M50.8928 39.0267C52.0264 39.0267 53.214 39.0267 54.3476 39.0267C54.3476 39.2419 54.3476 39.4034 54.3476 39.6186C53.4299 39.6186 52.4583 39.6186 51.5406 39.6186C51.5406 40.1567 51.5406 40.5872 51.5406 41.1254C52.2963 41.1254 53.0521 41.1254 53.8078 41.1254C53.8078 41.3406 53.8078 41.5559 53.8078 41.7711C53.0521 41.7711 52.2963 41.7711 51.4866 41.7711C51.4866 42.363 51.4866 42.9012 51.4866 43.4931C52.4583 43.4931 53.3759 43.4931 54.2936 43.4931C54.2936 43.7084 54.2936 43.9236 54.2936 44.1388C53.16 44.1388 51.9725 44.1388 50.8389 44.1388C50.8928 42.4169 50.8928 40.7487 50.8928 39.0267Z" fill="white"/>
<path d="M38.3159 38.7057C39.1796 40.5353 40.0433 42.3111 40.853 44.0869C40.6371 44.0869 40.4212 44.0869 40.2592 44.0869C40.2053 44.0869 40.0973 43.9793 40.0433 43.9255C39.8814 43.6564 39.7734 43.3874 39.6115 43.1183C39.5575 43.0645 39.4495 42.9569 39.3416 42.9569C38.6398 42.9569 37.8841 42.9569 37.1823 42.9569C37.0744 42.9569 36.9664 43.0645 36.9124 43.1183C36.8045 43.3336 36.6965 43.5488 36.5886 43.8179C36.4806 44.0869 36.3187 44.1946 35.9948 44.1946C35.9408 44.1946 35.8328 44.1946 35.6709 44.1946C36.5886 42.3111 37.4523 40.5353 38.3159 38.7057ZM38.3159 40.1586C37.9921 40.912 37.6682 41.5577 37.3443 42.2573C38.046 42.2573 38.6398 42.2573 39.2876 42.2573C38.9637 41.5577 38.6398 40.912 38.3159 40.1586Z" fill="white"/>
<path d="M7.27734 44.1395C8.14103 42.3099 9.00472 40.5341 9.8684 38.7583C10.7321 40.5879 11.5418 42.3099 12.4055 44.0857C11.9197 44.2472 11.7037 44.1934 11.5418 43.7629C11.4338 43.4938 11.3259 43.1171 11.11 42.9557C10.894 42.7942 10.5162 42.9019 10.1923 42.9019C9.70646 42.9019 9.27462 42.9019 8.7888 42.9019C8.62685 42.9019 8.51889 42.9557 8.46491 43.1171C8.35695 43.3862 8.19501 43.6014 8.14103 43.8705C8.08705 44.0857 7.92511 44.1395 7.70919 44.1395C7.54725 44.1395 7.43929 44.1395 7.27734 44.1395ZM9.81442 40.1574C9.49054 40.9108 9.16666 41.5565 8.84278 42.2561C9.49054 42.2561 10.1383 42.2561 10.7861 42.2561C10.4622 41.5565 10.1383 40.9108 9.81442 40.1574Z" fill="white"/>
<path d="M26.6016 40.103C26.4936 40.0492 26.3857 39.9954 26.3317 39.9416C25.576 39.4573 24.6043 39.4573 23.8486 39.9954C23.1468 40.5335 22.8769 41.4483 23.1468 42.2555C23.4167 43.0627 24.2804 43.6008 25.1981 43.6008C25.3061 43.6008 25.414 43.6008 25.522 43.547C26.2237 43.4394 26.2777 43.3318 26.2777 42.686C26.2777 42.417 26.2777 42.0941 26.2777 41.7712C26.4936 41.7712 26.7096 41.7712 26.9795 41.7712C26.9795 42.3093 26.9795 42.9013 26.9795 43.4394C26.9795 43.4932 26.9255 43.6008 26.8175 43.6547C25.9538 44.3542 24.6043 44.408 23.6327 43.7623C22.661 43.0627 22.1752 41.8788 22.5531 40.7488C22.8769 39.6187 23.9026 38.8654 25.0901 38.8654C25.522 38.8654 25.8998 39.0268 26.3317 39.1344C26.5476 39.1882 26.6016 39.2959 26.6016 39.5111C26.6016 39.7264 26.6016 39.8878 26.6016 40.103Z" fill="white"/>
<path d="M57.2646 42.9009C57.8044 43.3314 58.3442 43.6004 58.9919 43.6004C59.4238 43.6004 59.8016 43.5466 60.1255 43.2237C60.5574 42.8471 60.5034 42.3089 59.9636 42.0937C59.5857 41.9323 59.1539 41.8784 58.722 41.7708C58.3981 41.6632 58.0743 41.6094 57.8044 41.4479C56.9407 41.0174 56.8327 39.7798 57.6424 39.1878C58.3442 38.7035 59.6937 38.7035 60.3414 39.1878C60.3954 39.2416 60.4494 39.3493 60.5034 39.4569C60.5034 39.6721 60.5034 39.8336 60.5034 40.1026C60.3954 40.0488 60.2875 39.995 60.2335 39.8874C59.6397 39.5107 58.9919 39.3493 58.2902 39.6183C57.9663 39.7259 57.7504 39.8874 57.6964 40.2641C57.6964 40.5869 57.8583 40.856 58.2362 41.0174C58.668 41.1251 59.0999 41.2327 59.5317 41.3403C59.6937 41.3941 59.8556 41.3941 59.9636 41.4479C60.6113 41.6632 60.8812 41.9861 60.9352 42.578C60.9892 43.2776 60.6653 43.8157 60.0715 44.0309C59.2079 44.4076 58.3442 44.3 57.4805 43.8695C57.2646 43.7619 57.2106 43.6542 57.2106 43.439C57.3185 43.2776 57.2646 43.1161 57.2646 42.9009Z" fill="white"/>
<path d="M30.4336 39.0267C30.4336 40.5334 30.4336 42.0402 30.4336 43.5469C31.2973 43.5469 32.107 43.5469 32.9707 43.5469C32.9707 43.7622 32.9707 43.9774 32.9707 44.1927C32.7548 44.1927 32.4849 44.1927 32.269 44.1927C31.5132 44.1927 30.8115 44.1927 30.0558 44.1927C29.8938 44.1927 29.8398 44.1389 29.8398 43.9774C29.8398 42.4169 29.8398 40.8563 29.8398 39.2957C29.8398 39.1343 29.8938 39.0267 30.0558 39.0805C30.1637 39.0267 30.2717 39.0267 30.4336 39.0267Z" fill="white"/>
</svg>
