<svg width="235" height="61" viewBox="0 0 235 61" fill="none" xmlns="http://www.w3.org/2000/svg">
    <rect y="0.336548" width="235" height="60" rx="10" fill="#50AF47" />
    <path
        d="M78.748 39.5185C77.552 39.5185 76.4773 39.3105 75.524 38.8945C74.588 38.4612 73.8513 37.8719 73.314 37.1265C72.7767 36.3639 72.4993 35.4885 72.482 34.5005H75.004C75.0907 35.3499 75.4373 36.0692 76.044 36.6585C76.668 37.2305 77.5693 37.5165 78.748 37.5165C79.8747 37.5165 80.7587 37.2392 81.4 36.6845C82.0587 36.1125 82.388 35.3845 82.388 34.5005C82.388 33.8072 82.1973 33.2439 81.816 32.8105C81.4347 32.3772 80.958 32.0479 80.386 31.8225C79.814 31.5972 79.0427 31.3545 78.072 31.0945C76.876 30.7825 75.914 30.4705 75.186 30.1585C74.4753 29.8465 73.86 29.3612 73.34 28.7025C72.8373 28.0265 72.586 27.1252 72.586 25.9985C72.586 25.0105 72.8373 24.1352 73.34 23.3725C73.8427 22.6099 74.5447 22.0205 75.446 21.6045C76.3647 21.1885 77.4133 20.9805 78.592 20.9805C80.2907 20.9805 81.6773 21.4052 82.752 22.2545C83.844 23.1039 84.4593 24.2305 84.598 25.6345H81.998C81.9113 24.9412 81.5473 24.3345 80.906 23.8145C80.2647 23.2772 79.4153 23.0085 78.358 23.0085C77.37 23.0085 76.564 23.2685 75.94 23.7885C75.316 24.2912 75.004 25.0019 75.004 25.9205C75.004 26.5792 75.186 27.1165 75.55 27.5325C75.9313 27.9485 76.3907 28.2692 76.928 28.4945C77.4827 28.7025 78.254 28.9452 79.242 29.2225C80.438 29.5519 81.4 29.8812 82.128 30.2105C82.856 30.5225 83.48 31.0165 84 31.6925C84.52 32.3512 84.78 33.2525 84.78 34.3965C84.78 35.2805 84.546 36.1125 84.078 36.8925C83.61 37.6725 82.9167 38.3052 81.998 38.7905C81.0793 39.2759 79.996 39.5185 78.748 39.5185ZM100.898 25.0885V39.3365H98.5318V37.2305C98.0811 37.9585 97.4484 38.5305 96.6338 38.9465C95.8364 39.3452 94.9524 39.5445 93.9818 39.5445C92.8724 39.5445 91.8758 39.3192 90.9918 38.8685C90.1078 38.4005 89.4058 37.7072 88.8858 36.7885C88.3831 35.8699 88.1318 34.7519 88.1318 33.4345V25.0885H90.4718V33.1225C90.4718 34.5265 90.8271 35.6099 91.5378 36.3725C92.2484 37.1179 93.2191 37.4905 94.4498 37.4905C95.7151 37.4905 96.7118 37.1005 97.4398 36.3205C98.1678 35.5405 98.5318 34.4052 98.5318 32.9145V25.0885H100.898ZM107.259 27.7405C107.744 26.8912 108.455 26.1979 109.391 25.6605C110.327 25.1232 111.393 24.8545 112.589 24.8545C113.871 24.8545 115.024 25.1579 116.047 25.7645C117.069 26.3712 117.875 27.2292 118.465 28.3385C119.054 29.4305 119.349 30.7045 119.349 32.1605C119.349 33.5992 119.054 34.8819 118.465 36.0085C117.875 37.1352 117.061 38.0105 116.021 38.6345C114.998 39.2585 113.854 39.5705 112.589 39.5705C111.358 39.5705 110.275 39.3019 109.339 38.7645C108.42 38.2272 107.727 37.5425 107.259 36.7105V39.3365H104.893V20.0965H107.259V27.7405ZM116.931 32.1605C116.931 31.0859 116.714 30.1499 116.281 29.3525C115.847 28.5552 115.258 27.9485 114.513 27.5325C113.785 27.1165 112.979 26.9085 112.095 26.9085C111.228 26.9085 110.422 27.1252 109.677 27.5585C108.949 27.9745 108.359 28.5899 107.909 29.4045C107.475 30.2019 107.259 31.1292 107.259 32.1865C107.259 33.2612 107.475 34.2059 107.909 35.0205C108.359 35.8179 108.949 36.4332 109.677 36.8665C110.422 37.2825 111.228 37.4905 112.095 37.4905C112.979 37.4905 113.785 37.2825 114.513 36.8665C115.258 36.4332 115.847 35.8179 116.281 35.0205C116.714 34.2059 116.931 33.2525 116.931 32.1605ZM139.597 24.8285C140.706 24.8285 141.694 25.0625 142.561 25.5305C143.428 25.9812 144.112 26.6659 144.615 27.5845C145.118 28.5032 145.369 29.6212 145.369 30.9385V39.3365H143.029V31.2765C143.029 29.8552 142.674 28.7719 141.963 28.0265C141.27 27.2639 140.325 26.8825 139.129 26.8825C137.898 26.8825 136.919 27.2812 136.191 28.0785C135.463 28.8585 135.099 29.9939 135.099 31.4845V39.3365H132.759V31.2765C132.759 29.8552 132.404 28.7719 131.693 28.0265C131 27.2639 130.055 26.8825 128.859 26.8825C127.628 26.8825 126.649 27.2812 125.921 28.0785C125.193 28.8585 124.829 29.9939 124.829 31.4845V39.3365H122.463V25.0885H124.829V27.1425C125.297 26.3972 125.921 25.8252 126.701 25.4265C127.498 25.0279 128.374 24.8285 129.327 24.8285C130.523 24.8285 131.58 25.0972 132.499 25.6345C133.418 26.1719 134.102 26.9605 134.553 28.0005C134.952 26.9952 135.61 26.2152 136.529 25.6605C137.448 25.1059 138.47 24.8285 139.597 24.8285ZM150.472 22.7745C150.021 22.7745 149.64 22.6185 149.328 22.3065C149.016 21.9945 148.86 21.6132 148.86 21.1625C148.86 20.7119 149.016 20.3305 149.328 20.0185C149.64 19.7065 150.021 19.5505 150.472 19.5505C150.905 19.5505 151.269 19.7065 151.564 20.0185C151.876 20.3305 152.032 20.7119 152.032 21.1625C152.032 21.6132 151.876 21.9945 151.564 22.3065C151.269 22.6185 150.905 22.7745 150.472 22.7745ZM151.616 25.0885V39.3365H149.25V25.0885H151.616ZM158.534 27.0385V35.4365C158.534 36.1299 158.682 36.6239 158.976 36.9185C159.271 37.1959 159.782 37.3345 160.51 37.3345H162.252V39.3365H160.12C158.803 39.3365 157.815 39.0332 157.156 38.4265C156.498 37.8199 156.168 36.8232 156.168 35.4365V27.0385H154.322V25.0885H156.168V21.5005H158.534V25.0885H162.252V27.0385H158.534Z"
        fill="white" />
</svg>
    