<svg width="236" height="61" viewBox="0 0 236 61" fill="none" xmlns="http://www.w3.org/2000/svg">
<rect x="0.165527" y="0.136719" width="235" height="60" rx="10" fill="#0E2B63"/>
<path d="M59.2835 30.0627C59.2835 28.2947 59.6822 26.7087 60.4795 25.3047C61.2769 23.8834 62.3602 22.7741 63.7295 21.9767C65.1162 21.1794 66.6502 20.7807 68.3315 20.7807C70.3075 20.7807 72.0322 21.2574 73.5055 22.2107C74.9789 23.1641 76.0535 24.5161 76.7295 26.2667H73.8955C73.3929 25.1747 72.6649 24.3341 71.7115 23.7447C70.7755 23.1554 69.6489 22.8607 68.3315 22.8607C67.0662 22.8607 65.9309 23.1554 64.9255 23.7447C63.9202 24.3341 63.1315 25.1747 62.5595 26.2667C61.9875 27.3414 61.7015 28.6067 61.7015 30.0627C61.7015 31.5014 61.9875 32.7667 62.5595 33.8587C63.1315 34.9334 63.9202 35.7654 64.9255 36.3547C65.9309 36.9441 67.0662 37.2387 68.3315 37.2387C69.6489 37.2387 70.7755 36.9527 71.7115 36.3807C72.6649 35.7914 73.3929 34.9507 73.8955 33.8587H76.7295C76.0535 35.5921 74.9789 36.9354 73.5055 37.8887C72.0322 38.8247 70.3075 39.2927 68.3315 39.2927C66.6502 39.2927 65.1162 38.9027 63.7295 38.1227C62.3602 37.3254 61.2769 36.2247 60.4795 34.8207C59.6822 33.4167 59.2835 31.8307 59.2835 30.0627ZM86.4655 39.3707C85.1308 39.3707 83.9175 39.0674 82.8255 38.4607C81.7508 37.8541 80.9015 36.9961 80.2775 35.8867C79.6708 34.7601 79.3675 33.4601 79.3675 31.9867C79.3675 30.5307 79.6795 29.2481 80.3035 28.1387C80.9448 27.0121 81.8115 26.1541 82.9035 25.5647C83.9955 24.9581 85.2175 24.6547 86.5695 24.6547C87.9215 24.6547 89.1435 24.9581 90.2355 25.5647C91.3275 26.1541 92.1855 27.0034 92.8095 28.1127C93.4508 29.2221 93.7715 30.5134 93.7715 31.9867C93.7715 33.4601 93.4422 34.7601 92.7835 35.8867C92.1422 36.9961 91.2668 37.8541 90.1575 38.4607C89.0482 39.0674 87.8175 39.3707 86.4655 39.3707ZM86.4655 37.2907C87.3148 37.2907 88.1122 37.0914 88.8575 36.6927C89.6028 36.2941 90.2008 35.6961 90.6515 34.8987C91.1195 34.1014 91.3535 33.1307 91.3535 31.9867C91.3535 30.8427 91.1282 29.8721 90.6775 29.0747C90.2268 28.2774 89.6375 27.6881 88.9095 27.3067C88.1815 26.9081 87.3928 26.7087 86.5435 26.7087C85.6768 26.7087 84.8795 26.9081 84.1515 27.3067C83.4408 27.6881 82.8688 28.2774 82.4355 29.0747C82.0022 29.8721 81.7855 30.8427 81.7855 31.9867C81.7855 33.1481 81.9935 34.1274 82.4095 34.9247C82.8428 35.7221 83.4148 36.3201 84.1255 36.7187C84.8362 37.1001 85.6162 37.2907 86.4655 37.2907ZM103.824 24.6287C105.558 24.6287 106.962 25.1574 108.036 26.2147C109.111 27.2547 109.648 28.7627 109.648 30.7387V39.1367H107.308V31.0767C107.308 29.6554 106.953 28.5721 106.242 27.8267C105.532 27.0641 104.561 26.6827 103.33 26.6827C102.082 26.6827 101.086 27.0727 100.34 27.8527C99.6124 28.6327 99.2484 29.7681 99.2484 31.2587V39.1367H96.8824V24.8887H99.2484V26.9167C99.7164 26.1887 100.349 25.6254 101.146 25.2267C101.961 24.8281 102.854 24.6287 103.824 24.6287ZM116.399 26.8387V35.2367C116.399 35.9301 116.547 36.4241 116.841 36.7187C117.136 36.9961 117.647 37.1347 118.375 37.1347H120.117V39.1367H117.985C116.668 39.1367 115.68 38.8334 115.021 38.2267C114.363 37.6201 114.033 36.6234 114.033 35.2367V26.8387H112.187V24.8887H114.033V21.3007H116.399V24.8887H120.117V26.8387H116.399ZM124.206 22.5747C123.755 22.5747 123.374 22.4187 123.062 22.1067C122.75 21.7947 122.594 21.4134 122.594 20.9627C122.594 20.5121 122.75 20.1307 123.062 19.8187C123.374 19.5067 123.755 19.3507 124.206 19.3507C124.639 19.3507 125.003 19.5067 125.298 19.8187C125.61 20.1307 125.766 20.5121 125.766 20.9627C125.766 21.4134 125.61 21.7947 125.298 22.1067C125.003 22.4187 124.639 22.5747 124.206 22.5747ZM125.35 24.8887V39.1367H122.984V24.8887H125.35ZM136.324 24.6287C138.058 24.6287 139.462 25.1574 140.536 26.2147C141.611 27.2547 142.148 28.7627 142.148 30.7387V39.1367H139.808V31.0767C139.808 29.6554 139.453 28.5721 138.742 27.8267C138.032 27.0641 137.061 26.6827 135.83 26.6827C134.582 26.6827 133.586 27.0727 132.84 27.8527C132.112 28.6327 131.748 29.7681 131.748 31.2587V39.1367H129.382V24.8887H131.748V26.9167C132.216 26.1887 132.849 25.6254 133.646 25.2267C134.461 24.8281 135.354 24.6287 136.324 24.6287ZM158.649 24.8887V39.1367H156.283V37.0307C155.833 37.7587 155.2 38.3307 154.385 38.7467C153.588 39.1454 152.704 39.3447 151.733 39.3447C150.624 39.3447 149.627 39.1194 148.743 38.6687C147.859 38.2007 147.157 37.5074 146.637 36.5887C146.135 35.6701 145.883 34.5521 145.883 33.2347V24.8887H148.223V32.9227C148.223 34.3267 148.579 35.4101 149.289 36.1727C150 36.9181 150.971 37.2907 152.201 37.2907C153.467 37.2907 154.463 36.9007 155.191 36.1207C155.919 35.3407 156.283 34.2054 156.283 32.7147V24.8887H158.649ZM175.644 31.4667C175.644 31.9174 175.618 32.3941 175.566 32.8967H164.178C164.265 34.3007 164.741 35.4014 165.608 36.1987C166.492 36.9787 167.558 37.3687 168.806 37.3687C169.829 37.3687 170.678 37.1347 171.354 36.6667C172.047 36.1814 172.533 35.5401 172.81 34.7427H175.358C174.977 36.1121 174.214 37.2301 173.07 38.0967C171.926 38.9461 170.505 39.3707 168.806 39.3707C167.454 39.3707 166.241 39.0674 165.166 38.4607C164.109 37.8541 163.277 36.9961 162.67 35.8867C162.063 34.7601 161.76 33.4601 161.76 31.9867C161.76 30.5134 162.055 29.2221 162.644 28.1127C163.233 27.0034 164.057 26.1541 165.114 25.5647C166.189 24.9581 167.419 24.6547 168.806 24.6547C170.158 24.6547 171.354 24.9494 172.394 25.5387C173.434 26.1281 174.231 26.9427 174.786 27.9827C175.358 29.0054 175.644 30.1667 175.644 31.4667ZM173.2 30.9727C173.2 30.0714 173.001 29.3001 172.602 28.6587C172.203 28.0001 171.657 27.5061 170.964 27.1767C170.288 26.8301 169.534 26.6567 168.702 26.6567C167.506 26.6567 166.483 27.0381 165.634 27.8007C164.802 28.5634 164.325 29.6207 164.204 30.9727H173.2Z" fill="white"/>
</svg>
