<svg width="236" height="61" viewBox="0 0 236 61" fill="none" xmlns="http://www.w3.org/2000/svg">
<rect x="0.25293" y="0.336548" width="235" height="60" rx="10" fill="#0E2B63"/>
<path d="M59.3709 30.2625C59.3709 28.4945 59.7696 26.9085 60.5669 25.5045C61.3643 24.0832 62.4476 22.9739 63.8169 22.1765C65.2036 21.3792 66.7376 20.9805 68.4189 20.9805C70.3949 20.9805 72.1196 21.4572 73.5929 22.4105C75.0663 23.3639 76.1409 24.7159 76.8169 26.4665H73.9829C73.4803 25.3745 72.7523 24.5339 71.7989 23.9445C70.8629 23.3552 69.7363 23.0605 68.4189 23.0605C67.1536 23.0605 66.0183 23.3552 65.0129 23.9445C64.0076 24.5339 63.2189 25.3745 62.6469 26.4665C62.0749 27.5412 61.7889 28.8065 61.7889 30.2625C61.7889 31.7012 62.0749 32.9665 62.6469 34.0585C63.2189 35.1332 64.0076 35.9652 65.0129 36.5545C66.0183 37.1439 67.1536 37.4385 68.4189 37.4385C69.7363 37.4385 70.8629 37.1525 71.7989 36.5805C72.7523 35.9912 73.4803 35.1505 73.9829 34.0585H76.8169C76.1409 35.7919 75.0663 37.1352 73.5929 38.0885C72.1196 39.0245 70.3949 39.4925 68.4189 39.4925C66.7376 39.4925 65.2036 39.1025 63.8169 38.3225C62.4476 37.5252 61.3643 36.4245 60.5669 35.0205C59.7696 33.6165 59.3709 32.0305 59.3709 30.2625ZM86.5529 39.5705C85.2182 39.5705 84.0049 39.2672 82.9129 38.6605C81.8382 38.0539 80.9889 37.1959 80.3649 36.0865C79.7582 34.9599 79.4549 33.6599 79.4549 32.1865C79.4549 30.7305 79.7669 29.4479 80.3909 28.3385C81.0322 27.2119 81.8989 26.3539 82.9909 25.7645C84.0829 25.1579 85.3049 24.8545 86.6569 24.8545C88.0089 24.8545 89.2309 25.1579 90.3229 25.7645C91.4149 26.3539 92.2729 27.2032 92.8969 28.3125C93.5382 29.4219 93.8589 30.7132 93.8589 32.1865C93.8589 33.6599 93.5296 34.9599 92.8709 36.0865C92.2296 37.1959 91.3542 38.0539 90.2449 38.6605C89.1356 39.2672 87.9049 39.5705 86.5529 39.5705ZM86.5529 37.4905C87.4022 37.4905 88.1996 37.2912 88.9449 36.8925C89.6902 36.4939 90.2882 35.8959 90.7389 35.0985C91.2069 34.3012 91.4409 33.3305 91.4409 32.1865C91.4409 31.0425 91.2156 30.0719 90.7649 29.2745C90.3142 28.4772 89.7249 27.8879 88.9969 27.5065C88.2689 27.1079 87.4802 26.9085 86.6309 26.9085C85.7642 26.9085 84.9669 27.1079 84.2389 27.5065C83.5282 27.8879 82.9562 28.4772 82.5229 29.2745C82.0896 30.0719 81.8729 31.0425 81.8729 32.1865C81.8729 33.3479 82.0809 34.3272 82.4969 35.1245C82.9302 35.9219 83.5022 36.5199 84.2129 36.9185C84.9236 37.2999 85.7036 37.4905 86.5529 37.4905ZM103.912 24.8285C105.645 24.8285 107.049 25.3572 108.124 26.4145C109.198 27.4545 109.736 28.9625 109.736 30.9385V39.3365H107.396V31.2765C107.396 29.8552 107.04 28.7719 106.33 28.0265C105.619 27.2639 104.648 26.8825 103.418 26.8825C102.17 26.8825 101.173 27.2725 100.428 28.0525C99.6998 28.8325 99.3358 29.9679 99.3358 31.4585V39.3365H96.9698V25.0885H99.3358V27.1165C99.8038 26.3885 100.436 25.8252 101.234 25.4265C102.048 25.0279 102.941 24.8285 103.912 24.8285ZM116.487 27.0385V35.4365C116.487 36.1299 116.634 36.6239 116.929 36.9185C117.223 37.1959 117.735 37.3345 118.463 37.3345H120.205V39.3365H118.073C116.755 39.3365 115.767 39.0332 115.109 38.4265C114.45 37.8199 114.121 36.8232 114.121 35.4365V27.0385H112.275V25.0885H114.121V21.5005H116.487V25.0885H120.205V27.0385H116.487ZM124.293 22.7745C123.843 22.7745 123.461 22.6185 123.149 22.3065C122.837 21.9945 122.681 21.6132 122.681 21.1625C122.681 20.7119 122.837 20.3305 123.149 20.0185C123.461 19.7065 123.843 19.5505 124.293 19.5505C124.727 19.5505 125.091 19.7065 125.385 20.0185C125.697 20.3305 125.853 20.7119 125.853 21.1625C125.853 21.6132 125.697 21.9945 125.385 22.3065C125.091 22.6185 124.727 22.7745 124.293 22.7745ZM125.437 25.0885V39.3365H123.071V25.0885H125.437ZM136.412 24.8285C138.145 24.8285 139.549 25.3572 140.624 26.4145C141.698 27.4545 142.236 28.9625 142.236 30.9385V39.3365H139.896V31.2765C139.896 29.8552 139.54 28.7719 138.83 28.0265C138.119 27.2639 137.148 26.8825 135.918 26.8825C134.67 26.8825 133.673 27.2725 132.928 28.0525C132.2 28.8325 131.836 29.9679 131.836 31.4585V39.3365H129.47V25.0885H131.836V27.1165C132.304 26.3885 132.936 25.8252 133.734 25.4265C134.548 25.0279 135.441 24.8285 136.412 24.8285ZM158.737 25.0885V39.3365H156.371V37.2305C155.92 37.9585 155.287 38.5305 154.473 38.9465C153.675 39.3452 152.791 39.5445 151.821 39.5445C150.711 39.5445 149.715 39.3192 148.831 38.8685C147.947 38.4005 147.245 37.7072 146.725 36.7885C146.222 35.8699 145.971 34.7519 145.971 33.4345V25.0885H148.311V33.1225C148.311 34.5265 148.666 35.6099 149.377 36.3725C150.087 37.1179 151.058 37.4905 152.289 37.4905C153.554 37.4905 154.551 37.1005 155.279 36.3205C156.007 35.5405 156.371 34.4052 156.371 32.9145V25.0885H158.737ZM175.731 31.6665C175.731 32.1172 175.705 32.5939 175.653 33.0965H164.265C164.352 34.5005 164.829 35.6012 165.695 36.3985C166.579 37.1785 167.645 37.5685 168.893 37.5685C169.916 37.5685 170.765 37.3345 171.441 36.8665C172.135 36.3812 172.62 35.7399 172.897 34.9425H175.445C175.064 36.3119 174.301 37.4299 173.157 38.2965C172.013 39.1459 170.592 39.5705 168.893 39.5705C167.541 39.5705 166.328 39.2672 165.253 38.6605C164.196 38.0539 163.364 37.1959 162.757 36.0865C162.151 34.9599 161.847 33.6599 161.847 32.1865C161.847 30.7132 162.142 29.4219 162.731 28.3125C163.321 27.2032 164.144 26.3539 165.201 25.7645C166.276 25.1579 167.507 24.8545 168.893 24.8545C170.245 24.8545 171.441 25.1492 172.481 25.7385C173.521 26.3279 174.319 27.1425 174.873 28.1825C175.445 29.2052 175.731 30.3665 175.731 31.6665ZM173.287 31.1725C173.287 30.2712 173.088 29.4999 172.689 28.8585C172.291 28.1999 171.745 27.7059 171.051 27.3765C170.375 27.0299 169.621 26.8565 168.789 26.8565C167.593 26.8565 166.571 27.2379 165.721 28.0005C164.889 28.7632 164.413 29.8205 164.291 31.1725H173.287Z" fill="white"/>
</svg>
