<svg width="321" height="61" viewBox="0 0 321 61" fill="none" xmlns="http://www.w3.org/2000/svg">
<rect x="0.5" y="0.749268" width="320" height="60" rx="10" fill="#0E2B63"/>
<path d="M97.704 30.9773C97.704 29.0733 98.1333 27.3653 98.992 25.8533C99.8507 24.3226 101.017 23.1279 102.492 22.2693C103.985 21.4106 105.637 20.9813 107.448 20.9813C109.576 20.9813 111.433 21.4946 113.02 22.5213C114.607 23.5479 115.764 25.0039 116.492 26.8893H113.44C112.899 25.7133 112.115 24.8079 111.088 24.1733C110.08 23.5386 108.867 23.2213 107.448 23.2213C106.085 23.2213 104.863 23.5386 103.78 24.1733C102.697 24.8079 101.848 25.7133 101.232 26.8893C100.616 28.0466 100.308 29.4093 100.308 30.9773C100.308 32.5266 100.616 33.8893 101.232 35.0653C101.848 36.2226 102.697 37.1186 103.78 37.7533C104.863 38.3879 106.085 38.7053 107.448 38.7053C108.867 38.7053 110.08 38.3973 111.088 37.7813C112.115 37.1466 112.899 36.2413 113.44 35.0653H116.492C115.764 36.9319 114.607 38.3786 113.02 39.4053C111.433 40.4133 109.576 40.9173 107.448 40.9173C105.637 40.9173 103.985 40.4973 102.492 39.6573C101.017 38.7986 99.8507 37.6133 98.992 36.1013C98.1333 34.5893 97.704 32.8813 97.704 30.9773ZM126.977 41.0013C125.54 41.0013 124.233 40.6746 123.057 40.0213C121.9 39.3679 120.985 38.4439 120.313 37.2493C119.66 36.0359 119.333 34.6359 119.333 33.0493C119.333 31.4813 119.669 30.0999 120.341 28.9053C121.032 27.6919 121.965 26.7679 123.141 26.1333C124.317 25.4799 125.633 25.1533 127.089 25.1533C128.545 25.1533 129.861 25.4799 131.037 26.1333C132.213 26.7679 133.137 27.6826 133.809 28.8773C134.5 30.0719 134.845 31.4626 134.845 33.0493C134.845 34.6359 134.49 36.0359 133.781 37.2493C133.09 38.4439 132.148 39.3679 130.953 40.0213C129.758 40.6746 128.433 41.0013 126.977 41.0013ZM126.977 38.7613C127.892 38.7613 128.75 38.5466 129.553 38.1173C130.356 37.6879 131 37.0439 131.485 36.1853C131.989 35.3266 132.241 34.2813 132.241 33.0493C132.241 31.8173 131.998 30.7719 131.513 29.9133C131.028 29.0546 130.393 28.4199 129.609 28.0093C128.825 27.5799 127.976 27.3653 127.061 27.3653C126.128 27.3653 125.269 27.5799 124.485 28.0093C123.72 28.4199 123.104 29.0546 122.637 29.9133C122.17 30.7719 121.937 31.8173 121.937 33.0493C121.937 34.2999 122.161 35.3546 122.609 36.2133C123.076 37.0719 123.692 37.7159 124.457 38.1453C125.222 38.5559 126.062 38.7613 126.977 38.7613ZM145.671 25.1253C147.538 25.1253 149.05 25.6946 150.207 26.8333C151.364 27.9533 151.943 29.5773 151.943 31.7053V40.7493H149.423V32.0693C149.423 30.5386 149.04 29.3719 148.275 28.5693C147.51 27.7479 146.464 27.3373 145.139 27.3373C143.795 27.3373 142.722 27.7573 141.919 28.5973C141.135 29.4373 140.743 30.6599 140.743 32.2653V40.7493H138.195V25.4053H140.743V27.5893C141.247 26.8053 141.928 26.1986 142.787 25.7693C143.664 25.3399 144.626 25.1253 145.671 25.1253ZM159.213 27.5053V36.5493C159.213 37.2959 159.372 37.8279 159.689 38.1453C160.007 38.4439 160.557 38.5933 161.341 38.5933H163.217V40.7493H160.921C159.503 40.7493 158.439 40.4226 157.729 39.7693C157.02 39.1159 156.665 38.0426 156.665 36.5493V27.5053H154.677V25.4053H156.665V21.5413H159.213V25.4053H163.217V27.5053H159.213ZM167.62 22.9133C167.135 22.9133 166.724 22.7453 166.388 22.4093C166.052 22.0733 165.884 21.6626 165.884 21.1773C165.884 20.6919 166.052 20.2813 166.388 19.9453C166.724 19.6093 167.135 19.4413 167.62 19.4413C168.087 19.4413 168.479 19.6093 168.796 19.9453C169.132 20.2813 169.3 20.6919 169.3 21.1773C169.3 21.6626 169.132 22.0733 168.796 22.4093C168.479 22.7453 168.087 22.9133 167.62 22.9133ZM168.852 25.4053V40.7493H166.304V25.4053H168.852ZM180.671 25.1253C182.538 25.1253 184.05 25.6946 185.207 26.8333C186.364 27.9533 186.943 29.5773 186.943 31.7053V40.7493H184.423V32.0693C184.423 30.5386 184.04 29.3719 183.275 28.5693C182.51 27.7479 181.464 27.3373 180.139 27.3373C178.795 27.3373 177.722 27.7573 176.919 28.5973C176.135 29.4373 175.743 30.6599 175.743 32.2653V40.7493H173.195V25.4053H175.743V27.5893C176.247 26.8053 176.928 26.1986 177.787 25.7693C178.664 25.3399 179.626 25.1253 180.671 25.1253ZM204.713 25.4053V40.7493H202.165V38.4813C201.68 39.2653 200.999 39.8813 200.121 40.3293C199.263 40.7586 198.311 40.9733 197.265 40.9733C196.071 40.9733 194.997 40.7306 194.045 40.2453C193.093 39.7413 192.337 38.9946 191.777 38.0053C191.236 37.0159 190.965 35.8119 190.965 34.3933V25.4053H193.485V34.0573C193.485 35.5693 193.868 36.7359 194.633 37.5573C195.399 38.3599 196.444 38.7613 197.769 38.7613C199.132 38.7613 200.205 38.3413 200.989 37.5013C201.773 36.6613 202.165 35.4386 202.165 33.8333V25.4053H204.713ZM223.015 32.4893C223.015 32.9746 222.987 33.4879 222.931 34.0293H210.667C210.761 35.5413 211.274 36.7266 212.207 37.5853C213.159 38.4253 214.307 38.8453 215.651 38.8453C216.753 38.8453 217.667 38.5933 218.395 38.0893C219.142 37.5666 219.665 36.8759 219.963 36.0173H222.707C222.297 37.4919 221.475 38.6959 220.243 39.6293C219.011 40.5439 217.481 41.0013 215.651 41.0013C214.195 41.0013 212.889 40.6746 211.731 40.0213C210.593 39.3679 209.697 38.4439 209.043 37.2493C208.39 36.0359 208.063 34.6359 208.063 33.0493C208.063 31.4626 208.381 30.0719 209.015 28.8773C209.65 27.6826 210.537 26.7679 211.675 26.1333C212.833 25.4799 214.158 25.1533 215.651 25.1533C217.107 25.1533 218.395 25.4706 219.515 26.1053C220.635 26.7399 221.494 27.6173 222.091 28.7373C222.707 29.8386 223.015 31.0893 223.015 32.4893ZM220.383 31.9573C220.383 30.9866 220.169 30.1559 219.739 29.4653C219.31 28.7559 218.722 28.2239 217.975 27.8693C217.247 27.4959 216.435 27.3093 215.539 27.3093C214.251 27.3093 213.15 27.7199 212.235 28.5413C211.339 29.3626 210.826 30.5013 210.695 31.9573H220.383Z" fill="white"/>
</svg>
