<svg width="236" height="60" viewBox="0 0 236 60" fill="none" xmlns="http://www.w3.org/2000/svg">
<rect x="0.816406" width="235" height="60" rx="10" fill="#0E2B63"/>
<path d="M57.1844 37.076H63.5284V39H54.8184V20.878H57.1844V37.076ZM79.0411 31.33C79.0411 31.7807 79.0151 32.2573 78.9631 32.76H67.5751C67.6617 34.164 68.1384 35.2647 69.0051 36.062C69.8891 36.842 70.9551 37.232 72.2031 37.232C73.2257 37.232 74.0751 36.998 74.7511 36.53C75.4444 36.0447 75.9297 35.4033 76.2071 34.606H78.7551C78.3737 35.9753 77.6111 37.0933 76.4671 37.96C75.3231 38.8093 73.9017 39.234 72.2031 39.234C70.8511 39.234 69.6377 38.9307 68.5631 38.324C67.5057 37.7173 66.6737 36.8593 66.0671 35.75C65.4604 34.6233 65.1571 33.3233 65.1571 31.85C65.1571 30.3767 65.4517 29.0853 66.0411 27.976C66.6304 26.8667 67.4537 26.0173 68.5111 25.428C69.5857 24.8213 70.8164 24.518 72.2031 24.518C73.5551 24.518 74.7511 24.8127 75.7911 25.402C76.8311 25.9913 77.6284 26.806 78.1831 27.846C78.7551 28.8687 79.0411 30.03 79.0411 31.33ZM76.5971 30.836C76.5971 29.9347 76.3977 29.1633 75.9991 28.522C75.6004 27.8633 75.0544 27.3693 74.3611 27.04C73.6851 26.6933 72.9311 26.52 72.0991 26.52C70.9031 26.52 69.8804 26.9013 69.0311 27.664C68.1991 28.4267 67.7224 29.484 67.6011 30.836H76.5971ZM85.0501 26.702V35.1C85.0501 35.7933 85.1974 36.2873 85.4921 36.582C85.7868 36.8593 86.2981 36.998 87.0261 36.998H88.7681V39H86.6361C85.3188 39 84.3308 38.6967 83.6721 38.09C83.0134 37.4833 82.6841 36.4867 82.6841 35.1V26.702H80.8381V24.752H82.6841V21.164H85.0501V24.752H88.7681V26.702H85.0501ZM91.9988 20.878H94.6248L92.1288 26.78H90.4648L91.9988 20.878ZM102.366 39.234C101.274 39.234 100.295 39.052 99.4283 38.688C98.5616 38.3067 97.877 37.7867 97.3743 37.128C96.8716 36.452 96.5943 35.6807 96.5423 34.814H98.9863C99.0556 35.5247 99.385 36.1053 99.9743 36.556C100.581 37.0067 101.37 37.232 102.34 37.232C103.242 37.232 103.952 37.0327 104.472 36.634C104.992 36.2353 105.252 35.7327 105.252 35.126C105.252 34.502 104.975 34.0427 104.42 33.748C103.866 33.436 103.008 33.1327 101.846 32.838C100.789 32.5607 99.9223 32.2833 99.2463 32.006C98.5876 31.7113 98.0156 31.2867 97.5303 30.732C97.0623 30.16 96.8283 29.4147 96.8283 28.496C96.8283 27.768 97.045 27.1007 97.4783 26.494C97.9116 25.8873 98.527 25.4107 99.3243 25.064C100.122 24.7 101.032 24.518 102.054 24.518C103.632 24.518 104.906 24.9167 105.876 25.714C106.847 26.5113 107.367 27.6033 107.436 28.99H105.07C105.018 28.2447 104.715 27.6467 104.16 27.196C103.623 26.7453 102.895 26.52 101.976 26.52C101.127 26.52 100.451 26.702 99.9483 27.066C99.4456 27.43 99.1943 27.9067 99.1943 28.496C99.1943 28.964 99.3416 29.354 99.6363 29.666C99.9483 29.9607 100.33 30.2033 100.78 30.394C101.248 30.5673 101.89 30.7667 102.704 30.992C103.727 31.2693 104.559 31.5467 105.2 31.824C105.842 32.084 106.388 32.4827 106.838 33.02C107.306 33.5573 107.549 34.2593 107.566 35.126C107.566 35.906 107.35 36.608 106.916 37.232C106.483 37.856 105.868 38.35 105.07 38.714C104.29 39.0607 103.389 39.234 102.366 39.234ZM131.566 26.13C131.063 25.0727 130.335 24.258 129.382 23.686C128.429 23.0967 127.319 22.802 126.054 22.802C124.789 22.802 123.645 23.0967 122.622 23.686C121.617 24.258 120.819 25.09 120.23 26.182C119.658 27.2567 119.372 28.5047 119.372 29.926C119.372 31.3473 119.658 32.5953 120.23 33.67C120.819 34.7447 121.617 35.5767 122.622 36.166C123.645 36.738 124.789 37.024 126.054 37.024C127.822 37.024 129.278 36.4953 130.422 35.438C131.566 34.3807 132.233 32.9507 132.424 31.148H125.196V29.224H134.946V31.044C134.807 32.5347 134.339 33.904 133.542 35.152C132.745 36.3827 131.696 37.362 130.396 38.09C129.096 38.8007 127.649 39.156 126.054 39.156C124.373 39.156 122.839 38.766 121.452 37.986C120.065 37.1887 118.965 36.088 118.15 34.684C117.353 33.28 116.954 31.694 116.954 29.926C116.954 28.158 117.353 26.572 118.15 25.168C118.965 23.7467 120.065 22.646 121.452 21.866C122.839 21.0687 124.373 20.67 126.054 20.67C127.978 20.67 129.677 21.1467 131.15 22.1C132.641 23.0533 133.724 24.3967 134.4 26.13H131.566ZM144.288 39.234C142.954 39.234 141.74 38.9307 140.648 38.324C139.574 37.7173 138.724 36.8593 138.1 35.75C137.494 34.6233 137.19 33.3233 137.19 31.85C137.19 30.394 137.502 29.1113 138.126 28.002C138.768 26.8753 139.634 26.0173 140.726 25.428C141.818 24.8213 143.04 24.518 144.392 24.518C145.744 24.518 146.966 24.8213 148.058 25.428C149.15 26.0173 150.008 26.8667 150.632 27.976C151.274 29.0853 151.594 30.3767 151.594 31.85C151.594 33.3233 151.265 34.6233 150.606 35.75C149.965 36.8593 149.09 37.7173 147.98 38.324C146.871 38.9307 145.64 39.234 144.288 39.234ZM144.288 37.154C145.138 37.154 145.935 36.9547 146.68 36.556C147.426 36.1573 148.024 35.5593 148.474 34.762C148.942 33.9647 149.176 32.994 149.176 31.85C149.176 30.706 148.951 29.7353 148.5 28.938C148.05 28.1407 147.46 27.5513 146.732 27.17C146.004 26.7713 145.216 26.572 144.366 26.572C143.5 26.572 142.702 26.7713 141.974 27.17C141.264 27.5513 140.692 28.1407 140.258 28.938C139.825 29.7353 139.608 30.706 139.608 31.85C139.608 33.0113 139.816 33.9907 140.232 34.788C140.666 35.5853 141.238 36.1833 141.948 36.582C142.659 36.9633 143.439 37.154 144.288 37.154Z" fill="white"/>
<path d="M175.416 21.6L173.946 23.07L179.826 28.95H162.816V31.05H179.826L173.946 36.93L175.416 38.4L183.816 30L175.416 21.6Z" fill="white"/>
</svg>
