<svg class="w-[14.42vw]" width="277" height="60" viewBox="0 0 277 60" fill="none" xmlns="http://www.w3.org/2000/svg">
                  <rect width="277" height="60" rx="10" fill="#0E2B63"/>
                  <path d="M45.748 39.182C44.552 39.182 43.4773 38.974 42.524 38.558C41.588 38.1247 40.8513 37.5353 40.314 36.79C39.7767 36.0273 39.4993 35.152 39.482 34.164H42.004C42.0907 35.0133 42.4373 35.7327 43.044 36.322C43.668 36.894 44.5693 37.18 45.748 37.18C46.8747 37.18 47.7587 36.9027 48.4 36.348C49.0587 35.776 49.388 35.048 49.388 34.164C49.388 33.4707 49.1973 32.9073 48.816 32.474C48.4347 32.0407 47.958 31.7113 47.386 31.486C46.814 31.2607 46.0427 31.018 45.072 30.758C43.876 30.446 42.914 30.134 42.186 29.822C41.4753 29.51 40.86 29.0247 40.34 28.366C39.8373 27.69 39.586 26.7887 39.586 25.662C39.586 24.674 39.8373 23.7987 40.34 23.036C40.8427 22.2733 41.5447 21.684 42.446 21.268C43.3647 20.852 44.4133 20.644 45.592 20.644C47.2907 20.644 48.6773 21.0687 49.752 21.918C50.844 22.7673 51.4593 23.894 51.598 25.298H48.998C48.9113 24.6047 48.5473 23.998 47.906 23.478C47.2647 22.9407 46.4153 22.672 45.358 22.672C44.37 22.672 43.564 22.932 42.94 23.452C42.316 23.9547 42.004 24.6653 42.004 25.584C42.004 26.2427 42.186 26.78 42.55 27.196C42.9313 27.612 43.3907 27.9327 43.928 28.158C44.4827 28.366 45.254 28.6087 46.242 28.886C47.438 29.2153 48.4 29.5447 49.128 29.874C49.856 30.186 50.48 30.68 51 31.356C51.52 32.0147 51.78 32.916 51.78 34.06C51.78 34.944 51.546 35.776 51.078 36.556C50.61 37.336 49.9167 37.9687 48.998 38.454C48.0793 38.9393 46.996 39.182 45.748 39.182ZM58.1478 26.702V35.1C58.1478 35.7933 58.2951 36.2873 58.5898 36.582C58.8844 36.8593 59.3958 36.998 60.1238 36.998H61.8658V39H59.7338C58.4164 39 57.4284 38.6967 56.7698 38.09C56.1111 37.4833 55.7818 36.4867 55.7818 35.1V26.702H53.9358V24.752H55.7818V21.164H58.1478V24.752H61.8658V26.702H58.1478ZM63.8485 31.824C63.8485 30.368 64.1431 29.094 64.7325 28.002C65.3218 26.8927 66.1278 26.0347 67.1505 25.428C68.1905 24.8213 69.3431 24.518 70.6085 24.518C71.8565 24.518 72.9398 24.7867 73.8585 25.324C74.7771 25.8613 75.4618 26.5373 75.9125 27.352V24.752H78.3045V39H75.9125V36.348C75.4445 37.18 74.7425 37.8733 73.8065 38.428C72.8878 38.9653 71.8131 39.234 70.5825 39.234C69.3171 39.234 68.1731 38.922 67.1505 38.298C66.1278 37.674 65.3218 36.7987 64.7325 35.672C64.1431 34.5453 63.8485 33.2627 63.8485 31.824ZM75.9125 31.85C75.9125 30.7753 75.6958 29.8393 75.2625 29.042C74.8291 28.2447 74.2398 27.638 73.4945 27.222C72.7665 26.7887 71.9605 26.572 71.0765 26.572C70.1925 26.572 69.3865 26.78 68.6585 27.196C67.9305 27.612 67.3498 28.2187 66.9165 29.016C66.4831 29.8133 66.2665 30.7493 66.2665 31.824C66.2665 32.916 66.4831 33.8693 66.9165 34.684C67.3498 35.4813 67.9305 36.0967 68.6585 36.53C69.3865 36.946 70.1925 37.154 71.0765 37.154C71.9605 37.154 72.7665 36.946 73.4945 36.53C74.2398 36.0967 74.8291 35.4813 75.2625 34.684C75.6958 33.8693 75.9125 32.9247 75.9125 31.85ZM84.6688 27.066C85.0848 26.2513 85.6741 25.6187 86.4368 25.168C87.2168 24.7173 88.1614 24.492 89.2708 24.492V26.936H88.6468C85.9948 26.936 84.6688 28.3747 84.6688 31.252V39H82.3028V24.752H84.6688V27.066ZM94.888 26.702V35.1C94.888 35.7933 95.0353 36.2873 95.33 36.582C95.6247 36.8593 96.136 36.998 96.864 36.998H98.606V39H96.474C95.1567 39 94.1687 38.6967 93.51 38.09C92.8513 37.4833 92.522 36.4867 92.522 35.1V26.702H90.676V24.752H92.522V21.164H94.888V24.752H98.606V26.702H94.888ZM110.77 22.802V28.86H117.374V30.81H110.77V37.05H118.154V39H108.404V20.852H118.154V22.802H110.77ZM124.1 27.378C124.568 26.5633 125.262 25.8873 126.18 25.35C127.116 24.7953 128.2 24.518 129.43 24.518C130.696 24.518 131.84 24.8213 132.862 25.428C133.902 26.0347 134.717 26.8927 135.306 28.002C135.896 29.094 136.19 30.368 136.19 31.824C136.19 33.2627 135.896 34.5453 135.306 35.672C134.717 36.7987 133.902 37.674 132.862 38.298C131.84 38.922 130.696 39.234 129.43 39.234C128.217 39.234 127.142 38.9653 126.206 38.428C125.288 37.8733 124.586 37.1887 124.1 36.374V45.76H121.734V24.752H124.1V27.378ZM133.772 31.824C133.772 30.7493 133.556 29.8133 133.122 29.016C132.689 28.2187 132.1 27.612 131.354 27.196C130.626 26.78 129.82 26.572 128.936 26.572C128.07 26.572 127.264 26.7887 126.518 27.222C125.79 27.638 125.201 28.2533 124.75 29.068C124.317 29.8653 124.1 30.7927 124.1 31.85C124.1 32.9247 124.317 33.8693 124.75 34.684C125.201 35.4813 125.79 36.0967 126.518 36.53C127.264 36.946 128.07 37.154 128.936 37.154C129.82 37.154 130.626 36.946 131.354 36.53C132.1 36.0967 132.689 35.4813 133.122 34.684C133.556 33.8693 133.772 32.916 133.772 31.824ZM140.527 22.438C140.076 22.438 139.695 22.282 139.383 21.97C139.071 21.658 138.915 21.2767 138.915 20.826C138.915 20.3753 139.071 19.994 139.383 19.682C139.695 19.37 140.076 19.214 140.527 19.214C140.96 19.214 141.324 19.37 141.619 19.682C141.931 19.994 142.087 20.3753 142.087 20.826C142.087 21.2767 141.931 21.658 141.619 21.97C141.324 22.282 140.96 22.438 140.527 22.438ZM141.671 24.752V39H139.305V24.752H141.671ZM150.747 39.234C149.655 39.234 148.676 39.052 147.809 38.688C146.943 38.3067 146.258 37.7867 145.755 37.128C145.253 36.452 144.975 35.6807 144.923 34.814H147.367C147.437 35.5247 147.766 36.1053 148.355 36.556C148.962 37.0067 149.751 37.232 150.721 37.232C151.623 37.232 152.333 37.0327 152.853 36.634C153.373 36.2353 153.633 35.7327 153.633 35.126C153.633 34.502 153.356 34.0427 152.801 33.748C152.247 33.436 151.389 33.1327 150.227 32.838C149.17 32.5607 148.303 32.2833 147.627 32.006C146.969 31.7113 146.397 31.2867 145.911 30.732C145.443 30.16 145.209 29.4147 145.209 28.496C145.209 27.768 145.426 27.1007 145.859 26.494C146.293 25.8873 146.908 25.4107 147.705 25.064C148.503 24.7 149.413 24.518 150.435 24.518C152.013 24.518 153.287 24.9167 154.257 25.714C155.228 26.5113 155.748 27.6033 155.817 28.99H153.451C153.399 28.2447 153.096 27.6467 152.541 27.196C152.004 26.7453 151.276 26.52 150.357 26.52C149.508 26.52 148.832 26.702 148.329 27.066C147.827 27.43 147.575 27.9067 147.575 28.496C147.575 28.964 147.723 29.354 148.017 29.666C148.329 29.9607 148.711 30.2033 149.161 30.394C149.629 30.5673 150.271 30.7667 151.085 30.992C152.108 31.2693 152.94 31.5467 153.581 31.824C154.223 32.084 154.769 32.4827 155.219 33.02C155.687 33.5573 155.93 34.2593 155.947 35.126C155.947 35.906 155.731 36.608 155.297 37.232C154.864 37.856 154.249 38.35 153.451 38.714C152.671 39.0607 151.77 39.234 150.747 39.234ZM165.501 39.234C164.166 39.234 162.953 38.9307 161.861 38.324C160.786 37.7173 159.937 36.8593 159.313 35.75C158.706 34.6233 158.403 33.3233 158.403 31.85C158.403 30.394 158.715 29.1113 159.339 28.002C159.98 26.8753 160.847 26.0173 161.939 25.428C163.031 24.8213 164.253 24.518 165.605 24.518C166.957 24.518 168.179 24.8213 169.271 25.428C170.363 26.0173 171.221 26.8667 171.845 27.976C172.486 29.0853 172.807 30.3767 172.807 31.85C172.807 33.3233 172.478 34.6233 171.819 35.75C171.178 36.8593 170.302 37.7173 169.193 38.324C168.084 38.9307 166.853 39.234 165.501 39.234ZM165.501 37.154C166.35 37.154 167.148 36.9547 167.893 36.556C168.638 36.1573 169.236 35.5593 169.687 34.762C170.155 33.9647 170.389 32.994 170.389 31.85C170.389 30.706 170.164 29.7353 169.713 28.938C169.262 28.1407 168.673 27.5513 167.945 27.17C167.217 26.7713 166.428 26.572 165.579 26.572C164.712 26.572 163.915 26.7713 163.187 27.17C162.476 27.5513 161.904 28.1407 161.471 28.938C161.038 29.7353 160.821 30.706 160.821 31.85C160.821 33.0113 161.029 33.9907 161.445 34.788C161.878 35.5853 162.45 36.1833 163.161 36.582C163.872 36.9633 164.652 37.154 165.501 37.154ZM175.034 31.824C175.034 30.368 175.329 29.094 175.918 28.002C176.507 26.8927 177.313 26.0347 178.336 25.428C179.376 24.8213 180.537 24.518 181.82 24.518C182.929 24.518 183.961 24.778 184.914 25.298C185.867 25.8007 186.595 26.468 187.098 27.3V19.76H189.49V39H187.098V36.322C186.63 37.1713 185.937 37.8733 185.018 38.428C184.099 38.9653 183.025 39.234 181.794 39.234C180.529 39.234 179.376 38.922 178.336 38.298C177.313 37.674 176.507 36.7987 175.918 35.672C175.329 34.5453 175.034 33.2627 175.034 31.824ZM187.098 31.85C187.098 30.7753 186.881 29.8393 186.448 29.042C186.015 28.2447 185.425 27.638 184.68 27.222C183.952 26.7887 183.146 26.572 182.262 26.572C181.378 26.572 180.572 26.78 179.844 27.196C179.116 27.612 178.535 28.2187 178.102 29.016C177.669 29.8133 177.452 30.7493 177.452 31.824C177.452 32.916 177.669 33.8693 178.102 34.684C178.535 35.4813 179.116 36.0967 179.844 36.53C180.572 36.946 181.378 37.154 182.262 37.154C183.146 37.154 183.952 36.946 184.68 36.53C185.425 36.0967 186.015 35.4813 186.448 34.684C186.881 33.8693 187.098 32.9247 187.098 31.85ZM206.488 31.33C206.488 31.7807 206.462 32.2573 206.41 32.76H195.022C195.109 34.164 195.586 35.2647 196.452 36.062C197.336 36.842 198.402 37.232 199.65 37.232C200.673 37.232 201.522 36.998 202.198 36.53C202.892 36.0447 203.377 35.4033 203.654 34.606H206.202C205.821 35.9753 205.058 37.0933 203.914 37.96C202.77 38.8093 201.349 39.234 199.65 39.234C198.298 39.234 197.085 38.9307 196.01 38.324C194.953 37.7173 194.121 36.8593 193.514 35.75C192.908 34.6233 192.604 33.3233 192.604 31.85C192.604 30.3767 192.899 29.0853 193.488 27.976C194.078 26.8667 194.901 26.0173 195.958 25.428C197.033 24.8213 198.264 24.518 199.65 24.518C201.002 24.518 202.198 24.8127 203.238 25.402C204.278 25.9913 205.076 26.806 205.63 27.846C206.202 28.8687 206.488 30.03 206.488 31.33ZM204.044 30.836C204.044 29.9347 203.845 29.1633 203.446 28.522C203.048 27.8633 202.502 27.3693 201.808 27.04C201.132 26.6933 200.378 26.52 199.546 26.52C198.35 26.52 197.328 26.9013 196.478 27.664C195.646 28.4267 195.17 29.484 195.048 30.836H204.044Z" fill="white"/>
                  <path d="M230.6 21.6L229.13 23.07L235.01 28.95H218V31.05H235.01L229.13 36.93L230.6 38.4L239 30L230.6 21.6Z" fill="white"/>
                  </svg>