<svg width="236" height="61" viewBox="0 0 236 61" fill="none" xmlns="http://www.w3.org/2000/svg">
<rect x="0.167969" y="0.335938" width="235" height="60" rx="10" fill="#00B1EB"/>
<path d="M59.286 30.2619C59.286 28.4939 59.6846 26.9079 60.482 25.5039C61.2793 24.0826 62.3626 22.9733 63.732 22.1759C65.1186 21.3786 66.6526 20.9799 68.334 20.9799C70.31 20.9799 72.0346 21.4566 73.508 22.4099C74.9813 23.3633 76.056 24.7153 76.732 26.4659H73.898C73.3953 25.3739 72.6673 24.5333 71.714 23.9439C70.778 23.3546 69.6513 23.0599 68.334 23.0599C67.0686 23.0599 65.9333 23.3546 64.928 23.9439C63.9226 24.5333 63.134 25.3739 62.562 26.4659C61.99 27.5406 61.704 28.8059 61.704 30.2619C61.704 31.7006 61.99 32.9659 62.562 34.0579C63.134 35.1326 63.9226 35.9646 64.928 36.5539C65.9333 37.1433 67.0686 37.4379 68.334 37.4379C69.6513 37.4379 70.778 37.1519 71.714 36.5799C72.6673 35.9906 73.3953 35.1499 73.898 34.0579H76.732C76.056 35.7913 74.9813 37.1346 73.508 38.0879C72.0346 39.0239 70.31 39.4919 68.334 39.4919C66.6526 39.4919 65.1186 39.1019 63.732 38.3219C62.3626 37.5246 61.2793 36.4239 60.482 35.0199C59.6846 33.6159 59.286 32.0299 59.286 30.2619ZM86.468 39.5699C85.1333 39.5699 83.92 39.2666 82.828 38.6599C81.7533 38.0533 80.904 37.1953 80.28 36.0859C79.6733 34.9593 79.37 33.6593 79.37 32.1859C79.37 30.7299 79.682 29.4473 80.306 28.3379C80.9473 27.2113 81.814 26.3533 82.906 25.7639C83.998 25.1573 85.22 24.8539 86.572 24.8539C87.924 24.8539 89.146 25.1573 90.238 25.7639C91.33 26.3533 92.188 27.2026 92.812 28.3119C93.4533 29.4213 93.774 30.7126 93.774 32.1859C93.774 33.6593 93.4446 34.9593 92.786 36.0859C92.1446 37.1953 91.2693 38.0533 90.16 38.6599C89.0506 39.2666 87.82 39.5699 86.468 39.5699ZM86.468 37.4899C87.3173 37.4899 88.1146 37.2906 88.86 36.8919C89.6053 36.4933 90.2033 35.8953 90.654 35.0979C91.122 34.3006 91.356 33.3299 91.356 32.1859C91.356 31.0419 91.1306 30.0713 90.68 29.2739C90.2293 28.4766 89.64 27.8873 88.912 27.5059C88.184 27.1073 87.3953 26.9079 86.546 26.9079C85.6793 26.9079 84.882 27.1073 84.154 27.5059C83.4433 27.8873 82.8713 28.4766 82.438 29.2739C82.0046 30.0713 81.788 31.0419 81.788 32.1859C81.788 33.3473 81.996 34.3266 82.412 35.1239C82.8453 35.9213 83.4173 36.5193 84.128 36.9179C84.8386 37.2993 85.6186 37.4899 86.468 37.4899ZM103.827 24.8279C105.56 24.8279 106.964 25.3566 108.039 26.4139C109.113 27.4539 109.651 28.9619 109.651 30.9379V39.3359H107.311V31.2759C107.311 29.8546 106.955 28.7713 106.245 28.0259C105.534 27.2633 104.563 26.8819 103.333 26.8819C102.085 26.8819 101.088 27.2719 100.343 28.0519C99.6148 28.8319 99.2508 29.9673 99.2508 31.4579V39.3359H96.8848V25.0879H99.2508V27.1159C99.7188 26.3879 100.351 25.8246 101.149 25.4259C101.963 25.0273 102.856 24.8279 103.827 24.8279ZM116.402 27.0379V35.4359C116.402 36.1293 116.549 36.6233 116.844 36.9179C117.138 37.1953 117.65 37.3339 118.378 37.3339H120.12V39.3359H117.988C116.67 39.3359 115.682 39.0326 115.024 38.4259C114.365 37.8193 114.036 36.8226 114.036 35.4359V27.0379H112.19V25.0879H114.036V21.4999H116.402V25.0879H120.12V27.0379H116.402ZM124.208 22.7739C123.758 22.7739 123.376 22.6179 123.064 22.3059C122.752 21.9939 122.596 21.6126 122.596 21.1619C122.596 20.7113 122.752 20.3299 123.064 20.0179C123.376 19.7059 123.758 19.5499 124.208 19.5499C124.642 19.5499 125.006 19.7059 125.3 20.0179C125.612 20.3299 125.768 20.7113 125.768 21.1619C125.768 21.6126 125.612 21.9939 125.3 22.3059C125.006 22.6179 124.642 22.7739 124.208 22.7739ZM125.352 25.0879V39.3359H122.986V25.0879H125.352ZM136.327 24.8279C138.06 24.8279 139.464 25.3566 140.539 26.4139C141.613 27.4539 142.151 28.9619 142.151 30.9379V39.3359H139.811V31.2759C139.811 29.8546 139.455 28.7713 138.745 28.0259C138.034 27.2633 137.063 26.8819 135.833 26.8819C134.585 26.8819 133.588 27.2719 132.843 28.0519C132.115 28.8319 131.751 29.9673 131.751 31.4579V39.3359H129.385V25.0879H131.751V27.1159C132.219 26.3879 132.851 25.8246 133.649 25.4259C134.463 25.0273 135.356 24.8279 136.327 24.8279ZM158.652 25.0879V39.3359H156.286V37.2299C155.835 37.9579 155.202 38.5299 154.388 38.9459C153.59 39.3446 152.706 39.5439 151.736 39.5439C150.626 39.5439 149.63 39.3186 148.746 38.8679C147.862 38.3999 147.16 37.7066 146.64 36.7879C146.137 35.8693 145.886 34.7513 145.886 33.4339V25.0879H148.226V33.1219C148.226 34.5259 148.581 35.6093 149.292 36.3719C150.002 37.1173 150.973 37.4899 152.204 37.4899C153.469 37.4899 154.466 37.0999 155.194 36.3199C155.922 35.5399 156.286 34.4046 156.286 32.9139V25.0879H158.652ZM175.647 31.6659C175.647 32.1166 175.621 32.5933 175.569 33.0959H164.181C164.267 34.4999 164.744 35.6006 165.611 36.3979C166.495 37.1779 167.561 37.5679 168.809 37.5679C169.831 37.5679 170.681 37.3339 171.357 36.8659C172.05 36.3806 172.535 35.7393 172.813 34.9419H175.361C174.979 36.3113 174.217 37.4293 173.073 38.2959C171.929 39.1453 170.507 39.5699 168.809 39.5699C167.457 39.5699 166.243 39.2666 165.169 38.6599C164.111 38.0533 163.279 37.1953 162.673 36.0859C162.066 34.9593 161.763 33.6593 161.763 32.1859C161.763 30.7126 162.057 29.4213 162.647 28.3119C163.236 27.2026 164.059 26.3533 165.117 25.7639C166.191 25.1573 167.422 24.8539 168.809 24.8539C170.161 24.8539 171.357 25.1486 172.397 25.7379C173.437 26.3273 174.234 27.1419 174.789 28.1819C175.361 29.2046 175.647 30.3659 175.647 31.6659ZM173.203 31.1719C173.203 30.2706 173.003 29.4993 172.605 28.8579C172.206 28.1993 171.66 27.7053 170.967 27.3759C170.291 27.0293 169.537 26.8559 168.705 26.8559C167.509 26.8559 166.486 27.2373 165.637 27.9999C164.805 28.7626 164.328 29.8199 164.207 31.1719H173.203Z" fill="white"/>
</svg>

