<svg width="236" height="61" viewBox="0 0 236 61" fill="none" xmlns="http://www.w3.org/2000/svg">
    <rect x="0.23645" y="0.242188" width="235" height="60" rx="10" fill="#0E2B63" />
    <path
        d="M59.3545 30.1682C59.3545 28.4002 59.7531 26.8142 60.5505 25.4102C61.3478 23.9889 62.4311 22.8795 63.8005 22.0822C65.1871 21.2849 66.7211 20.8862 68.4025 20.8862C70.3785 20.8862 72.1031 21.3629 73.5765 22.3162C75.0498 23.2695 76.1245 24.6215 76.8005 26.3722H73.9665C73.4638 25.2802 72.7358 24.4395 71.7825 23.8502C70.8465 23.2609 69.7198 22.9662 68.4025 22.9662C67.1371 22.9662 66.0018 23.2609 64.9965 23.8502C63.9911 24.4395 63.2025 25.2802 62.6305 26.3722C62.0585 27.4469 61.7725 28.7122 61.7725 30.1682C61.7725 31.6069 62.0585 32.8722 62.6305 33.9642C63.2025 35.0389 63.9911 35.8709 64.9965 36.4602C66.0018 37.0495 67.1371 37.3442 68.4025 37.3442C69.7198 37.3442 70.8465 37.0582 71.7825 36.4862C72.7358 35.8969 73.4638 35.0562 73.9665 33.9642H76.8005C76.1245 35.6975 75.0498 37.0409 73.5765 37.9942C72.1031 38.9302 70.3785 39.3982 68.4025 39.3982C66.7211 39.3982 65.1871 39.0082 63.8005 38.2282C62.4311 37.4309 61.3478 36.3302 60.5505 34.9262C59.7531 33.5222 59.3545 31.9362 59.3545 30.1682ZM86.5364 39.4762C85.2018 39.4762 83.9884 39.1729 82.8964 38.5662C81.8218 37.9595 80.9724 37.1015 80.3484 35.9922C79.7418 34.8655 79.4384 33.5655 79.4384 32.0922C79.4384 30.6362 79.7504 29.3535 80.3744 28.2442C81.0158 27.1175 81.8824 26.2595 82.9744 25.6702C84.0664 25.0635 85.2884 24.7602 86.6404 24.7602C87.9924 24.7602 89.2144 25.0635 90.3064 25.6702C91.3984 26.2595 92.2564 27.1089 92.8804 28.2182C93.5218 29.3275 93.8424 30.6189 93.8424 32.0922C93.8424 33.5655 93.5131 34.8655 92.8544 35.9922C92.2131 37.1015 91.3378 37.9595 90.2284 38.5662C89.1191 39.1729 87.8884 39.4762 86.5364 39.4762ZM86.5364 37.3962C87.3858 37.3962 88.1831 37.1969 88.9284 36.7982C89.6738 36.3995 90.2718 35.8015 90.7224 35.0042C91.1904 34.2069 91.4244 33.2362 91.4244 32.0922C91.4244 30.9482 91.1991 29.9775 90.7484 29.1802C90.2978 28.3829 89.7084 27.7935 88.9804 27.4122C88.2524 27.0135 87.4638 26.8142 86.6144 26.8142C85.7478 26.8142 84.9504 27.0135 84.2224 27.4122C83.5118 27.7935 82.9398 28.3829 82.5064 29.1802C82.0731 29.9775 81.8564 30.9482 81.8564 32.0922C81.8564 33.2535 82.0644 34.2329 82.4804 35.0302C82.9138 35.8275 83.4858 36.4255 84.1964 36.8242C84.9071 37.2055 85.6871 37.3962 86.5364 37.3962ZM103.895 24.7342C105.629 24.7342 107.033 25.2629 108.107 26.3202C109.182 27.3602 109.719 28.8682 109.719 30.8442V39.2422H107.379V31.1822C107.379 29.7609 107.024 28.6775 106.313 27.9322C105.603 27.1695 104.632 26.7882 103.401 26.7882C102.153 26.7882 101.157 27.1782 100.411 27.9582C99.6833 28.7382 99.3193 29.8735 99.3193 31.3642V39.2422H96.9533V24.9942H99.3193V27.0222C99.7873 26.2942 100.42 25.7309 101.217 25.3322C102.032 24.9335 102.925 24.7342 103.895 24.7342ZM116.47 26.9442V35.3422C116.47 36.0355 116.617 36.5295 116.912 36.8242C117.207 37.1015 117.718 37.2402 118.446 37.2402H120.188V39.2422H118.056C116.739 39.2422 115.751 38.9389 115.092 38.3322C114.433 37.7255 114.104 36.7289 114.104 35.3422V26.9442H112.258V24.9942H114.104V21.4062H116.47V24.9942H120.188V26.9442H116.47ZM124.277 22.6802C123.826 22.6802 123.445 22.5242 123.133 22.2122C122.821 21.9002 122.665 21.5189 122.665 21.0682C122.665 20.6175 122.821 20.2362 123.133 19.9242C123.445 19.6122 123.826 19.4562 124.277 19.4562C124.71 19.4562 125.074 19.6122 125.369 19.9242C125.681 20.2362 125.837 20.6175 125.837 21.0682C125.837 21.5189 125.681 21.9002 125.369 22.2122C125.074 22.5242 124.71 22.6802 124.277 22.6802ZM125.421 24.9942V39.2422H123.055V24.9942H125.421ZM136.395 24.7342C138.129 24.7342 139.533 25.2629 140.607 26.3202C141.682 27.3602 142.219 28.8682 142.219 30.8442V39.2422H139.879V31.1822C139.879 29.7609 139.524 28.6775 138.813 27.9322C138.103 27.1695 137.132 26.7882 135.901 26.7882C134.653 26.7882 133.657 27.1782 132.911 27.9582C132.183 28.7382 131.819 29.8735 131.819 31.3642V39.2422H129.453V24.9942H131.819V27.0222C132.287 26.2942 132.92 25.7309 133.717 25.3322C134.532 24.9335 135.425 24.7342 136.395 24.7342ZM158.72 24.9942V39.2422H156.354V37.1362C155.903 37.8642 155.271 38.4362 154.456 38.8522C153.659 39.2509 152.775 39.4502 151.804 39.4502C150.695 39.4502 149.698 39.2249 148.814 38.7742C147.93 38.3062 147.228 37.6129 146.708 36.6942C146.205 35.7755 145.954 34.6575 145.954 33.3402V24.9942H148.294V33.0282C148.294 34.4322 148.649 35.5155 149.36 36.2782C150.071 37.0235 151.041 37.3962 152.272 37.3962C153.537 37.3962 154.534 37.0062 155.262 36.2262C155.99 35.4462 156.354 34.3109 156.354 32.8202V24.9942H158.72ZM175.715 31.5722C175.715 32.0229 175.689 32.4995 175.637 33.0022H164.249C164.336 34.4062 164.812 35.5069 165.679 36.3042C166.563 37.0842 167.629 37.4742 168.877 37.4742C169.9 37.4742 170.749 37.2402 171.425 36.7722C172.118 36.2869 172.604 35.6455 172.881 34.8482H175.429C175.048 36.2175 174.285 37.3355 173.141 38.2022C171.997 39.0515 170.576 39.4762 168.877 39.4762C167.525 39.4762 166.312 39.1729 165.237 38.5662C164.18 37.9595 163.348 37.1015 162.741 35.9922C162.134 34.8655 161.831 33.5655 161.831 32.0922C161.831 30.6189 162.126 29.3275 162.715 28.2182C163.304 27.1089 164.128 26.2595 165.185 25.6702C166.26 25.0635 167.49 24.7602 168.877 24.7602C170.229 24.7602 171.425 25.0549 172.465 25.6442C173.505 26.2335 174.302 27.0482 174.857 28.0882C175.429 29.1109 175.715 30.2722 175.715 31.5722ZM173.271 31.0782C173.271 30.1769 173.072 29.4055 172.673 28.7642C172.274 28.1055 171.728 27.6115 171.035 27.2822C170.359 26.9355 169.605 26.7622 168.773 26.7622C167.577 26.7622 166.554 27.1435 165.705 27.9062C164.873 28.6689 164.396 29.7262 164.275 31.0782H173.271Z"
        fill="white" />
</svg>
    