<svg width="235" height="61" viewBox="0 0 235 61" fill="none" xmlns="http://www.w3.org/2000/svg">
    <rect y="0.335938" width="235" height="60" rx="10" fill="#0E2B63" />
    <path
        d="M59.118 30.2619C59.118 28.4939 59.5167 26.9079 60.314 25.5039C61.1113 24.0826 62.1947 22.9733 63.564 22.1759C64.9507 21.3786 66.4847 20.9799 68.166 20.9799C70.142 20.9799 71.8667 21.4566 73.34 22.4099C74.8133 23.3633 75.888 24.7153 76.564 26.4659H73.73C73.2273 25.3739 72.4993 24.5333 71.546 23.9439C70.61 23.3546 69.4833 23.0599 68.166 23.0599C66.9007 23.0599 65.7653 23.3546 64.76 23.9439C63.7547 24.5333 62.966 25.3739 62.394 26.4659C61.822 27.5406 61.536 28.8059 61.536 30.2619C61.536 31.7006 61.822 32.9659 62.394 34.0579C62.966 35.1326 63.7547 35.9646 64.76 36.5539C65.7653 37.1433 66.9007 37.4379 68.166 37.4379C69.4833 37.4379 70.61 37.1519 71.546 36.5799C72.4993 35.9906 73.2273 35.1499 73.73 34.0579H76.564C75.888 35.7913 74.8133 37.1346 73.34 38.0879C71.8667 39.0239 70.142 39.4919 68.166 39.4919C66.4847 39.4919 64.9507 39.1019 63.564 38.3219C62.1947 37.5246 61.1113 36.4239 60.314 35.0199C59.5167 33.6159 59.118 32.0299 59.118 30.2619ZM86.3 39.5699C84.9653 39.5699 83.752 39.2666 82.66 38.6599C81.5853 38.0533 80.736 37.1953 80.112 36.0859C79.5053 34.9593 79.202 33.6593 79.202 32.1859C79.202 30.7299 79.514 29.4473 80.138 28.3379C80.7793 27.2113 81.646 26.3533 82.738 25.7639C83.83 25.1573 85.052 24.8539 86.404 24.8539C87.756 24.8539 88.978 25.1573 90.07 25.7639C91.162 26.3533 92.02 27.2026 92.644 28.3119C93.2853 29.4213 93.606 30.7126 93.606 32.1859C93.606 33.6593 93.2767 34.9593 92.618 36.0859C91.9767 37.1953 91.1013 38.0533 89.992 38.6599C88.8827 39.2666 87.652 39.5699 86.3 39.5699ZM86.3 37.4899C87.1493 37.4899 87.9467 37.2906 88.692 36.8919C89.4373 36.4933 90.0353 35.8953 90.486 35.0979C90.954 34.3006 91.188 33.3299 91.188 32.1859C91.188 31.0419 90.9627 30.0713 90.512 29.2739C90.0613 28.4766 89.472 27.8873 88.744 27.5059C88.016 27.1073 87.2273 26.9079 86.378 26.9079C85.5113 26.9079 84.714 27.1073 83.986 27.5059C83.2753 27.8873 82.7033 28.4766 82.27 29.2739C81.8367 30.0713 81.62 31.0419 81.62 32.1859C81.62 33.3473 81.828 34.3266 82.244 35.1239C82.6773 35.9213 83.2493 36.5193 83.96 36.9179C84.6707 37.2993 85.4507 37.4899 86.3 37.4899ZM103.659 24.8279C105.392 24.8279 106.796 25.3566 107.871 26.4139C108.946 27.4539 109.483 28.9619 109.483 30.9379V39.3359H107.143V31.2759C107.143 29.8546 106.788 28.7713 106.077 28.0259C105.366 27.2633 104.396 26.8819 103.165 26.8819C101.917 26.8819 100.92 27.2719 100.175 28.0519C99.4468 28.8319 99.0828 29.9673 99.0828 31.4579V39.3359H96.7168V25.0879H99.0828V27.1159C99.5508 26.3879 100.184 25.8246 100.981 25.4259C101.796 25.0273 102.688 24.8279 103.659 24.8279ZM116.234 27.0379V35.4359C116.234 36.1293 116.381 36.6233 116.676 36.9179C116.97 37.1953 117.482 37.3339 118.21 37.3339H119.952V39.3359H117.82C116.502 39.3359 115.514 39.0326 114.856 38.4259C114.197 37.8193 113.868 36.8226 113.868 35.4359V27.0379H112.022V25.0879H113.868V21.4999H116.234V25.0879H119.952V27.0379H116.234ZM124.04 22.7739C123.59 22.7739 123.208 22.6179 122.896 22.3059C122.584 21.9939 122.428 21.6126 122.428 21.1619C122.428 20.7113 122.584 20.3299 122.896 20.0179C123.208 19.7059 123.59 19.5499 124.04 19.5499C124.474 19.5499 124.838 19.7059 125.132 20.0179C125.444 20.3299 125.6 20.7113 125.6 21.1619C125.6 21.6126 125.444 21.9939 125.132 22.3059C124.838 22.6179 124.474 22.7739 124.04 22.7739ZM125.184 25.0879V39.3359H122.818V25.0879H125.184ZM136.159 24.8279C137.892 24.8279 139.296 25.3566 140.371 26.4139C141.446 27.4539 141.983 28.9619 141.983 30.9379V39.3359H139.643V31.2759C139.643 29.8546 139.288 28.7713 138.577 28.0259C137.866 27.2633 136.896 26.8819 135.665 26.8819C134.417 26.8819 133.42 27.2719 132.675 28.0519C131.947 28.8319 131.583 29.9673 131.583 31.4579V39.3359H129.217V25.0879H131.583V27.1159C132.051 26.3879 132.684 25.8246 133.481 25.4259C134.296 25.0273 135.188 24.8279 136.159 24.8279ZM158.484 25.0879V39.3359H156.118V37.2299C155.667 37.9579 155.034 38.5299 154.22 38.9459C153.422 39.3446 152.538 39.5439 151.568 39.5439C150.458 39.5439 149.462 39.3186 148.578 38.8679C147.694 38.3999 146.992 37.7066 146.472 36.7879C145.969 35.8693 145.718 34.7513 145.718 33.4339V25.0879H148.058V33.1219C148.058 34.5259 148.413 35.6093 149.124 36.3719C149.834 37.1173 150.805 37.4899 152.036 37.4899C153.301 37.4899 154.298 37.0999 155.026 36.3199C155.754 35.5399 156.118 34.4046 156.118 32.9139V25.0879H158.484ZM175.479 31.6659C175.479 32.1166 175.453 32.5933 175.401 33.0959H164.013C164.099 34.4999 164.576 35.6006 165.443 36.3979C166.327 37.1779 167.393 37.5679 168.641 37.5679C169.663 37.5679 170.513 37.3339 171.189 36.8659C171.882 36.3806 172.367 35.7393 172.645 34.9419H175.193C174.811 36.3113 174.049 37.4293 172.905 38.2959C171.761 39.1453 170.339 39.5699 168.641 39.5699C167.289 39.5699 166.075 39.2666 165.001 38.6599C163.943 38.0533 163.111 37.1953 162.505 36.0859C161.898 34.9593 161.595 33.6593 161.595 32.1859C161.595 30.7126 161.889 29.4213 162.479 28.3119C163.068 27.2026 163.891 26.3533 164.949 25.7639C166.023 25.1573 167.254 24.8539 168.641 24.8539C169.993 24.8539 171.189 25.1486 172.229 25.7379C173.269 26.3273 174.066 27.1419 174.621 28.1819C175.193 29.2046 175.479 30.3659 175.479 31.6659ZM173.035 31.1719C173.035 30.2706 172.835 29.4993 172.437 28.8579C172.038 28.1993 171.492 27.7053 170.799 27.3759C170.123 27.0293 169.369 26.8559 168.537 26.8559C167.341 26.8559 166.318 27.2373 165.469 27.9999C164.637 28.7626 164.16 29.8199 164.039 31.1719H173.035Z"
        fill="white" />
</svg>
    