<svg width="236" height="61" viewBox="0 0 236 61" fill="none" xmlns="http://www.w3.org/2000/svg">
<rect x="0.5" y="0.0294189" width="235" height="60" rx="10" fill="#0E2B63"/>
<path d="M59.618 29.9554C59.618 28.1874 60.0167 26.6014 60.814 25.1974C61.6113 23.7761 62.6947 22.6668 64.064 21.8694C65.4507 21.0721 66.9847 20.6734 68.666 20.6734C70.642 20.6734 72.3667 21.1501 73.84 22.1034C75.3133 23.0568 76.388 24.4088 77.064 26.1594H74.23C73.7273 25.0674 72.9993 24.2268 72.046 23.6374C71.11 23.0481 69.9833 22.7534 68.666 22.7534C67.4007 22.7534 66.2653 23.0481 65.26 23.6374C64.2547 24.2268 63.466 25.0674 62.894 26.1594C62.322 27.2341 62.036 28.4994 62.036 29.9554C62.036 31.3941 62.322 32.6594 62.894 33.7514C63.466 34.8261 64.2547 35.6581 65.26 36.2474C66.2653 36.8368 67.4007 37.1314 68.666 37.1314C69.9833 37.1314 71.11 36.8454 72.046 36.2734C72.9993 35.6841 73.7273 34.8434 74.23 33.7514H77.064C76.388 35.4848 75.3133 36.8281 73.84 37.7814C72.3667 38.7174 70.642 39.1854 68.666 39.1854C66.9847 39.1854 65.4507 38.7954 64.064 38.0154C62.6947 37.2181 61.6113 36.1174 60.814 34.7134C60.0167 33.3094 59.618 31.7234 59.618 29.9554ZM86.8 39.2634C85.4653 39.2634 84.252 38.9601 83.16 38.3534C82.0853 37.7468 81.236 36.8888 80.612 35.7794C80.0053 34.6528 79.702 33.3528 79.702 31.8794C79.702 30.4234 80.014 29.1408 80.638 28.0314C81.2793 26.9048 82.146 26.0468 83.238 25.4574C84.33 24.8508 85.552 24.5474 86.904 24.5474C88.256 24.5474 89.478 24.8508 90.57 25.4574C91.662 26.0468 92.52 26.8961 93.144 28.0054C93.7853 29.1148 94.106 30.4061 94.106 31.8794C94.106 33.3528 93.7767 34.6528 93.118 35.7794C92.4767 36.8888 91.6013 37.7468 90.492 38.3534C89.3827 38.9601 88.152 39.2634 86.8 39.2634ZM86.8 37.1834C87.6493 37.1834 88.4467 36.9841 89.192 36.5854C89.9373 36.1868 90.5353 35.5888 90.986 34.7914C91.454 33.9941 91.688 33.0234 91.688 31.8794C91.688 30.7354 91.4627 29.7648 91.012 28.9674C90.5613 28.1701 89.972 27.5808 89.244 27.1994C88.516 26.8008 87.7273 26.6014 86.878 26.6014C86.0113 26.6014 85.214 26.8008 84.486 27.1994C83.7753 27.5808 83.2033 28.1701 82.77 28.9674C82.3367 29.7648 82.12 30.7354 82.12 31.8794C82.12 33.0408 82.328 34.0201 82.744 34.8174C83.1773 35.6148 83.7493 36.2128 84.46 36.6114C85.1707 36.9928 85.9507 37.1834 86.8 37.1834ZM104.159 24.5214C105.892 24.5214 107.296 25.0501 108.371 26.1074C109.446 27.1474 109.983 28.6554 109.983 30.6314V39.0294H107.643V30.9694C107.643 29.5481 107.288 28.4648 106.577 27.7194C105.866 26.9568 104.896 26.5754 103.665 26.5754C102.417 26.5754 101.42 26.9654 100.675 27.7454C99.9468 28.5254 99.5828 29.6608 99.5828 31.1514V39.0294H97.2168V24.7814H99.5828V26.8094C100.051 26.0814 100.684 25.5181 101.481 25.1194C102.296 24.7208 103.188 24.5214 104.159 24.5214ZM116.734 26.7314V35.1294C116.734 35.8228 116.881 36.3168 117.176 36.6114C117.47 36.8888 117.982 37.0274 118.71 37.0274H120.452V39.0294H118.32C117.002 39.0294 116.014 38.7261 115.356 38.1194C114.697 37.5128 114.368 36.5161 114.368 35.1294V26.7314H112.522V24.7814H114.368V21.1934H116.734V24.7814H120.452V26.7314H116.734ZM124.54 22.4674C124.09 22.4674 123.708 22.3114 123.396 21.9994C123.084 21.6874 122.928 21.3061 122.928 20.8554C122.928 20.4048 123.084 20.0234 123.396 19.7114C123.708 19.3994 124.09 19.2434 124.54 19.2434C124.974 19.2434 125.338 19.3994 125.632 19.7114C125.944 20.0234 126.1 20.4048 126.1 20.8554C126.1 21.3061 125.944 21.6874 125.632 21.9994C125.338 22.3114 124.974 22.4674 124.54 22.4674ZM125.684 24.7814V39.0294H123.318V24.7814H125.684ZM136.659 24.5214C138.392 24.5214 139.796 25.0501 140.871 26.1074C141.946 27.1474 142.483 28.6554 142.483 30.6314V39.0294H140.143V30.9694C140.143 29.5481 139.788 28.4648 139.077 27.7194C138.366 26.9568 137.396 26.5754 136.165 26.5754C134.917 26.5754 133.92 26.9654 133.175 27.7454C132.447 28.5254 132.083 29.6608 132.083 31.1514V39.0294H129.717V24.7814H132.083V26.8094C132.551 26.0814 133.184 25.5181 133.981 25.1194C134.796 24.7208 135.688 24.5214 136.659 24.5214ZM158.984 24.7814V39.0294H156.618V36.9234C156.167 37.6514 155.534 38.2234 154.72 38.6394C153.922 39.0381 153.038 39.2374 152.068 39.2374C150.958 39.2374 149.962 39.0121 149.078 38.5614C148.194 38.0934 147.492 37.4001 146.972 36.4814C146.469 35.5628 146.218 34.4448 146.218 33.1274V24.7814H148.558V32.8154C148.558 34.2194 148.913 35.3028 149.624 36.0654C150.334 36.8108 151.305 37.1834 152.536 37.1834C153.801 37.1834 154.798 36.7934 155.526 36.0134C156.254 35.2334 156.618 34.0981 156.618 32.6074V24.7814H158.984ZM175.979 31.3594C175.979 31.8101 175.953 32.2868 175.901 32.7894H164.513C164.599 34.1934 165.076 35.2941 165.943 36.0914C166.827 36.8714 167.893 37.2614 169.141 37.2614C170.163 37.2614 171.013 37.0274 171.689 36.5594C172.382 36.0741 172.867 35.4328 173.145 34.6354H175.693C175.311 36.0048 174.549 37.1228 173.405 37.9894C172.261 38.8388 170.839 39.2634 169.141 39.2634C167.789 39.2634 166.575 38.9601 165.501 38.3534C164.443 37.7468 163.611 36.8888 163.005 35.7794C162.398 34.6528 162.095 33.3528 162.095 31.8794C162.095 30.4061 162.389 29.1148 162.979 28.0054C163.568 26.8961 164.391 26.0468 165.449 25.4574C166.523 24.8508 167.754 24.5474 169.141 24.5474C170.493 24.5474 171.689 24.8421 172.729 25.4314C173.769 26.0208 174.566 26.8354 175.121 27.8754C175.693 28.8981 175.979 30.0594 175.979 31.3594ZM173.535 30.8654C173.535 29.9641 173.335 29.1928 172.937 28.5514C172.538 27.8928 171.992 27.3988 171.299 27.0694C170.623 26.7228 169.869 26.5494 169.037 26.5494C167.841 26.5494 166.818 26.9308 165.969 27.6934C165.137 28.4561 164.66 29.5134 164.539 30.8654H173.535Z" fill="white"/>
</svg>
