<svg width="320" height="61" viewBox="0 0 320 61" fill="none" xmlns="http://www.w3.org/2000/svg">
<rect y="0.749268" width="320" height="60" rx="10" fill="#50AF47"/>
<path d="M80.704 23.3053V29.8293H87.816V31.9293H80.704V38.6493H88.656V40.7493H78.156V21.2053H88.656V23.3053H80.704ZM99.9875 25.1253C101.854 25.1253 103.366 25.6946 104.523 26.8333C105.681 27.9533 106.259 29.5773 106.259 31.7053V40.7493H103.739V32.0693C103.739 30.5386 103.357 29.3719 102.591 28.5693C101.826 27.7479 100.781 27.3373 99.4555 27.3373C98.1115 27.3373 97.0381 27.7573 96.2355 28.5973C95.4515 29.4373 95.0595 30.6599 95.0595 32.2653V40.7493H92.5115V25.4053H95.0595V27.5893C95.5635 26.8053 96.2448 26.1986 97.1035 25.7693C97.9808 25.3399 98.9421 25.1253 99.9875 25.1253ZM109.47 33.0213C109.47 31.4533 109.787 30.0813 110.422 28.9053C111.056 27.7106 111.924 26.7866 113.026 26.1333C114.146 25.4799 115.396 25.1533 116.778 25.1533C117.972 25.1533 119.083 25.4333 120.11 25.9933C121.136 26.5346 121.92 27.2533 122.462 28.1493V20.0293H125.038V40.7493H122.462V37.8653C121.958 38.7799 121.211 39.5359 120.222 40.1333C119.232 40.7119 118.075 41.0013 116.75 41.0013C115.387 41.0013 114.146 40.6653 113.026 39.9933C111.924 39.3213 111.056 38.3786 110.422 37.1653C109.787 35.9519 109.47 34.5706 109.47 33.0213ZM122.462 33.0493C122.462 31.8919 122.228 30.8839 121.762 30.0253C121.295 29.1666 120.66 28.5133 119.858 28.0653C119.074 27.5986 118.206 27.3653 117.254 27.3653C116.302 27.3653 115.434 27.5893 114.65 28.0373C113.866 28.4853 113.24 29.1386 112.774 29.9973C112.307 30.8559 112.074 31.8639 112.074 33.0213C112.074 34.1973 112.307 35.2239 112.774 36.1013C113.24 36.9599 113.866 37.6226 114.65 38.0893C115.434 38.5373 116.302 38.7613 117.254 38.7613C118.206 38.7613 119.074 38.5373 119.858 38.0893C120.66 37.6226 121.295 36.9599 121.762 36.1013C122.228 35.2239 122.462 34.2066 122.462 33.0493ZM139.356 23.3053V29.8293H146.468V31.9293H139.356V38.6493H147.308V40.7493H136.808V21.2053H147.308V23.3053H139.356ZM153.712 28.2333C154.216 27.3559 154.962 26.6279 155.952 26.0493C156.96 25.4519 158.126 25.1533 159.452 25.1533C160.814 25.1533 162.046 25.4799 163.148 26.1333C164.268 26.7866 165.145 27.7106 165.78 28.9053C166.414 30.0813 166.732 31.4533 166.732 33.0213C166.732 34.5706 166.414 35.9519 165.78 37.1653C165.145 38.3786 164.268 39.3213 163.148 39.9933C162.046 40.6653 160.814 41.0013 159.452 41.0013C158.145 41.0013 156.988 40.7119 155.98 40.1333C154.99 39.5359 154.234 38.7986 153.712 37.9213V48.0293H151.164V25.4053H153.712V28.2333ZM164.128 33.0213C164.128 31.8639 163.894 30.8559 163.428 29.9973C162.961 29.1386 162.326 28.4853 161.524 28.0373C160.74 27.5893 159.872 27.3653 158.92 27.3653C157.986 27.3653 157.118 27.5986 156.316 28.0653C155.532 28.5133 154.897 29.1759 154.412 30.0533C153.945 30.9119 153.712 31.9106 153.712 33.0493C153.712 34.2066 153.945 35.2239 154.412 36.1013C154.897 36.9599 155.532 37.6226 156.316 38.0893C157.118 38.5373 157.986 38.7613 158.92 38.7613C159.872 38.7613 160.74 38.5373 161.524 38.0893C162.326 37.6226 162.961 36.9599 163.428 36.1013C163.894 35.2239 164.128 34.1973 164.128 33.0213ZM171.402 22.9133C170.916 22.9133 170.506 22.7453 170.17 22.4093C169.834 22.0733 169.666 21.6626 169.666 21.1773C169.666 20.6919 169.834 20.2813 170.17 19.9453C170.506 19.6093 170.916 19.4413 171.402 19.4413C171.868 19.4413 172.26 19.6093 172.578 19.9453C172.914 20.2813 173.082 20.6919 173.082 21.1773C173.082 21.6626 172.914 22.0733 172.578 22.4093C172.26 22.7453 171.868 22.9133 171.402 22.9133ZM172.634 25.4053V40.7493H170.086V25.4053H172.634ZM182.408 41.0013C181.232 41.0013 180.178 40.8053 179.244 40.4133C178.311 40.0026 177.574 39.4426 177.032 38.7333C176.491 38.0053 176.192 37.1746 176.136 36.2413H178.768C178.843 37.0066 179.198 37.6319 179.832 38.1173C180.486 38.6026 181.335 38.8453 182.38 38.8453C183.351 38.8453 184.116 38.6306 184.676 38.2013C185.236 37.7719 185.516 37.2306 185.516 36.5773C185.516 35.9053 185.218 35.4106 184.62 35.0933C184.023 34.7573 183.099 34.4306 181.848 34.1133C180.71 33.8146 179.776 33.5159 179.048 33.2173C178.339 32.8999 177.723 32.4426 177.2 31.8453C176.696 31.2293 176.444 30.4266 176.444 29.4373C176.444 28.6533 176.678 27.9346 177.144 27.2813C177.611 26.6279 178.274 26.1146 179.132 25.7413C179.991 25.3493 180.971 25.1533 182.072 25.1533C183.771 25.1533 185.143 25.5826 186.188 26.4413C187.234 27.2999 187.794 28.4759 187.868 29.9693H185.32C185.264 29.1666 184.938 28.5226 184.34 28.0373C183.762 27.5519 182.978 27.3093 181.988 27.3093C181.074 27.3093 180.346 27.5053 179.804 27.8973C179.263 28.2893 178.992 28.8026 178.992 29.4373C178.992 29.9413 179.151 30.3613 179.468 30.6973C179.804 31.0146 180.215 31.2759 180.7 31.4813C181.204 31.6679 181.895 31.8826 182.772 32.1253C183.874 32.4239 184.77 32.7226 185.46 33.0213C186.151 33.3013 186.739 33.7306 187.224 34.3093C187.728 34.8879 187.99 35.6439 188.008 36.5773C188.008 37.4173 187.775 38.1733 187.308 38.8453C186.842 39.5173 186.179 40.0493 185.32 40.4413C184.48 40.8146 183.51 41.0013 182.408 41.0013ZM198.297 41.0013C196.86 41.0013 195.553 40.6746 194.377 40.0213C193.22 39.3679 192.305 38.4439 191.633 37.2493C190.98 36.0359 190.653 34.6359 190.653 33.0493C190.653 31.4813 190.989 30.0999 191.661 28.9053C192.352 27.6919 193.285 26.7679 194.461 26.1333C195.637 25.4799 196.953 25.1533 198.409 25.1533C199.865 25.1533 201.181 25.4799 202.357 26.1333C203.533 26.7679 204.457 27.6826 205.129 28.8773C205.82 30.0719 206.165 31.4626 206.165 33.0493C206.165 34.6359 205.811 36.0359 205.101 37.2493C204.411 38.4439 203.468 39.3679 202.273 40.0213C201.079 40.6746 199.753 41.0013 198.297 41.0013ZM198.297 38.7613C199.212 38.7613 200.071 38.5466 200.873 38.1173C201.676 37.6879 202.32 37.0439 202.805 36.1853C203.309 35.3266 203.561 34.2813 203.561 33.0493C203.561 31.8173 203.319 30.7719 202.833 29.9133C202.348 29.0546 201.713 28.4199 200.929 28.0093C200.145 27.5799 199.296 27.3653 198.381 27.3653C197.448 27.3653 196.589 27.5799 195.805 28.0093C195.04 28.4199 194.424 29.0546 193.957 29.9133C193.491 30.7719 193.257 31.8173 193.257 33.0493C193.257 34.2999 193.481 35.3546 193.929 36.2133C194.396 37.0719 195.012 37.7159 195.777 38.1453C196.543 38.5559 197.383 38.7613 198.297 38.7613ZM208.563 33.0213C208.563 31.4533 208.881 30.0813 209.515 28.9053C210.15 27.7106 211.018 26.7866 212.119 26.1333C213.239 25.4799 214.49 25.1533 215.871 25.1533C217.066 25.1533 218.177 25.4333 219.203 25.9933C220.23 26.5346 221.014 27.2533 221.555 28.1493V20.0293H224.131V40.7493H221.555V37.8653C221.051 38.7799 220.305 39.5359 219.315 40.1333C218.326 40.7119 217.169 41.0013 215.843 41.0013C214.481 41.0013 213.239 40.6653 212.119 39.9933C211.018 39.3213 210.15 38.3786 209.515 37.1653C208.881 35.9519 208.563 34.5706 208.563 33.0213ZM221.555 33.0493C221.555 31.8919 221.322 30.8839 220.855 30.0253C220.389 29.1666 219.754 28.5133 218.951 28.0653C218.167 27.5986 217.299 27.3653 216.347 27.3653C215.395 27.3653 214.527 27.5893 213.743 28.0373C212.959 28.4853 212.334 29.1386 211.867 29.9973C211.401 30.8559 211.167 31.8639 211.167 33.0213C211.167 34.1973 211.401 35.2239 211.867 36.1013C212.334 36.9599 212.959 37.6226 213.743 38.0893C214.527 38.5373 215.395 38.7613 216.347 38.7613C217.299 38.7613 218.167 38.5373 218.951 38.0893C219.754 37.6226 220.389 36.9599 220.855 36.1013C221.322 35.2239 221.555 34.2066 221.555 33.0493ZM242.437 32.4893C242.437 32.9746 242.409 33.4879 242.353 34.0293H230.089C230.183 35.5413 230.696 36.7266 231.629 37.5853C232.581 38.4253 233.729 38.8453 235.073 38.8453C236.175 38.8453 237.089 38.5933 237.817 38.0893C238.564 37.5666 239.087 36.8759 239.385 36.0173H242.129C241.719 37.4919 240.897 38.6959 239.665 39.6293C238.433 40.5439 236.903 41.0013 235.073 41.0013C233.617 41.0013 232.311 40.6746 231.153 40.0213C230.015 39.3679 229.119 38.4439 228.465 37.2493C227.812 36.0359 227.485 34.6359 227.485 33.0493C227.485 31.4626 227.803 30.0719 228.437 28.8773C229.072 27.6826 229.959 26.7679 231.097 26.1333C232.255 25.4799 233.58 25.1533 235.073 25.1533C236.529 25.1533 237.817 25.4706 238.937 26.1053C240.057 26.7399 240.916 27.6173 241.513 28.7373C242.129 29.8386 242.437 31.0893 242.437 32.4893ZM239.805 31.9573C239.805 30.9866 239.591 30.1559 239.161 29.4653C238.732 28.7559 238.144 28.2239 237.397 27.8693C236.669 27.4959 235.857 27.3093 234.961 27.3093C233.673 27.3093 232.572 27.7199 231.657 28.5413C230.761 29.3626 230.248 30.5013 230.117 31.9573H239.805Z" fill="white"/>
</svg>
