<svg width="321" height="60" viewBox="0 0 321 60" fill="none" xmlns="http://www.w3.org/2000/svg">
    <rect x="0.763184" width="320" height="60" rx="10" fill="#0E2B63" />
    <path
        d="M87.1312 22.802V28.86H93.7352V30.81H87.1312V37.05H94.5152V39H84.7652V20.852H94.5152V22.802H87.1312ZM105.037 24.492C106.771 24.492 108.175 25.0207 109.249 26.078C110.324 27.118 110.861 28.626 110.861 30.602V39H108.521V30.94C108.521 29.5187 108.166 28.4353 107.455 27.69C106.745 26.9273 105.774 26.546 104.543 26.546C103.295 26.546 102.299 26.936 101.553 27.716C100.825 28.496 100.461 29.6313 100.461 31.122V39H98.0953V24.752H100.461V26.78C100.929 26.052 101.562 25.4887 102.359 25.09C103.174 24.6913 104.067 24.492 105.037 24.492ZM113.842 31.824C113.842 30.368 114.137 29.094 114.726 28.002C115.315 26.8927 116.121 26.0347 117.144 25.428C118.184 24.8213 119.345 24.518 120.628 24.518C121.737 24.518 122.769 24.778 123.722 25.298C124.675 25.8007 125.403 26.468 125.906 27.3V19.76H128.298V39H125.906V36.322C125.438 37.1713 124.745 37.8733 123.826 38.428C122.907 38.9653 121.833 39.234 120.602 39.234C119.337 39.234 118.184 38.922 117.144 38.298C116.121 37.674 115.315 36.7987 114.726 35.672C114.137 34.5453 113.842 33.2627 113.842 31.824ZM125.906 31.85C125.906 30.7753 125.689 29.8393 125.256 29.042C124.823 28.2447 124.233 27.638 123.488 27.222C122.76 26.7887 121.954 26.572 121.07 26.572C120.186 26.572 119.38 26.78 118.652 27.196C117.924 27.612 117.343 28.2187 116.91 29.016C116.477 29.8133 116.26 30.7493 116.26 31.824C116.26 32.916 116.477 33.8693 116.91 34.684C117.343 35.4813 117.924 36.0967 118.652 36.53C119.38 36.946 120.186 37.154 121.07 37.154C121.954 37.154 122.76 36.946 123.488 36.53C124.233 36.0967 124.823 35.4813 125.256 34.684C125.689 33.8693 125.906 32.9247 125.906 31.85ZM141.594 22.802V28.86H148.198V30.81H141.594V37.05H148.978V39H139.228V20.852H148.978V22.802H141.594ZM154.924 27.378C155.392 26.5633 156.085 25.8873 157.004 25.35C157.94 24.7953 159.023 24.518 160.254 24.518C161.519 24.518 162.663 24.8213 163.686 25.428C164.726 26.0347 165.541 26.8927 166.13 28.002C166.719 29.094 167.014 30.368 167.014 31.824C167.014 33.2627 166.719 34.5453 166.13 35.672C165.541 36.7987 164.726 37.674 163.686 38.298C162.663 38.922 161.519 39.234 160.254 39.234C159.041 39.234 157.966 38.9653 157.03 38.428C156.111 37.8733 155.409 37.1887 154.924 36.374V45.76H152.558V24.752H154.924V27.378ZM164.596 31.824C164.596 30.7493 164.379 29.8133 163.946 29.016C163.513 28.2187 162.923 27.612 162.178 27.196C161.45 26.78 160.644 26.572 159.76 26.572C158.893 26.572 158.087 26.7887 157.342 27.222C156.614 27.638 156.025 28.2533 155.574 29.068C155.141 29.8653 154.924 30.7927 154.924 31.85C154.924 32.9247 155.141 33.8693 155.574 34.684C156.025 35.4813 156.614 36.0967 157.342 36.53C158.087 36.946 158.893 37.154 159.76 37.154C160.644 37.154 161.45 36.946 162.178 36.53C162.923 36.0967 163.513 35.4813 163.946 34.684C164.379 33.8693 164.596 32.916 164.596 31.824ZM171.35 22.438C170.9 22.438 170.518 22.282 170.206 21.97C169.894 21.658 169.738 21.2767 169.738 20.826C169.738 20.3753 169.894 19.994 170.206 19.682C170.518 19.37 170.9 19.214 171.35 19.214C171.784 19.214 172.148 19.37 172.442 19.682C172.754 19.994 172.91 20.3753 172.91 20.826C172.91 21.2767 172.754 21.658 172.442 21.97C172.148 22.282 171.784 22.438 171.35 22.438ZM172.494 24.752V39H170.128V24.752H172.494ZM181.571 39.234C180.479 39.234 179.5 39.052 178.633 38.688C177.766 38.3067 177.082 37.7867 176.579 37.128C176.076 36.452 175.799 35.6807 175.747 34.814H178.191C178.26 35.5247 178.59 36.1053 179.179 36.556C179.786 37.0067 180.574 37.232 181.545 37.232C182.446 37.232 183.157 37.0327 183.677 36.634C184.197 36.2353 184.457 35.7327 184.457 35.126C184.457 34.502 184.18 34.0427 183.625 33.748C183.07 33.436 182.212 33.1327 181.051 32.838C179.994 32.5607 179.127 32.2833 178.451 32.006C177.792 31.7113 177.22 31.2867 176.735 30.732C176.267 30.16 176.033 29.4147 176.033 28.496C176.033 27.768 176.25 27.1007 176.683 26.494C177.116 25.8873 177.732 25.4107 178.529 25.064C179.326 24.7 180.236 24.518 181.259 24.518C182.836 24.518 184.11 24.9167 185.081 25.714C186.052 26.5113 186.572 27.6033 186.641 28.99H184.275C184.223 28.2447 183.92 27.6467 183.365 27.196C182.828 26.7453 182.1 26.52 181.181 26.52C180.332 26.52 179.656 26.702 179.153 27.066C178.65 27.43 178.399 27.9067 178.399 28.496C178.399 28.964 178.546 29.354 178.841 29.666C179.153 29.9607 179.534 30.2033 179.985 30.394C180.453 30.5673 181.094 30.7667 181.909 30.992C182.932 31.2693 183.764 31.5467 184.405 31.824C185.046 32.084 185.592 32.4827 186.043 33.02C186.511 33.5573 186.754 34.2593 186.771 35.126C186.771 35.906 186.554 36.608 186.121 37.232C185.688 37.856 185.072 38.35 184.275 38.714C183.495 39.0607 182.594 39.234 181.571 39.234ZM196.325 39.234C194.99 39.234 193.777 38.9307 192.685 38.324C191.61 37.7173 190.761 36.8593 190.137 35.75C189.53 34.6233 189.227 33.3233 189.227 31.85C189.227 30.394 189.539 29.1113 190.163 28.002C190.804 26.8753 191.671 26.0173 192.763 25.428C193.855 24.8213 195.077 24.518 196.429 24.518C197.781 24.518 199.003 24.8213 200.095 25.428C201.187 26.0173 202.045 26.8667 202.669 27.976C203.31 29.0853 203.631 30.3767 203.631 31.85C203.631 33.3233 203.302 34.6233 202.643 35.75C202.002 36.8593 201.126 37.7173 200.017 38.324C198.908 38.9307 197.677 39.234 196.325 39.234ZM196.325 37.154C197.174 37.154 197.972 36.9547 198.717 36.556C199.462 36.1573 200.06 35.5593 200.511 34.762C200.979 33.9647 201.213 32.994 201.213 31.85C201.213 30.706 200.988 29.7353 200.537 28.938C200.086 28.1407 199.497 27.5513 198.769 27.17C198.041 26.7713 197.252 26.572 196.403 26.572C195.536 26.572 194.739 26.7713 194.011 27.17C193.3 27.5513 192.728 28.1407 192.295 28.938C191.862 29.7353 191.645 30.706 191.645 31.85C191.645 33.0113 191.853 33.9907 192.269 34.788C192.702 35.5853 193.274 36.1833 193.985 36.582C194.696 36.9633 195.476 37.154 196.325 37.154ZM205.858 31.824C205.858 30.368 206.152 29.094 206.742 28.002C207.331 26.8927 208.137 26.0347 209.16 25.428C210.2 24.8213 211.361 24.518 212.644 24.518C213.753 24.518 214.784 24.778 215.738 25.298C216.691 25.8007 217.419 26.468 217.922 27.3V19.76H220.314V39H217.922V36.322C217.454 37.1713 216.76 37.8733 215.842 38.428C214.923 38.9653 213.848 39.234 212.618 39.234C211.352 39.234 210.2 38.922 209.16 38.298C208.137 37.674 207.331 36.7987 206.742 35.672C206.152 34.5453 205.858 33.2627 205.858 31.824ZM217.922 31.85C217.922 30.7753 217.705 29.8393 217.272 29.042C216.838 28.2447 216.249 27.638 215.504 27.222C214.776 26.7887 213.97 26.572 213.086 26.572C212.202 26.572 211.396 26.78 210.668 27.196C209.94 27.612 209.359 28.2187 208.926 29.016C208.492 29.8133 208.276 30.7493 208.276 31.824C208.276 32.916 208.492 33.8693 208.926 34.684C209.359 35.4813 209.94 36.0967 210.668 36.53C211.396 36.946 212.202 37.154 213.086 37.154C213.97 37.154 214.776 36.946 215.504 36.53C216.249 36.0967 216.838 35.4813 217.272 34.684C217.705 33.8693 217.922 32.9247 217.922 31.85ZM237.312 31.33C237.312 31.7807 237.286 32.2573 237.234 32.76H225.846C225.933 34.164 226.409 35.2647 227.276 36.062C228.16 36.842 229.226 37.232 230.474 37.232C231.497 37.232 232.346 36.998 233.022 36.53C233.715 36.0447 234.201 35.4033 234.478 34.606H237.026C236.645 35.9753 235.882 37.0933 234.738 37.96C233.594 38.8093 232.173 39.234 230.474 39.234C229.122 39.234 227.909 38.9307 226.834 38.324C225.777 37.7173 224.945 36.8593 224.338 35.75C223.731 34.6233 223.428 33.3233 223.428 31.85C223.428 30.3767 223.723 29.0853 224.312 27.976C224.901 26.8667 225.725 26.0173 226.782 25.428C227.857 24.8213 229.087 24.518 230.474 24.518C231.826 24.518 233.022 24.8127 234.062 25.402C235.102 25.9913 235.899 26.806 236.454 27.846C237.026 28.8687 237.312 30.03 237.312 31.33ZM234.868 30.836C234.868 29.9347 234.669 29.1633 234.27 28.522C233.871 27.8633 233.325 27.3693 232.632 27.04C231.956 26.6933 231.202 26.52 230.37 26.52C229.174 26.52 228.151 26.9013 227.302 27.664C226.47 28.4267 225.993 29.484 225.872 30.836H234.868Z"
        fill="white" />
</svg>
    