<svg width="275" height="60" viewBox="0 0 275 60" fill="none" xmlns="http://www.w3.org/2000/svg">
<rect width="275" height="60" rx="10" fill="#0E2B63"/>
<path d="M44.748 39.182C43.552 39.182 42.4773 38.974 41.524 38.558C40.588 38.1247 39.8513 37.5353 39.314 36.79C38.7767 36.0273 38.4993 35.152 38.482 34.164H41.004C41.0907 35.0133 41.4373 35.7327 42.044 36.322C42.668 36.894 43.5693 37.18 44.748 37.18C45.8747 37.18 46.7587 36.9027 47.4 36.348C48.0587 35.776 48.388 35.048 48.388 34.164C48.388 33.4707 48.1973 32.9073 47.816 32.474C47.4347 32.0407 46.958 31.7113 46.386 31.486C45.814 31.2607 45.0427 31.018 44.072 30.758C42.876 30.446 41.914 30.134 41.186 29.822C40.4753 29.51 39.86 29.0247 39.34 28.366C38.8373 27.69 38.586 26.7887 38.586 25.662C38.586 24.674 38.8373 23.7987 39.34 23.036C39.8427 22.2733 40.5447 21.684 41.446 21.268C42.3647 20.852 43.4133 20.644 44.592 20.644C46.2907 20.644 47.6773 21.0687 48.752 21.918C49.844 22.7673 50.4593 23.894 50.598 25.298H47.998C47.9113 24.6047 47.5473 23.998 46.906 23.478C46.2647 22.9407 45.4153 22.672 44.358 22.672C43.37 22.672 42.564 22.932 41.94 23.452C41.316 23.9547 41.004 24.6653 41.004 25.584C41.004 26.2427 41.186 26.78 41.55 27.196C41.9313 27.612 42.3907 27.9327 42.928 28.158C43.4827 28.366 44.254 28.6087 45.242 28.886C46.438 29.2153 47.4 29.5447 48.128 29.874C48.856 30.186 49.48 30.68 50 31.356C50.52 32.0147 50.78 32.916 50.78 34.06C50.78 34.944 50.546 35.776 50.078 36.556C49.61 37.336 48.9167 37.9687 47.998 38.454C47.0793 38.9393 45.996 39.182 44.748 39.182ZM57.1478 26.702V35.1C57.1478 35.7933 57.2951 36.2873 57.5898 36.582C57.8844 36.8593 58.3958 36.998 59.1238 36.998H60.8658V39H58.7338C57.4164 39 56.4284 38.6967 55.7698 38.09C55.1111 37.4833 54.7818 36.4867 54.7818 35.1V26.702H52.9358V24.752H54.7818V21.164H57.1478V24.752H60.8658V26.702H57.1478ZM62.8485 31.824C62.8485 30.368 63.1431 29.094 63.7325 28.002C64.3218 26.8927 65.1278 26.0347 66.1505 25.428C67.1905 24.8213 68.3431 24.518 69.6085 24.518C70.8565 24.518 71.9398 24.7867 72.8585 25.324C73.7771 25.8613 74.4618 26.5373 74.9125 27.352V24.752H77.3045V39H74.9125V36.348C74.4445 37.18 73.7425 37.8733 72.8065 38.428C71.8878 38.9653 70.8131 39.234 69.5825 39.234C68.3171 39.234 67.1731 38.922 66.1505 38.298C65.1278 37.674 64.3218 36.7987 63.7325 35.672C63.1431 34.5453 62.8485 33.2627 62.8485 31.824ZM74.9125 31.85C74.9125 30.7753 74.6958 29.8393 74.2625 29.042C73.8291 28.2447 73.2398 27.638 72.4945 27.222C71.7665 26.7887 70.9605 26.572 70.0765 26.572C69.1925 26.572 68.3865 26.78 67.6585 27.196C66.9305 27.612 66.3498 28.2187 65.9165 29.016C65.4831 29.8133 65.2665 30.7493 65.2665 31.824C65.2665 32.916 65.4831 33.8693 65.9165 34.684C66.3498 35.4813 66.9305 36.0967 67.6585 36.53C68.3865 36.946 69.1925 37.154 70.0765 37.154C70.9605 37.154 71.7665 36.946 72.4945 36.53C73.2398 36.0967 73.8291 35.4813 74.2625 34.684C74.6958 33.8693 74.9125 32.9247 74.9125 31.85ZM83.6688 27.066C84.0848 26.2513 84.6741 25.6187 85.4368 25.168C86.2168 24.7173 87.1614 24.492 88.2708 24.492V26.936H87.6468C84.9948 26.936 83.6688 28.3747 83.6688 31.252V39H81.3028V24.752H83.6688V27.066ZM93.888 26.702V35.1C93.888 35.7933 94.0353 36.2873 94.33 36.582C94.6247 36.8593 95.136 36.998 95.864 36.998H97.606V39H95.474C94.1567 39 93.1687 38.6967 92.51 38.09C91.8513 37.4833 91.522 36.4867 91.522 35.1V26.702H89.676V24.752H91.522V21.164H93.888V24.752H97.606V26.702H93.888ZM109.77 22.802V28.86H116.374V30.81H109.77V37.05H117.154V39H107.404V20.852H117.154V22.802H109.77ZM123.1 27.378C123.568 26.5633 124.262 25.8873 125.18 25.35C126.116 24.7953 127.2 24.518 128.43 24.518C129.696 24.518 130.84 24.8213 131.862 25.428C132.902 26.0347 133.717 26.8927 134.306 28.002C134.896 29.094 135.19 30.368 135.19 31.824C135.19 33.2627 134.896 34.5453 134.306 35.672C133.717 36.7987 132.902 37.674 131.862 38.298C130.84 38.922 129.696 39.234 128.43 39.234C127.217 39.234 126.142 38.9653 125.206 38.428C124.288 37.8733 123.586 37.1887 123.1 36.374V45.76H120.734V24.752H123.1V27.378ZM132.772 31.824C132.772 30.7493 132.556 29.8133 132.122 29.016C131.689 28.2187 131.1 27.612 130.354 27.196C129.626 26.78 128.82 26.572 127.936 26.572C127.07 26.572 126.264 26.7887 125.518 27.222C124.79 27.638 124.201 28.2533 123.75 29.068C123.317 29.8653 123.1 30.7927 123.1 31.85C123.1 32.9247 123.317 33.8693 123.75 34.684C124.201 35.4813 124.79 36.0967 125.518 36.53C126.264 36.946 127.07 37.154 127.936 37.154C128.82 37.154 129.626 36.946 130.354 36.53C131.1 36.0967 131.689 35.4813 132.122 34.684C132.556 33.8693 132.772 32.916 132.772 31.824ZM139.527 22.438C139.076 22.438 138.695 22.282 138.383 21.97C138.071 21.658 137.915 21.2767 137.915 20.826C137.915 20.3753 138.071 19.994 138.383 19.682C138.695 19.37 139.076 19.214 139.527 19.214C139.96 19.214 140.324 19.37 140.619 19.682C140.931 19.994 141.087 20.3753 141.087 20.826C141.087 21.2767 140.931 21.658 140.619 21.97C140.324 22.282 139.96 22.438 139.527 22.438ZM140.671 24.752V39H138.305V24.752H140.671ZM149.747 39.234C148.655 39.234 147.676 39.052 146.809 38.688C145.943 38.3067 145.258 37.7867 144.755 37.128C144.253 36.452 143.975 35.6807 143.923 34.814H146.367C146.437 35.5247 146.766 36.1053 147.355 36.556C147.962 37.0067 148.751 37.232 149.721 37.232C150.623 37.232 151.333 37.0327 151.853 36.634C152.373 36.2353 152.633 35.7327 152.633 35.126C152.633 34.502 152.356 34.0427 151.801 33.748C151.247 33.436 150.389 33.1327 149.227 32.838C148.17 32.5607 147.303 32.2833 146.627 32.006C145.969 31.7113 145.397 31.2867 144.911 30.732C144.443 30.16 144.209 29.4147 144.209 28.496C144.209 27.768 144.426 27.1007 144.859 26.494C145.293 25.8873 145.908 25.4107 146.705 25.064C147.503 24.7 148.413 24.518 149.435 24.518C151.013 24.518 152.287 24.9167 153.257 25.714C154.228 26.5113 154.748 27.6033 154.817 28.99H152.451C152.399 28.2447 152.096 27.6467 151.541 27.196C151.004 26.7453 150.276 26.52 149.357 26.52C148.508 26.52 147.832 26.702 147.329 27.066C146.827 27.43 146.575 27.9067 146.575 28.496C146.575 28.964 146.723 29.354 147.017 29.666C147.329 29.9607 147.711 30.2033 148.161 30.394C148.629 30.5673 149.271 30.7667 150.085 30.992C151.108 31.2693 151.94 31.5467 152.581 31.824C153.223 32.084 153.769 32.4827 154.219 33.02C154.687 33.5573 154.93 34.2593 154.947 35.126C154.947 35.906 154.731 36.608 154.297 37.232C153.864 37.856 153.249 38.35 152.451 38.714C151.671 39.0607 150.77 39.234 149.747 39.234ZM164.501 39.234C163.166 39.234 161.953 38.9307 160.861 38.324C159.786 37.7173 158.937 36.8593 158.313 35.75C157.706 34.6233 157.403 33.3233 157.403 31.85C157.403 30.394 157.715 29.1113 158.339 28.002C158.98 26.8753 159.847 26.0173 160.939 25.428C162.031 24.8213 163.253 24.518 164.605 24.518C165.957 24.518 167.179 24.8213 168.271 25.428C169.363 26.0173 170.221 26.8667 170.845 27.976C171.486 29.0853 171.807 30.3767 171.807 31.85C171.807 33.3233 171.478 34.6233 170.819 35.75C170.178 36.8593 169.302 37.7173 168.193 38.324C167.084 38.9307 165.853 39.234 164.501 39.234ZM164.501 37.154C165.35 37.154 166.148 36.9547 166.893 36.556C167.638 36.1573 168.236 35.5593 168.687 34.762C169.155 33.9647 169.389 32.994 169.389 31.85C169.389 30.706 169.164 29.7353 168.713 28.938C168.262 28.1407 167.673 27.5513 166.945 27.17C166.217 26.7713 165.428 26.572 164.579 26.572C163.712 26.572 162.915 26.7713 162.187 27.17C161.476 27.5513 160.904 28.1407 160.471 28.938C160.038 29.7353 159.821 30.706 159.821 31.85C159.821 33.0113 160.029 33.9907 160.445 34.788C160.878 35.5853 161.45 36.1833 162.161 36.582C162.872 36.9633 163.652 37.154 164.501 37.154ZM174.034 31.824C174.034 30.368 174.329 29.094 174.918 28.002C175.507 26.8927 176.313 26.0347 177.336 25.428C178.376 24.8213 179.537 24.518 180.82 24.518C181.929 24.518 182.961 24.778 183.914 25.298C184.867 25.8007 185.595 26.468 186.098 27.3V19.76H188.49V39H186.098V36.322C185.63 37.1713 184.937 37.8733 184.018 38.428C183.099 38.9653 182.025 39.234 180.794 39.234C179.529 39.234 178.376 38.922 177.336 38.298C176.313 37.674 175.507 36.7987 174.918 35.672C174.329 34.5453 174.034 33.2627 174.034 31.824ZM186.098 31.85C186.098 30.7753 185.881 29.8393 185.448 29.042C185.015 28.2447 184.425 27.638 183.68 27.222C182.952 26.7887 182.146 26.572 181.262 26.572C180.378 26.572 179.572 26.78 178.844 27.196C178.116 27.612 177.535 28.2187 177.102 29.016C176.669 29.8133 176.452 30.7493 176.452 31.824C176.452 32.916 176.669 33.8693 177.102 34.684C177.535 35.4813 178.116 36.0967 178.844 36.53C179.572 36.946 180.378 37.154 181.262 37.154C182.146 37.154 182.952 36.946 183.68 36.53C184.425 36.0967 185.015 35.4813 185.448 34.684C185.881 33.8693 186.098 32.9247 186.098 31.85ZM205.488 31.33C205.488 31.7807 205.462 32.2573 205.41 32.76H194.022C194.109 34.164 194.586 35.2647 195.452 36.062C196.336 36.842 197.402 37.232 198.65 37.232C199.673 37.232 200.522 36.998 201.198 36.53C201.892 36.0447 202.377 35.4033 202.654 34.606H205.202C204.821 35.9753 204.058 37.0933 202.914 37.96C201.77 38.8093 200.349 39.234 198.65 39.234C197.298 39.234 196.085 38.9307 195.01 38.324C193.953 37.7173 193.121 36.8593 192.514 35.75C191.908 34.6233 191.604 33.3233 191.604 31.85C191.604 30.3767 191.899 29.0853 192.488 27.976C193.078 26.8667 193.901 26.0173 194.958 25.428C196.033 24.8213 197.264 24.518 198.65 24.518C200.002 24.518 201.198 24.8127 202.238 25.402C203.278 25.9913 204.076 26.806 204.63 27.846C205.202 28.8687 205.488 30.03 205.488 31.33ZM203.044 30.836C203.044 29.9347 202.845 29.1633 202.446 28.522C202.048 27.8633 201.502 27.3693 200.808 27.04C200.132 26.6933 199.378 26.52 198.546 26.52C197.35 26.52 196.328 26.9013 195.478 27.664C194.646 28.4267 194.17 29.484 194.048 30.836H203.044Z" fill="white"/>
<path d="M229.6 21.5996L228.13 23.0696L234.01 28.9496H217V31.0496H234.01L228.13 36.9296L229.6 38.3996L238 29.9996L229.6 21.5996Z" fill="white"/>
</svg>
