<svg width="236" height="60" viewBox="0 0 236 60" fill="none" xmlns="http://www.w3.org/2000/svg">
<rect x="0.378906" width="235" height="60" rx="10" fill="#0E2B63"/>
<path d="M79.1269 39.182C77.9309 39.182 76.8562 38.974 75.9029 38.558C74.9669 38.1247 74.2302 37.5353 73.6929 36.79C73.1556 36.0273 72.8782 35.152 72.8609 34.164H75.3829C75.4696 35.0133 75.8162 35.7327 76.4229 36.322C77.0469 36.894 77.9482 37.18 79.1269 37.18C80.2536 37.18 81.1376 36.9027 81.7789 36.348C82.4376 35.776 82.7669 35.048 82.7669 34.164C82.7669 33.4707 82.5762 32.9073 82.1949 32.474C81.8136 32.0407 81.3369 31.7113 80.7649 31.486C80.1929 31.2607 79.4216 31.018 78.4509 30.758C77.2549 30.446 76.2929 30.134 75.5649 29.822C74.8542 29.51 74.2389 29.0247 73.7189 28.366C73.2162 27.69 72.9649 26.7887 72.9649 25.662C72.9649 24.674 73.2162 23.7987 73.7189 23.036C74.2216 22.2733 74.9236 21.684 75.8249 21.268C76.7436 20.852 77.7922 20.644 78.9709 20.644C80.6696 20.644 82.0562 21.0687 83.1309 21.918C84.2229 22.7673 84.8382 23.894 84.9769 25.298H82.3769C82.2902 24.6047 81.9262 23.998 81.2849 23.478C80.6436 22.9407 79.7942 22.672 78.7369 22.672C77.7489 22.672 76.9429 22.932 76.3189 23.452C75.6949 23.9547 75.3829 24.6653 75.3829 25.584C75.3829 26.2427 75.5649 26.78 75.9289 27.196C76.3102 27.612 76.7696 27.9327 77.3069 28.158C77.8616 28.366 78.6329 28.6087 79.6209 28.886C80.8169 29.2153 81.7789 29.5447 82.5069 29.874C83.2349 30.186 83.8589 30.68 84.3789 31.356C84.8989 32.0147 85.1589 32.916 85.1589 34.06C85.1589 34.944 84.9249 35.776 84.4569 36.556C83.9889 37.336 83.2956 37.9687 82.3769 38.454C81.4582 38.9393 80.3749 39.182 79.1269 39.182ZM91.5267 26.702V35.1C91.5267 35.7933 91.674 36.2873 91.9687 36.582C92.2633 36.8593 92.7747 36.998 93.5027 36.998H95.2447V39H93.1127C91.7953 39 90.8073 38.6967 90.1487 38.09C89.49 37.4833 89.1607 36.4867 89.1607 35.1V26.702H87.3147V24.752H89.1607V21.164H91.5267V24.752H95.2447V26.702H91.5267ZM97.2274 31.824C97.2274 30.368 97.522 29.094 98.1114 28.002C98.7007 26.8927 99.5067 26.0347 100.529 25.428C101.569 24.8213 102.722 24.518 103.987 24.518C105.235 24.518 106.319 24.7867 107.237 25.324C108.156 25.8613 108.841 26.5373 109.291 27.352V24.752H111.683V39H109.291V36.348C108.823 37.18 108.121 37.8733 107.185 38.428C106.267 38.9653 105.192 39.234 103.961 39.234C102.696 39.234 101.552 38.922 100.529 38.298C99.5067 37.674 98.7007 36.7987 98.1114 35.672C97.522 34.5453 97.2274 33.2627 97.2274 31.824ZM109.291 31.85C109.291 30.7753 109.075 29.8393 108.641 29.042C108.208 28.2447 107.619 27.638 106.873 27.222C106.145 26.7887 105.339 26.572 104.455 26.572C103.571 26.572 102.765 26.78 102.037 27.196C101.309 27.612 100.729 28.2187 100.295 29.016C99.862 29.8133 99.6454 30.7493 99.6454 31.824C99.6454 32.916 99.862 33.8693 100.295 34.684C100.729 35.4813 101.309 36.0967 102.037 36.53C102.765 36.946 103.571 37.154 104.455 37.154C105.339 37.154 106.145 36.946 106.873 36.53C107.619 36.0967 108.208 35.4813 108.641 34.684C109.075 33.8693 109.291 32.9247 109.291 31.85ZM118.048 27.066C118.464 26.2513 119.053 25.6187 119.816 25.168C120.596 24.7173 121.54 24.492 122.65 24.492V26.936H122.026C119.374 26.936 118.048 28.3747 118.048 31.252V39H115.682V24.752H118.048V27.066ZM128.267 26.702V35.1C128.267 35.7933 128.414 36.2873 128.709 36.582C129.004 36.8593 129.515 36.998 130.243 36.998H131.985V39H129.853C128.536 39 127.548 38.6967 126.889 38.09C126.23 37.4833 125.901 36.4867 125.901 35.1V26.702H124.055V24.752H125.901V21.164H128.267V24.752H131.985V26.702H128.267Z" fill="white"/>
<path d="M155.979 21.6L154.509 23.07L160.389 28.95H143.379V31.05H160.389L154.509 36.93L155.979 38.4L164.379 30L155.979 21.6Z" fill="white"/>
</svg>
