<svg width="235" height="61" viewBox="0 0 235 61" fill="none" xmlns="http://www.w3.org/2000/svg">
    <rect y="0.335938" width="235" height="60" rx="10" fill="#0E2B63" />
    <path
        d="M78.748 39.5179C77.552 39.5179 76.4773 39.3099 75.524 38.8939C74.588 38.4606 73.8513 37.8713 73.314 37.1259C72.7767 36.3633 72.4993 35.4879 72.482 34.4999H75.004C75.0907 35.3493 75.4373 36.0686 76.044 36.6579C76.668 37.2299 77.5693 37.5159 78.748 37.5159C79.8747 37.5159 80.7587 37.2386 81.4 36.6839C82.0587 36.1119 82.388 35.3839 82.388 34.4999C82.388 33.8066 82.1973 33.2433 81.816 32.8099C81.4347 32.3766 80.958 32.0473 80.386 31.8219C79.814 31.5966 79.0427 31.3539 78.072 31.0939C76.876 30.7819 75.914 30.4699 75.186 30.1579C74.4753 29.8459 73.86 29.3606 73.34 28.7019C72.8373 28.0259 72.586 27.1246 72.586 25.9979C72.586 25.0099 72.8373 24.1346 73.34 23.3719C73.8427 22.6093 74.5447 22.0199 75.446 21.6039C76.3647 21.1879 77.4133 20.9799 78.592 20.9799C80.2907 20.9799 81.6773 21.4046 82.752 22.2539C83.844 23.1033 84.4593 24.2299 84.598 25.6339H81.998C81.9113 24.9406 81.5473 24.3339 80.906 23.8139C80.2647 23.2766 79.4153 23.0079 78.358 23.0079C77.37 23.0079 76.564 23.2679 75.94 23.7879C75.316 24.2906 75.004 25.0013 75.004 25.9199C75.004 26.5786 75.186 27.1159 75.55 27.5319C75.9313 27.9479 76.3907 28.2686 76.928 28.4939C77.4827 28.7019 78.254 28.9446 79.242 29.2219C80.438 29.5513 81.4 29.8806 82.128 30.2099C82.856 30.5219 83.48 31.0159 84 31.6919C84.52 32.3506 84.78 33.2519 84.78 34.3959C84.78 35.2799 84.546 36.1119 84.078 36.8919C83.61 37.6719 82.9167 38.3046 81.998 38.7899C81.0793 39.2753 79.996 39.5179 78.748 39.5179ZM100.898 25.0879V39.3359H98.5318V37.2299C98.0811 37.9579 97.4484 38.5299 96.6338 38.9459C95.8364 39.3446 94.9524 39.5439 93.9818 39.5439C92.8724 39.5439 91.8758 39.3186 90.9918 38.8679C90.1078 38.3999 89.4058 37.7066 88.8858 36.7879C88.3831 35.8693 88.1318 34.7513 88.1318 33.4339V25.0879H90.4718V33.1219C90.4718 34.5259 90.8271 35.6093 91.5378 36.3719C92.2484 37.1173 93.2191 37.4899 94.4498 37.4899C95.7151 37.4899 96.7118 37.0999 97.4398 36.3199C98.1678 35.5399 98.5318 34.4046 98.5318 32.9139V25.0879H100.898ZM107.259 27.7399C107.744 26.8906 108.455 26.1973 109.391 25.6599C110.327 25.1226 111.393 24.8539 112.589 24.8539C113.871 24.8539 115.024 25.1573 116.047 25.7639C117.069 26.3706 117.875 27.2286 118.465 28.3379C119.054 29.4299 119.349 30.7039 119.349 32.1599C119.349 33.5986 119.054 34.8813 118.465 36.0079C117.875 37.1346 117.061 38.0099 116.021 38.6339C114.998 39.2579 113.854 39.5699 112.589 39.5699C111.358 39.5699 110.275 39.3013 109.339 38.7639C108.42 38.2266 107.727 37.5419 107.259 36.7099V39.3359H104.893V20.0959H107.259V27.7399ZM116.931 32.1599C116.931 31.0853 116.714 30.1493 116.281 29.3519C115.847 28.5546 115.258 27.9479 114.513 27.5319C113.785 27.1159 112.979 26.9079 112.095 26.9079C111.228 26.9079 110.422 27.1246 109.677 27.5579C108.949 27.9739 108.359 28.5893 107.909 29.4039C107.475 30.2013 107.259 31.1286 107.259 32.1859C107.259 33.2606 107.475 34.2053 107.909 35.0199C108.359 35.8173 108.949 36.4326 109.677 36.8659C110.422 37.2819 111.228 37.4899 112.095 37.4899C112.979 37.4899 113.785 37.2819 114.513 36.8659C115.258 36.4326 115.847 35.8173 116.281 35.0199C116.714 34.2053 116.931 33.2519 116.931 32.1599ZM139.597 24.8279C140.706 24.8279 141.694 25.0619 142.561 25.5299C143.428 25.9806 144.112 26.6653 144.615 27.5839C145.118 28.5026 145.369 29.6206 145.369 30.9379V39.3359H143.029V31.2759C143.029 29.8546 142.674 28.7713 141.963 28.0259C141.27 27.2633 140.325 26.8819 139.129 26.8819C137.898 26.8819 136.919 27.2806 136.191 28.0779C135.463 28.8579 135.099 29.9933 135.099 31.4839V39.3359H132.759V31.2759C132.759 29.8546 132.404 28.7713 131.693 28.0259C131 27.2633 130.055 26.8819 128.859 26.8819C127.628 26.8819 126.649 27.2806 125.921 28.0779C125.193 28.8579 124.829 29.9933 124.829 31.4839V39.3359H122.463V25.0879H124.829V27.1419C125.297 26.3966 125.921 25.8246 126.701 25.4259C127.498 25.0273 128.374 24.8279 129.327 24.8279C130.523 24.8279 131.58 25.0966 132.499 25.6339C133.418 26.1713 134.102 26.9599 134.553 27.9999C134.952 26.9946 135.61 26.2146 136.529 25.6599C137.448 25.1053 138.47 24.8279 139.597 24.8279ZM150.472 22.7739C150.021 22.7739 149.64 22.6179 149.328 22.3059C149.016 21.9939 148.86 21.6126 148.86 21.1619C148.86 20.7113 149.016 20.3299 149.328 20.0179C149.64 19.7059 150.021 19.5499 150.472 19.5499C150.905 19.5499 151.269 19.7059 151.564 20.0179C151.876 20.3299 152.032 20.7113 152.032 21.1619C152.032 21.6126 151.876 21.9939 151.564 22.3059C151.269 22.6179 150.905 22.7739 150.472 22.7739ZM151.616 25.0879V39.3359H149.25V25.0879H151.616ZM158.534 27.0379V35.4359C158.534 36.1293 158.682 36.6233 158.976 36.9179C159.271 37.1953 159.782 37.3339 160.51 37.3339H162.252V39.3359H160.12C158.803 39.3359 157.815 39.0326 157.156 38.4259C156.498 37.8193 156.168 36.8226 156.168 35.4359V27.0379H154.322V25.0879H156.168V21.4999H158.534V25.0879H162.252V27.0379H158.534Z"
        fill="white" />
</svg>
    