<svg width="236" height="61" viewBox="0 0 236 61" fill="none" xmlns="http://www.w3.org/2000/svg">
    <rect x="0.505981" y="0.336548" width="235" height="60" rx="10" fill="#00B1EB"/>
    <path d="M79.254 39.5185C78.058 39.5185 76.9833 39.3105 76.03 38.8945C75.094 38.4612 74.3573 37.8719 73.82 37.1265C73.2826 36.3639 73.0053 35.4885 72.988 34.5005H75.51C75.5966 35.3499 75.9433 36.0692 76.55 36.6585C77.174 37.2305 78.0753 37.5165 79.254 37.5165C80.3806 37.5165 81.2646 37.2392 81.906 36.6845C82.5646 36.1125 82.894 35.3845 82.894 34.5005C82.894 33.8072 82.7033 33.2439 82.322 32.8105C81.9406 32.3772 81.464 32.0479 80.892 31.8225C80.32 31.5972 79.5486 31.3545 78.578 31.0945C77.382 30.7825 76.42 30.4705 75.692 30.1585C74.9813 29.8465 74.366 29.3612 73.846 28.7025C73.3433 28.0265 73.092 27.1252 73.092 25.9985C73.092 25.0105 73.3433 24.1352 73.846 23.3725C74.3486 22.6099 75.0506 22.0205 75.952 21.6045C76.8706 21.1885 77.9193 20.9805 79.098 20.9805C80.7966 20.9805 82.1833 21.4052 83.258 22.2545C84.35 23.1039 84.9653 24.2305 85.104 25.6345H82.504C82.4173 24.9412 82.0533 24.3345 81.412 23.8145C80.7706 23.2772 79.9213 23.0085 78.864 23.0085C77.876 23.0085 77.07 23.2685 76.446 23.7885C75.822 24.2912 75.51 25.0019 75.51 25.9205C75.51 26.5792 75.692 27.1165 76.056 27.5325C76.4373 27.9485 76.8966 28.2692 77.434 28.4945C77.9886 28.7025 78.76 28.9452 79.748 29.2225C80.944 29.5519 81.906 29.8812 82.634 30.2105C83.362 30.5225 83.986 31.0165 84.506 31.6925C85.026 32.3512 85.286 33.2525 85.286 34.3965C85.286 35.2805 85.052 36.1125 84.584 36.8925C84.116 37.6725 83.4226 38.3052 82.504 38.7905C81.5853 39.2759 80.502 39.5185 79.254 39.5185ZM101.404 25.0885V39.3365H99.0377V37.2305C98.5871 37.9585 97.9544 38.5305 97.1397 38.9465C96.3424 39.3452 95.4584 39.5445 94.4877 39.5445C93.3784 39.5445 92.3817 39.3192 91.4977 38.8685C90.6137 38.4005 89.9117 37.7072 89.3917 36.7885C88.8891 35.8699 88.6377 34.7519 88.6377 33.4345V25.0885H90.9777V33.1225C90.9777 34.5265 91.3331 35.6099 92.0437 36.3725C92.7544 37.1179 93.7251 37.4905 94.9557 37.4905C96.2211 37.4905 97.2177 37.1005 97.9457 36.3205C98.6737 35.5405 99.0377 34.4052 99.0377 32.9145V25.0885H101.404ZM107.765 27.7405C108.25 26.8912 108.961 26.1979 109.897 25.6605C110.833 25.1232 111.899 24.8545 113.095 24.8545C114.377 24.8545 115.53 25.1579 116.553 25.7645C117.575 26.3712 118.381 27.2292 118.971 28.3385C119.56 29.4305 119.855 30.7045 119.855 32.1605C119.855 33.5992 119.56 34.8819 118.971 36.0085C118.381 37.1352 117.567 38.0105 116.527 38.6345C115.504 39.2585 114.36 39.5705 113.095 39.5705C111.864 39.5705 110.781 39.3019 109.845 38.7645C108.926 38.2272 108.233 37.5425 107.765 36.7105V39.3365H105.399V20.0965H107.765V27.7405ZM117.437 32.1605C117.437 31.0859 117.22 30.1499 116.787 29.3525C116.353 28.5552 115.764 27.9485 115.019 27.5325C114.291 27.1165 113.485 26.9085 112.601 26.9085C111.734 26.9085 110.928 27.1252 110.183 27.5585C109.455 27.9745 108.865 28.5899 108.415 29.4045C107.981 30.2019 107.765 31.1292 107.765 32.1865C107.765 33.2612 107.981 34.2059 108.415 35.0205C108.865 35.8179 109.455 36.4332 110.183 36.8665C110.928 37.2825 111.734 37.4905 112.601 37.4905C113.485 37.4905 114.291 37.2825 115.019 36.8665C115.764 36.4332 116.353 35.8179 116.787 35.0205C117.22 34.2059 117.437 33.2525 117.437 32.1605ZM140.103 24.8285C141.212 24.8285 142.2 25.0625 143.067 25.5305C143.934 25.9812 144.618 26.6659 145.121 27.5845C145.624 28.5032 145.875 29.6212 145.875 30.9385V39.3365H143.535V31.2765C143.535 29.8552 143.18 28.7719 142.469 28.0265C141.776 27.2639 140.831 26.8825 139.635 26.8825C138.404 26.8825 137.425 27.2812 136.697 28.0785C135.969 28.8585 135.605 29.9939 135.605 31.4845V39.3365H133.265V31.2765C133.265 29.8552 132.91 28.7719 132.199 28.0265C131.506 27.2639 130.561 26.8825 129.365 26.8825C128.134 26.8825 127.155 27.2812 126.427 28.0785C125.699 28.8585 125.335 29.9939 125.335 31.4845V39.3365H122.969V25.0885H125.335V27.1425C125.803 26.3972 126.427 25.8252 127.207 25.4265C128.004 25.0279 128.88 24.8285 129.833 24.8285C131.029 24.8285 132.086 25.0972 133.005 25.6345C133.924 26.1719 134.608 26.9605 135.059 28.0005C135.458 26.9952 136.116 26.2152 137.035 25.6605C137.954 25.1059 138.976 24.8285 140.103 24.8285ZM150.978 22.7745C150.527 22.7745 150.146 22.6185 149.834 22.3065C149.522 21.9945 149.366 21.6132 149.366 21.1625C149.366 20.7119 149.522 20.3305 149.834 20.0185C150.146 19.7065 150.527 19.5505 150.978 19.5505C151.411 19.5505 151.775 19.7065 152.07 20.0185C152.382 20.3305 152.538 20.7119 152.538 21.1625C152.538 21.6132 152.382 21.9945 152.07 22.3065C151.775 22.6185 151.411 22.7745 150.978 22.7745ZM152.122 25.0885V39.3365H149.756V25.0885H152.122ZM159.04 27.0385V35.4365C159.04 36.1299 159.188 36.6239 159.482 36.9185C159.777 37.1959 160.288 37.3345 161.016 37.3345H162.758V39.3365H160.626C159.309 39.3365 158.321 39.0332 157.662 38.4265C157.004 37.8199 156.674 36.8232 156.674 35.4365V27.0385H154.828V25.0885H156.674V21.5005H159.04V25.0885H162.758V27.0385H159.04Z" fill="white"/>
</svg>
    